%
M48
M72
T01C0.0157
T02C0.0197
T03C0.0236
T04C0.0394
%
T01
X1323Y2273
X1335Y4746
X1876Y6147
X3175Y5907
X3796Y6738
X4878Y4966
X5187Y3714
X6164Y832
X9797Y4120
X8776Y5084
X11573Y3391
X13410Y3067
X15341Y4250
X18381Y3254
X20609Y3423
X23770Y3340
X24250Y5297
X23118Y9067
X22888Y9907
X22467Y10269
X22994Y10939
X23364Y10399
X24380Y10380
X21652Y11974
X20934Y10987
X20333Y10616
X21014Y10317
X21089Y9521
X20360Y9773
X18845Y10061
X18451Y9746
X18057Y9411
X17939Y10080
X17171Y9509
X16876Y9785
X15778Y10025
X15262Y10348
X15258Y10891
X16030Y11596
X15853Y12049
X16581Y11576
X17477Y11905
X18274Y11045
X18628Y10789
X19278Y11104
X19612Y11557
X20400Y11694
X20400Y12860
X20026Y13139
X19790Y13537
X19514Y13911
X19238Y14269
X18372Y14057
X18175Y14903
X18097Y15415
X18884Y15513
X18923Y16222
X17044Y17407
X16256Y17456
X15794Y17088
X15469Y16472
X15046Y16065
X15833Y15415
X15439Y15159
X14514Y14470
X14386Y15173
X13510Y14234
X12979Y14647
X12359Y14647
X11935Y14943
X11807Y13657
X12549Y12628
X13431Y11832
X14238Y11970
X14455Y13269
X15935Y13356
X16805Y13608
X16892Y15057
X14684Y16903
X13530Y17206
X12467Y17285
X11347Y19496
X11393Y19979
X12752Y21059
X11453Y21836
X14696Y20356
X15746Y19666
X15543Y18615
X16443Y18614
X17309Y18614
X18089Y18638
X21384Y19691
X22398Y18598
X22799Y17444
X21925Y17378
X21971Y15285
X21286Y15159
X21561Y14450
X21278Y13734
X23254Y14234
X24160Y19454
X22418Y20960
X22417Y22015
X24323Y21976
X12014Y10080
X11364Y9746
X10951Y9313
X9888Y9017
X9888Y9864
X9215Y10450
X8323Y11462
X7841Y12584
X9849Y14155
X9957Y16836
X8826Y16813
X6906Y18086
X5272Y18352
X4140Y17659
X1197Y18876
X1201Y21161
X990Y15842
X1040Y12348
X6601Y10084
X7565Y8559
X10321Y11242
X12329Y8919
X12723Y8584
X14179Y9037
X20397Y7975
T02
X17313Y7612
X17388Y6675
X10774Y6990
X4589Y8824
X24085Y17974
T03
X23175Y15257
X23845Y6665
T04
X23899Y777
X22899Y777
X21899Y777
X20899Y777
X19899Y777
X18888Y789
X17888Y789
X16888Y789
X15888Y789
X14888Y789
X13888Y789
X12888Y789
X11888Y789
X10888Y789
X9884Y797
X8884Y797
X7884Y797
X2345Y8431
X2345Y10163
X1963Y13709
X1963Y14709
X1963Y15709
X5876Y22860
X6876Y22860
X7876Y22860
X8861Y22846
X9861Y22846
X10890Y22847
X11890Y22847
X12890Y22847
X13890Y22847
X14904Y22876
X15904Y22876
X16904Y22876
X17904Y22876
X18896Y22876
X19896Y22876
X20888Y22852
X21888Y22852
X22888Y22852
X23888Y22852
X24199Y16202
X2899Y22894
X1899Y22894
M30
