G75*
G70*
%OFA0B0*%
%FSLAX24Y24*%
%IPPOS*%
%LPD*%
%AMOC8*
5,1,8,0,0,1.08239X$1,22.5*
%
%ADD10C,0.0000*%
D10*
X000479Y000100D02*
X024849Y000100D01*
X024849Y023565D01*
X000479Y023604D01*
X000479Y000100D01*
X002148Y008431D02*
X002150Y008458D01*
X002156Y008485D01*
X002165Y008511D01*
X002178Y008535D01*
X002194Y008558D01*
X002213Y008577D01*
X002235Y008594D01*
X002259Y008608D01*
X002284Y008618D01*
X002311Y008625D01*
X002338Y008628D01*
X002366Y008627D01*
X002393Y008622D01*
X002419Y008614D01*
X002443Y008602D01*
X002466Y008586D01*
X002487Y008568D01*
X002504Y008547D01*
X002519Y008523D01*
X002530Y008498D01*
X002538Y008472D01*
X002542Y008445D01*
X002542Y008417D01*
X002538Y008390D01*
X002530Y008364D01*
X002519Y008339D01*
X002504Y008315D01*
X002487Y008294D01*
X002466Y008276D01*
X002444Y008260D01*
X002419Y008248D01*
X002393Y008240D01*
X002366Y008235D01*
X002338Y008234D01*
X002311Y008237D01*
X002284Y008244D01*
X002259Y008254D01*
X002235Y008268D01*
X002213Y008285D01*
X002194Y008304D01*
X002178Y008327D01*
X002165Y008351D01*
X002156Y008377D01*
X002150Y008404D01*
X002148Y008431D01*
X002148Y010163D02*
X002150Y010190D01*
X002156Y010217D01*
X002165Y010243D01*
X002178Y010267D01*
X002194Y010290D01*
X002213Y010309D01*
X002235Y010326D01*
X002259Y010340D01*
X002284Y010350D01*
X002311Y010357D01*
X002338Y010360D01*
X002366Y010359D01*
X002393Y010354D01*
X002419Y010346D01*
X002443Y010334D01*
X002466Y010318D01*
X002487Y010300D01*
X002504Y010279D01*
X002519Y010255D01*
X002530Y010230D01*
X002538Y010204D01*
X002542Y010177D01*
X002542Y010149D01*
X002538Y010122D01*
X002530Y010096D01*
X002519Y010071D01*
X002504Y010047D01*
X002487Y010026D01*
X002466Y010008D01*
X002444Y009992D01*
X002419Y009980D01*
X002393Y009972D01*
X002366Y009967D01*
X002338Y009966D01*
X002311Y009969D01*
X002284Y009976D01*
X002259Y009986D01*
X002235Y010000D01*
X002213Y010017D01*
X002194Y010036D01*
X002178Y010059D01*
X002165Y010083D01*
X002156Y010109D01*
X002150Y010136D01*
X002148Y010163D01*
M02*
