G75*
G70*
%OFA0B0*%
%FSLAX24Y24*%
%IPPOS*%
%LPD*%
%AMOC8*
5,1,8,0,0,1.08239X$1,22.5*
%
%ADD10C,0.0000*%
%ADD11C,0.0160*%
%ADD12C,0.0040*%
%ADD13C,0.0090*%
%ADD14C,0.0050*%
%ADD15C,0.0110*%
%ADD16C,0.0120*%
%ADD17C,0.0020*%
%ADD18C,0.0030*%
%ADD19C,0.0080*%
%ADD20R,0.0150X0.0050*%
%ADD21R,0.0450X0.0050*%
%ADD22R,0.0400X0.0050*%
%ADD23R,0.0200X0.0050*%
%ADD24R,0.0600X0.0050*%
%ADD25R,0.0650X0.0050*%
%ADD26R,0.0250X0.0050*%
%ADD27R,0.0700X0.0050*%
%ADD28R,0.0500X0.0050*%
%ADD29R,0.0550X0.0050*%
%ADD30R,0.0300X0.0050*%
%ADD31R,0.0350X0.0050*%
%ADD32R,0.0100X0.0050*%
%ADD33R,0.0800X0.0050*%
%ADD34R,0.1150X0.0050*%
%ADD35R,0.1350X0.0050*%
%ADD36R,0.1550X0.0050*%
%ADD37R,0.1700X0.0050*%
%ADD38R,0.1800X0.0050*%
%ADD39R,0.1950X0.0050*%
%ADD40R,0.0850X0.0050*%
%ADD41R,0.0750X0.0050*%
D10*
X000479Y000100D02*
X024849Y000100D01*
X024849Y023565D01*
X000479Y023604D01*
X000479Y000100D01*
X002148Y008431D02*
X002150Y008458D01*
X002156Y008485D01*
X002165Y008511D01*
X002178Y008535D01*
X002194Y008558D01*
X002213Y008577D01*
X002235Y008594D01*
X002259Y008608D01*
X002284Y008618D01*
X002311Y008625D01*
X002338Y008628D01*
X002366Y008627D01*
X002393Y008622D01*
X002419Y008614D01*
X002443Y008602D01*
X002466Y008586D01*
X002487Y008568D01*
X002504Y008547D01*
X002519Y008523D01*
X002530Y008498D01*
X002538Y008472D01*
X002542Y008445D01*
X002542Y008417D01*
X002538Y008390D01*
X002530Y008364D01*
X002519Y008339D01*
X002504Y008315D01*
X002487Y008294D01*
X002466Y008276D01*
X002444Y008260D01*
X002419Y008248D01*
X002393Y008240D01*
X002366Y008235D01*
X002338Y008234D01*
X002311Y008237D01*
X002284Y008244D01*
X002259Y008254D01*
X002235Y008268D01*
X002213Y008285D01*
X002194Y008304D01*
X002178Y008327D01*
X002165Y008351D01*
X002156Y008377D01*
X002150Y008404D01*
X002148Y008431D01*
X002148Y010163D02*
X002150Y010190D01*
X002156Y010217D01*
X002165Y010243D01*
X002178Y010267D01*
X002194Y010290D01*
X002213Y010309D01*
X002235Y010326D01*
X002259Y010340D01*
X002284Y010350D01*
X002311Y010357D01*
X002338Y010360D01*
X002366Y010359D01*
X002393Y010354D01*
X002419Y010346D01*
X002443Y010334D01*
X002466Y010318D01*
X002487Y010300D01*
X002504Y010279D01*
X002519Y010255D01*
X002530Y010230D01*
X002538Y010204D01*
X002542Y010177D01*
X002542Y010149D01*
X002538Y010122D01*
X002530Y010096D01*
X002519Y010071D01*
X002504Y010047D01*
X002487Y010026D01*
X002466Y010008D01*
X002444Y009992D01*
X002419Y009980D01*
X002393Y009972D01*
X002366Y009967D01*
X002338Y009966D01*
X002311Y009969D01*
X002284Y009976D01*
X002259Y009986D01*
X002235Y010000D01*
X002213Y010017D01*
X002194Y010036D01*
X002178Y010059D01*
X002165Y010083D01*
X002156Y010109D01*
X002150Y010136D01*
X002148Y010163D01*
D11*
X002463Y013209D02*
X001463Y013209D01*
X001463Y015209D01*
X000563Y015209D01*
X000563Y013209D01*
X001463Y013209D01*
X002463Y013209D02*
X002463Y014209D01*
X003363Y014209D01*
X003363Y016209D01*
X002463Y016209D01*
X001463Y016209D01*
X001463Y015209D01*
X002463Y014209D02*
X002463Y016209D01*
X005341Y018939D02*
X010380Y018939D01*
X010380Y020002D01*
X005341Y020002D01*
X005328Y018972D02*
X005328Y023346D01*
X005322Y023360D02*
X010271Y023371D01*
X010380Y023348D02*
X010380Y020002D01*
X010380Y018939D02*
X014396Y018939D01*
X014396Y023348D01*
X014390Y023363D02*
X010070Y023363D01*
X010058Y022318D02*
X014378Y022318D01*
X014383Y022320D02*
X018388Y022309D01*
X018398Y018970D01*
X018337Y019986D02*
X014439Y019986D01*
X014396Y018939D02*
X024671Y018939D01*
X024675Y018980D02*
X024675Y022309D01*
X024675Y023380D01*
X018388Y023380D01*
X014386Y023362D01*
X018388Y023380D02*
X018388Y022309D01*
X024675Y022309D01*
X024636Y020025D02*
X020474Y020025D01*
X020413Y019040D02*
X020403Y022331D01*
X020403Y022172D02*
X020403Y023330D01*
X023699Y016702D02*
X024699Y016702D01*
X024699Y015702D01*
X023699Y015702D01*
X023699Y016702D01*
X015135Y014051D02*
X015137Y014066D01*
X015142Y014079D01*
X015151Y014091D01*
X015162Y014101D01*
X015176Y014107D01*
X015190Y014110D01*
X015205Y014109D01*
X015219Y014104D01*
X015232Y014096D01*
X015242Y014086D01*
X015249Y014073D01*
X015253Y014058D01*
X015253Y014044D01*
X015249Y014029D01*
X015242Y014016D01*
X015232Y014006D01*
X015219Y013998D01*
X015205Y013993D01*
X015190Y013992D01*
X015176Y013995D01*
X015162Y014001D01*
X015151Y014011D01*
X015142Y014023D01*
X015137Y014036D01*
X015135Y014051D01*
X008389Y018987D02*
X008389Y023322D01*
X010134Y022317D02*
X005366Y022317D01*
X007388Y004765D02*
X024632Y004765D01*
X024671Y004765D02*
X024671Y000238D01*
X024640Y000242D02*
X024640Y000257D01*
X024640Y000242D02*
X007372Y000242D01*
X007374Y000261D02*
X007378Y001318D01*
X007378Y004763D01*
X007384Y003537D02*
X010345Y003537D01*
X010380Y004726D02*
X010380Y000238D01*
X007388Y001340D02*
X024632Y001340D01*
X019396Y000238D02*
X019396Y004726D01*
D12*
X019659Y004389D02*
X019736Y004466D01*
X019812Y004466D01*
X019889Y004389D01*
X019966Y004466D01*
X020042Y004466D01*
X020119Y004389D01*
X020119Y004236D01*
X020042Y004159D01*
X020119Y004005D02*
X020119Y003698D01*
X020119Y003852D02*
X019659Y003852D01*
X019812Y003698D01*
X020196Y003545D02*
X020196Y003238D01*
X020119Y003085D02*
X020119Y002778D01*
X020119Y002931D02*
X019659Y002931D01*
X019812Y002778D01*
X019736Y002624D02*
X019659Y002547D01*
X019659Y002394D01*
X019736Y002317D01*
X020042Y002317D01*
X020119Y002394D01*
X020119Y002547D01*
X020042Y002624D01*
X019736Y002624D01*
X019659Y002164D02*
X019659Y002010D01*
X019659Y002087D02*
X020119Y002087D01*
X020119Y002010D02*
X020119Y002164D01*
X019889Y001857D02*
X019966Y001780D01*
X019966Y001550D01*
X020119Y001550D02*
X019659Y001550D01*
X019659Y001780D01*
X019736Y001857D01*
X019889Y001857D01*
X020580Y001780D02*
X020580Y001550D01*
X021040Y001550D01*
X020887Y001550D02*
X020887Y001780D01*
X020810Y001857D01*
X020657Y001857D01*
X020580Y001780D01*
X020580Y002010D02*
X020580Y002164D01*
X020580Y002087D02*
X021040Y002087D01*
X021040Y002010D02*
X021040Y002164D01*
X020964Y002317D02*
X021040Y002394D01*
X021040Y002547D01*
X020964Y002624D01*
X020657Y002624D01*
X020580Y002547D01*
X020580Y002394D01*
X020657Y002317D01*
X020964Y002317D01*
X021040Y002778D02*
X021040Y003085D01*
X021040Y002931D02*
X020580Y002931D01*
X020734Y002778D01*
X021117Y003238D02*
X021117Y003545D01*
X021040Y003698D02*
X021040Y004005D01*
X021040Y003852D02*
X020580Y003852D01*
X020734Y003698D01*
X020810Y004159D02*
X020810Y004466D01*
X020580Y004389D02*
X020810Y004159D01*
X021040Y004389D02*
X020580Y004389D01*
X019889Y004389D02*
X019889Y004312D01*
X019736Y004159D02*
X019659Y004236D01*
X019659Y004389D01*
X018989Y004377D02*
X018989Y004224D01*
X018913Y004147D01*
X018836Y004147D01*
X018759Y004224D01*
X018759Y004377D01*
X018836Y004454D01*
X018913Y004454D01*
X018989Y004377D01*
X018759Y004377D02*
X018682Y004454D01*
X018606Y004454D01*
X018529Y004377D01*
X018529Y004224D01*
X018606Y004147D01*
X018682Y004147D01*
X018759Y004224D01*
X018682Y003994D02*
X018606Y003994D01*
X018529Y003917D01*
X018529Y003763D01*
X018606Y003687D01*
X018682Y003994D02*
X018989Y003687D01*
X018989Y003994D01*
X019066Y003533D02*
X019066Y003226D01*
X018989Y003073D02*
X018989Y002766D01*
X018989Y002919D02*
X018529Y002919D01*
X018682Y002766D01*
X018606Y002612D02*
X018529Y002536D01*
X018529Y002382D01*
X018606Y002305D01*
X018913Y002305D01*
X018989Y002382D01*
X018989Y002536D01*
X018913Y002612D01*
X018606Y002612D01*
X018529Y002152D02*
X018529Y001999D01*
X018529Y002075D02*
X018989Y002075D01*
X018989Y001999D02*
X018989Y002152D01*
X018759Y001845D02*
X018836Y001768D01*
X018836Y001538D01*
X018989Y001538D02*
X018529Y001538D01*
X018529Y001768D01*
X018606Y001845D01*
X018759Y001845D01*
X017997Y001999D02*
X017997Y002152D01*
X017997Y002075D02*
X017537Y002075D01*
X017537Y001999D02*
X017537Y002152D01*
X017614Y002305D02*
X017920Y002305D01*
X017997Y002382D01*
X017997Y002536D01*
X017920Y002612D01*
X017614Y002612D01*
X017537Y002536D01*
X017537Y002382D01*
X017614Y002305D01*
X017614Y001845D02*
X017767Y001845D01*
X017844Y001768D01*
X017844Y001538D01*
X017997Y001538D02*
X017537Y001538D01*
X017537Y001768D01*
X017614Y001845D01*
X016997Y002022D02*
X016997Y002176D01*
X016997Y002099D02*
X016537Y002099D01*
X016537Y002022D02*
X016537Y002176D01*
X016614Y002329D02*
X016920Y002329D01*
X016997Y002406D01*
X016997Y002559D01*
X016920Y002636D01*
X016614Y002636D01*
X016537Y002559D01*
X016537Y002406D01*
X016614Y002329D01*
X016614Y001869D02*
X016767Y001869D01*
X016844Y001792D01*
X016844Y001562D01*
X016997Y001562D02*
X016537Y001562D01*
X016537Y001792D01*
X016614Y001869D01*
X016048Y001983D02*
X016048Y002136D01*
X016048Y002059D02*
X015588Y002059D01*
X015588Y001983D02*
X015588Y002136D01*
X015665Y002290D02*
X015972Y002290D01*
X016048Y002366D01*
X016048Y002520D01*
X015972Y002597D01*
X015665Y002597D01*
X015588Y002520D01*
X015588Y002366D01*
X015665Y002290D01*
X015665Y001829D02*
X015818Y001829D01*
X015895Y001753D01*
X015895Y001522D01*
X016048Y001522D02*
X015588Y001522D01*
X015588Y001753D01*
X015665Y001829D01*
X015013Y001987D02*
X015013Y002140D01*
X015013Y002063D02*
X014553Y002063D01*
X014553Y001987D02*
X014553Y002140D01*
X014629Y002294D02*
X014936Y002294D01*
X015013Y002370D01*
X015013Y002524D01*
X014936Y002601D01*
X014629Y002601D01*
X014553Y002524D01*
X014553Y002370D01*
X014629Y002294D01*
X014629Y001833D02*
X014783Y001833D01*
X014859Y001756D01*
X014859Y001526D01*
X015013Y001526D02*
X014553Y001526D01*
X014553Y001756D01*
X014629Y001833D01*
X014076Y001995D02*
X014076Y002148D01*
X014076Y002071D02*
X013616Y002071D01*
X013616Y001995D02*
X013616Y002148D01*
X013692Y002301D02*
X013999Y002301D01*
X014076Y002378D01*
X014076Y002532D01*
X013999Y002608D01*
X013692Y002608D01*
X013616Y002532D01*
X013616Y002378D01*
X013692Y002301D01*
X013692Y001841D02*
X013846Y001841D01*
X013922Y001764D01*
X013922Y001534D01*
X014076Y001534D02*
X013616Y001534D01*
X013616Y001764D01*
X013692Y001841D01*
X013127Y001987D02*
X013127Y002140D01*
X013127Y002063D02*
X012667Y002063D01*
X012667Y001987D02*
X012667Y002140D01*
X012743Y002294D02*
X012667Y002370D01*
X012667Y002524D01*
X012743Y002601D01*
X013050Y002601D01*
X013127Y002524D01*
X013127Y002370D01*
X013050Y002294D01*
X012743Y002294D01*
X012743Y001833D02*
X012667Y001756D01*
X012667Y001526D01*
X013127Y001526D01*
X012974Y001526D02*
X012974Y001756D01*
X012897Y001833D01*
X012743Y001833D01*
X012186Y001999D02*
X012186Y002152D01*
X012186Y002075D02*
X011726Y002075D01*
X011726Y001999D02*
X011726Y002152D01*
X011802Y002305D02*
X011726Y002382D01*
X011726Y002536D01*
X011802Y002612D01*
X012109Y002612D01*
X012186Y002536D01*
X012186Y002382D01*
X012109Y002305D01*
X011802Y002305D01*
X011802Y001845D02*
X011726Y001768D01*
X011726Y001538D01*
X012186Y001538D01*
X012033Y001538D02*
X012033Y001768D01*
X011956Y001845D01*
X011802Y001845D01*
X011111Y002022D02*
X011111Y002176D01*
X011111Y002099D02*
X010651Y002099D01*
X010651Y002022D02*
X010651Y002176D01*
X010728Y002329D02*
X011035Y002329D01*
X011111Y002406D01*
X011111Y002559D01*
X011035Y002636D01*
X010728Y002636D01*
X010651Y002559D01*
X010651Y002406D01*
X010728Y002329D01*
X010728Y001869D02*
X010881Y001869D01*
X010958Y001792D01*
X010958Y001562D01*
X011111Y001562D02*
X010651Y001562D01*
X010651Y001792D01*
X010728Y001869D01*
X009984Y001799D02*
X009984Y001645D01*
X009907Y001568D01*
X009754Y001722D02*
X009754Y001799D01*
X009831Y001875D01*
X009907Y001875D01*
X009984Y001799D01*
X009984Y002029D02*
X009907Y002029D01*
X009907Y002106D01*
X009984Y002106D01*
X009984Y002029D01*
X009907Y002259D02*
X009984Y002336D01*
X009984Y002489D01*
X009907Y002566D01*
X009831Y002566D01*
X009754Y002489D01*
X009754Y002412D01*
X009754Y002489D02*
X009677Y002566D01*
X009600Y002566D01*
X009524Y002489D01*
X009524Y002336D01*
X009600Y002259D01*
X009600Y001875D02*
X009677Y001875D01*
X009754Y001799D01*
X009600Y001875D02*
X009524Y001799D01*
X009524Y001645D01*
X009600Y001568D01*
X009025Y001641D02*
X008948Y001564D01*
X009025Y001641D02*
X009025Y001794D01*
X008948Y001871D01*
X008795Y001871D01*
X008718Y001794D01*
X008718Y001717D01*
X008795Y001564D01*
X008564Y001564D01*
X008564Y001871D01*
X008948Y002024D02*
X008948Y002101D01*
X009025Y002101D01*
X009025Y002024D01*
X008948Y002024D01*
X008948Y002254D02*
X008641Y002254D01*
X008564Y002331D01*
X008564Y002485D01*
X008641Y002561D01*
X008948Y002254D01*
X009025Y002331D01*
X009025Y002485D01*
X008948Y002561D01*
X008641Y002561D01*
X008564Y002715D02*
X008871Y002715D01*
X009025Y002868D01*
X008871Y003022D01*
X008564Y003022D01*
X008089Y002740D02*
X008089Y002510D01*
X007629Y002510D01*
X007629Y002740D01*
X007706Y002817D01*
X008013Y002817D01*
X008089Y002740D01*
X008089Y002356D02*
X007629Y002356D01*
X007629Y002049D02*
X008089Y002356D01*
X008089Y002049D02*
X007629Y002049D01*
X007706Y001896D02*
X007629Y001819D01*
X007629Y001666D01*
X007706Y001589D01*
X008013Y001589D01*
X008089Y001666D01*
X008089Y001819D01*
X008013Y001896D01*
X007859Y001896D01*
X007859Y001742D01*
X009524Y002719D02*
X009831Y002719D01*
X009984Y002873D01*
X009831Y003026D01*
X009524Y003026D01*
X009498Y003923D02*
X009344Y004077D01*
X009421Y004077D02*
X009191Y004077D01*
X009191Y003923D02*
X009191Y004384D01*
X009421Y004384D01*
X009498Y004307D01*
X009498Y004153D01*
X009421Y004077D01*
X009038Y003923D02*
X009038Y004384D01*
X008731Y004384D02*
X008731Y003923D01*
X008884Y004077D01*
X009038Y003923D01*
X008577Y004153D02*
X008500Y004077D01*
X008270Y004077D01*
X008270Y003923D02*
X008270Y004384D01*
X008500Y004384D01*
X008577Y004307D01*
X008577Y004153D01*
X010651Y004247D02*
X010651Y004401D01*
X010728Y004478D01*
X011035Y004171D01*
X011111Y004247D01*
X011111Y004401D01*
X011035Y004478D01*
X010728Y004478D01*
X010651Y004247D02*
X010728Y004171D01*
X011035Y004171D01*
X011111Y004017D02*
X011111Y003710D01*
X010804Y004017D01*
X010728Y004017D01*
X010651Y003940D01*
X010651Y003787D01*
X010728Y003710D01*
X011188Y003557D02*
X011188Y003250D01*
X011111Y003096D02*
X011111Y002789D01*
X011111Y002943D02*
X010651Y002943D01*
X010804Y002789D01*
X011726Y002919D02*
X012186Y002919D01*
X012186Y002766D02*
X012186Y003073D01*
X012263Y003226D02*
X012263Y003533D01*
X012186Y003687D02*
X011879Y003994D01*
X011802Y003994D01*
X011726Y003917D01*
X011726Y003763D01*
X011802Y003687D01*
X012186Y003687D02*
X012186Y003994D01*
X012186Y004147D02*
X012186Y004454D01*
X012186Y004300D02*
X011726Y004300D01*
X011879Y004147D01*
X012667Y004212D02*
X012743Y004135D01*
X012667Y004212D02*
X012667Y004365D01*
X012743Y004442D01*
X012820Y004442D01*
X013127Y004135D01*
X013127Y004442D01*
X013127Y003982D02*
X013127Y003675D01*
X012820Y003982D01*
X012743Y003982D01*
X012667Y003905D01*
X012667Y003752D01*
X012743Y003675D01*
X013204Y003521D02*
X013204Y003214D01*
X013127Y003061D02*
X013127Y002754D01*
X013127Y002907D02*
X012667Y002907D01*
X012820Y002754D01*
X013616Y002915D02*
X014076Y002915D01*
X014076Y002762D02*
X014076Y003069D01*
X014153Y003222D02*
X014153Y003529D01*
X014076Y003683D02*
X013769Y003990D01*
X013692Y003990D01*
X013616Y003913D01*
X013616Y003759D01*
X013692Y003683D01*
X014076Y003683D02*
X014076Y003990D01*
X013999Y004143D02*
X014076Y004220D01*
X014076Y004373D01*
X013999Y004450D01*
X013922Y004450D01*
X013846Y004373D01*
X013846Y004297D01*
X013846Y004373D02*
X013769Y004450D01*
X013692Y004450D01*
X013616Y004373D01*
X013616Y004220D01*
X013692Y004143D01*
X013609Y004949D02*
X013609Y005179D01*
X013685Y005256D01*
X013762Y005256D01*
X013839Y005179D01*
X013839Y004949D01*
X013378Y004949D01*
X013378Y005179D01*
X013455Y005256D01*
X013532Y005256D01*
X013609Y005179D01*
X013455Y005409D02*
X013762Y005409D01*
X013839Y005486D01*
X013839Y005640D01*
X013762Y005716D01*
X013455Y005716D01*
X013378Y005640D01*
X013378Y005486D01*
X013455Y005409D01*
X013455Y005870D02*
X013762Y005870D01*
X013839Y005946D01*
X013839Y006100D01*
X013762Y006177D01*
X013455Y006177D01*
X013378Y006100D01*
X013378Y005946D01*
X013455Y005870D01*
X013378Y006330D02*
X013378Y006637D01*
X013378Y006484D02*
X013839Y006484D01*
X013839Y006791D02*
X013378Y006791D01*
X013839Y006791D02*
X013839Y007097D01*
X013762Y007251D02*
X013839Y007328D01*
X013839Y007481D01*
X013762Y007558D01*
X013455Y007558D01*
X013378Y007481D01*
X013378Y007328D01*
X013455Y007251D01*
X013762Y007251D01*
X013839Y007711D02*
X013532Y007711D01*
X013378Y007865D01*
X013532Y008018D01*
X013839Y008018D01*
X013839Y008172D02*
X013839Y008402D01*
X013762Y008479D01*
X013455Y008479D01*
X013378Y008402D01*
X013378Y008172D01*
X013839Y008172D01*
X013609Y008018D02*
X013609Y007711D01*
X013609Y008632D02*
X013609Y008786D01*
X013839Y008632D02*
X013839Y008939D01*
X013839Y009093D02*
X013378Y009093D01*
X013378Y009323D01*
X013455Y009399D01*
X013609Y009399D01*
X013685Y009323D01*
X013685Y009093D01*
X013685Y009246D02*
X013839Y009399D01*
X013378Y008939D02*
X013378Y008632D01*
X013839Y008632D01*
X011953Y007781D02*
X011953Y007704D01*
X011876Y007628D01*
X011646Y007628D01*
X011493Y007551D02*
X011493Y007474D01*
X011416Y007397D01*
X011262Y007397D01*
X011186Y007474D01*
X011032Y007474D02*
X011032Y007858D01*
X011186Y007781D02*
X011186Y007704D01*
X011262Y007628D01*
X011416Y007628D01*
X011493Y007551D01*
X011646Y007397D02*
X011876Y007397D01*
X011953Y007474D01*
X011953Y007551D01*
X011876Y007628D01*
X011953Y007781D02*
X011876Y007858D01*
X011646Y007858D01*
X011646Y007397D01*
X011493Y007781D02*
X011416Y007858D01*
X011262Y007858D01*
X011186Y007781D01*
X011032Y007474D02*
X010955Y007397D01*
X010802Y007397D01*
X010725Y007474D01*
X010725Y007858D01*
X010706Y006665D02*
X010936Y006665D01*
X011012Y006588D01*
X011012Y006435D01*
X010936Y006358D01*
X010706Y006358D01*
X010706Y006204D02*
X010706Y006665D01*
X011166Y006588D02*
X011166Y006281D01*
X011243Y006204D01*
X011396Y006204D01*
X011473Y006281D01*
X011473Y006588D01*
X011396Y006665D01*
X011243Y006665D01*
X011166Y006588D01*
X011626Y006665D02*
X011626Y006204D01*
X011780Y006358D01*
X011933Y006204D01*
X011933Y006665D01*
X012087Y006665D02*
X012087Y006204D01*
X012394Y006204D01*
X012547Y006204D02*
X012547Y006665D01*
X012777Y006665D01*
X012854Y006588D01*
X012854Y006435D01*
X012777Y006358D01*
X012547Y006358D01*
X012701Y006358D02*
X012854Y006204D01*
X012394Y006665D02*
X012087Y006665D01*
X012087Y006435D02*
X012240Y006435D01*
X011860Y005708D02*
X011630Y005708D01*
X011630Y005248D01*
X011860Y005248D01*
X011937Y005324D01*
X011937Y005631D01*
X011860Y005708D01*
X011477Y005708D02*
X011170Y005708D01*
X011170Y005248D01*
X011477Y005248D01*
X011323Y005478D02*
X011170Y005478D01*
X011016Y005248D02*
X010709Y005248D01*
X010709Y005708D01*
X011726Y002919D02*
X011879Y002766D01*
X013616Y002915D02*
X013769Y002762D01*
X014553Y002907D02*
X014706Y002754D01*
X014553Y002907D02*
X015013Y002907D01*
X015013Y002754D02*
X015013Y003061D01*
X015090Y003214D02*
X015090Y003521D01*
X015013Y003675D02*
X014706Y003982D01*
X014629Y003982D01*
X014553Y003905D01*
X014553Y003752D01*
X014629Y003675D01*
X015013Y003675D02*
X015013Y003982D01*
X014783Y004135D02*
X014783Y004442D01*
X015013Y004365D02*
X014553Y004365D01*
X014783Y004135D01*
X015588Y004131D02*
X015818Y004131D01*
X015741Y004285D01*
X015741Y004361D01*
X015818Y004438D01*
X015972Y004438D01*
X016048Y004361D01*
X016048Y004208D01*
X015972Y004131D01*
X016048Y003978D02*
X016048Y003671D01*
X015741Y003978D01*
X015665Y003978D01*
X015588Y003901D01*
X015588Y003748D01*
X015665Y003671D01*
X015588Y004131D02*
X015588Y004438D01*
X016537Y004478D02*
X016614Y004324D01*
X016767Y004171D01*
X016767Y004401D01*
X016844Y004478D01*
X016920Y004478D01*
X016997Y004401D01*
X016997Y004247D01*
X016920Y004171D01*
X016767Y004171D01*
X016690Y004017D02*
X016614Y004017D01*
X016537Y003940D01*
X016537Y003787D01*
X016614Y003710D01*
X016690Y004017D02*
X016997Y003710D01*
X016997Y004017D01*
X017074Y003557D02*
X017074Y003250D01*
X016997Y003096D02*
X016997Y002789D01*
X016997Y002943D02*
X016537Y002943D01*
X016690Y002789D01*
X016048Y002750D02*
X016048Y003057D01*
X016048Y002904D02*
X015588Y002904D01*
X015741Y002750D01*
X016125Y003210D02*
X016125Y003517D01*
X017537Y003763D02*
X017614Y003687D01*
X017537Y003763D02*
X017537Y003917D01*
X017614Y003994D01*
X017690Y003994D01*
X017997Y003687D01*
X017997Y003994D01*
X017997Y004147D02*
X017920Y004147D01*
X017614Y004454D01*
X017537Y004454D01*
X017537Y004147D01*
X018074Y003533D02*
X018074Y003226D01*
X017997Y003073D02*
X017997Y002766D01*
X017997Y002919D02*
X017537Y002919D01*
X017690Y002766D01*
X021639Y002911D02*
X022099Y002911D01*
X022099Y002758D02*
X022099Y003065D01*
X022176Y003218D02*
X022176Y003525D01*
X022099Y003678D02*
X022099Y003985D01*
X022099Y003832D02*
X021639Y003832D01*
X021792Y003678D01*
X021869Y004139D02*
X021639Y004139D01*
X021639Y004446D01*
X021792Y004369D02*
X021792Y004292D01*
X021869Y004139D01*
X022022Y004139D02*
X022099Y004216D01*
X022099Y004369D01*
X022022Y004446D01*
X021869Y004446D01*
X021792Y004369D01*
X022579Y004446D02*
X022656Y004292D01*
X022809Y004139D01*
X022809Y004369D01*
X022886Y004446D01*
X022962Y004446D01*
X023039Y004369D01*
X023039Y004216D01*
X022962Y004139D01*
X022809Y004139D01*
X023039Y003985D02*
X023039Y003678D01*
X023039Y003832D02*
X022579Y003832D01*
X022732Y003678D01*
X023116Y003525D02*
X023116Y003218D01*
X023039Y003065D02*
X023039Y002758D01*
X023039Y002911D02*
X022579Y002911D01*
X022732Y002758D01*
X022656Y002604D02*
X022579Y002527D01*
X022579Y002374D01*
X022656Y002297D01*
X022962Y002297D01*
X023039Y002374D01*
X023039Y002527D01*
X022962Y002604D01*
X022656Y002604D01*
X022579Y002144D02*
X022579Y001990D01*
X022579Y002067D02*
X023039Y002067D01*
X023039Y001990D02*
X023039Y002144D01*
X022809Y001837D02*
X022886Y001760D01*
X022886Y001530D01*
X023039Y001530D02*
X022579Y001530D01*
X022579Y001760D01*
X022656Y001837D01*
X022809Y001837D01*
X022099Y001990D02*
X022099Y002144D01*
X022099Y002067D02*
X021639Y002067D01*
X021639Y001990D02*
X021639Y002144D01*
X021716Y002297D02*
X021639Y002374D01*
X021639Y002527D01*
X021716Y002604D01*
X022022Y002604D01*
X022099Y002527D01*
X022099Y002374D01*
X022022Y002297D01*
X021716Y002297D01*
X021716Y001837D02*
X021639Y001760D01*
X021639Y001530D01*
X022099Y001530D01*
X021946Y001530D02*
X021946Y001760D01*
X021869Y001837D01*
X021716Y001837D01*
X021792Y002758D02*
X021639Y002911D01*
X023579Y002930D02*
X024039Y002930D01*
X024039Y002777D02*
X024039Y003084D01*
X024116Y003237D02*
X024116Y003544D01*
X024039Y003698D02*
X024039Y004005D01*
X024039Y004158D02*
X023962Y004158D01*
X023656Y004465D01*
X023579Y004465D01*
X023579Y004158D01*
X023579Y003851D02*
X024039Y003851D01*
X023732Y003698D02*
X023579Y003851D01*
X023579Y002930D02*
X023732Y002777D01*
X023656Y002624D02*
X023579Y002547D01*
X023579Y002393D01*
X023656Y002317D01*
X023962Y002317D01*
X024039Y002393D01*
X024039Y002547D01*
X023962Y002624D01*
X023656Y002624D01*
X023579Y002163D02*
X023579Y002010D01*
X023579Y002086D02*
X024039Y002086D01*
X024039Y002010D02*
X024039Y002163D01*
X023809Y001856D02*
X023886Y001779D01*
X023886Y001549D01*
X024039Y001549D02*
X023579Y001549D01*
X023579Y001779D01*
X023656Y001856D01*
X023809Y001856D01*
X010630Y013113D02*
X010323Y013113D01*
X010630Y013420D01*
X010323Y013420D01*
X010170Y013343D02*
X009863Y013343D01*
X009863Y013113D02*
X009863Y013573D01*
X009709Y013573D02*
X009556Y013420D01*
X009402Y013573D01*
X009402Y013113D01*
X009249Y013113D02*
X008942Y013113D01*
X009249Y013420D01*
X009249Y013497D01*
X009172Y013573D01*
X009019Y013573D01*
X008942Y013497D01*
X008635Y013573D02*
X008635Y013113D01*
X008482Y013113D02*
X008789Y013113D01*
X008482Y013420D02*
X008635Y013573D01*
X009709Y013573D02*
X009709Y013113D01*
X010170Y013113D02*
X010170Y013573D01*
X012829Y018022D02*
X012983Y018329D01*
X013136Y018329D02*
X013290Y018482D01*
X013290Y018022D01*
X013443Y018022D02*
X013136Y018022D01*
X012829Y018022D02*
X012676Y018329D01*
X012729Y019212D02*
X012729Y019442D01*
X012806Y019519D01*
X012960Y019519D01*
X013036Y019442D01*
X013036Y019212D01*
X013190Y019212D02*
X012729Y019212D01*
X012729Y019672D02*
X012729Y019826D01*
X012729Y019749D02*
X013190Y019749D01*
X013190Y019672D02*
X013190Y019826D01*
X013113Y019979D02*
X013190Y020056D01*
X013190Y020210D01*
X013113Y020286D01*
X012806Y020286D01*
X012729Y020210D01*
X012729Y020056D01*
X012806Y019979D01*
X013113Y019979D01*
X013113Y020440D02*
X012806Y020440D01*
X012729Y020516D01*
X012729Y020670D01*
X012806Y020747D01*
X013113Y020440D01*
X013190Y020516D01*
X013190Y020670D01*
X013113Y020747D01*
X012806Y020747D01*
X013267Y020900D02*
X013267Y021207D01*
X013190Y021361D02*
X013190Y021667D01*
X013190Y021821D02*
X012883Y022128D01*
X012806Y022128D01*
X012729Y022051D01*
X012729Y021898D01*
X012806Y021821D01*
X012806Y021667D02*
X012729Y021591D01*
X012729Y021437D01*
X012806Y021361D01*
X012806Y021667D02*
X012883Y021667D01*
X013190Y021361D01*
X013190Y021821D02*
X013190Y022128D01*
X013647Y022042D02*
X013647Y021888D01*
X013724Y021812D01*
X013724Y021658D02*
X013647Y021581D01*
X013647Y021428D01*
X013724Y021351D01*
X013724Y021658D02*
X013800Y021658D01*
X014107Y021351D01*
X014107Y021658D01*
X014030Y021812D02*
X014107Y021888D01*
X014107Y022042D01*
X014030Y022119D01*
X013954Y022119D01*
X013877Y022042D01*
X013877Y021965D01*
X013877Y022042D02*
X013800Y022119D01*
X013724Y022119D01*
X013647Y022042D01*
X014184Y021198D02*
X014184Y020891D01*
X014030Y020737D02*
X014107Y020661D01*
X014107Y020507D01*
X014030Y020430D01*
X013724Y020737D01*
X014030Y020737D01*
X013724Y020737D02*
X013647Y020661D01*
X013647Y020507D01*
X013724Y020430D01*
X014030Y020430D01*
X014030Y020277D02*
X013724Y020277D01*
X013647Y020200D01*
X013647Y020047D01*
X013724Y019970D01*
X014030Y019970D01*
X014107Y020047D01*
X014107Y020200D01*
X014030Y020277D01*
X014107Y019817D02*
X014107Y019663D01*
X014107Y019740D02*
X013647Y019740D01*
X013647Y019663D02*
X013647Y019817D01*
X013724Y019510D02*
X013647Y019433D01*
X013647Y019203D01*
X014107Y019203D01*
X013954Y019203D02*
X013954Y019433D01*
X013877Y019510D01*
X013724Y019510D01*
X013903Y018482D02*
X014057Y018482D01*
X014134Y018405D01*
X013827Y018098D01*
X013903Y018022D01*
X014057Y018022D01*
X014134Y018098D01*
X014134Y018405D01*
X013903Y018482D02*
X013827Y018405D01*
X013827Y018098D01*
X013673Y018098D02*
X013673Y018022D01*
X013597Y018022D01*
X013597Y018098D01*
X013673Y018098D01*
X012261Y019202D02*
X011801Y019202D01*
X011801Y019433D01*
X011878Y019509D01*
X012031Y019509D01*
X012108Y019433D01*
X012108Y019202D01*
X012261Y019663D02*
X012261Y019816D01*
X012261Y019739D02*
X011801Y019739D01*
X011801Y019663D02*
X011801Y019816D01*
X011878Y019970D02*
X012185Y019970D01*
X012261Y020046D01*
X012261Y020200D01*
X012185Y020277D01*
X011878Y020277D01*
X011801Y020200D01*
X011801Y020046D01*
X011878Y019970D01*
X011878Y020430D02*
X011801Y020507D01*
X011801Y020660D01*
X011878Y020737D01*
X012185Y020430D01*
X012261Y020507D01*
X012261Y020660D01*
X012185Y020737D01*
X011878Y020737D01*
X011878Y020430D02*
X012185Y020430D01*
X012338Y020890D02*
X012338Y021197D01*
X012261Y021351D02*
X011954Y021658D01*
X011878Y021658D01*
X011801Y021581D01*
X011801Y021428D01*
X011878Y021351D01*
X012261Y021351D02*
X012261Y021658D01*
X012261Y021811D02*
X012261Y022118D01*
X012261Y021965D02*
X011801Y021965D01*
X011954Y021811D01*
X011171Y021885D02*
X011094Y021808D01*
X010787Y022115D01*
X011094Y022115D01*
X011171Y022038D01*
X011171Y021885D01*
X011094Y021808D02*
X010787Y021808D01*
X010710Y021885D01*
X010710Y022038D01*
X010787Y022115D01*
X010787Y021655D02*
X010710Y021578D01*
X010710Y021425D01*
X010787Y021348D01*
X010787Y021655D02*
X010864Y021655D01*
X011171Y021348D01*
X011171Y021655D01*
X011247Y021194D02*
X011247Y020887D01*
X011094Y020734D02*
X011171Y020657D01*
X011171Y020504D01*
X011094Y020427D01*
X010787Y020734D01*
X011094Y020734D01*
X010787Y020734D02*
X010710Y020657D01*
X010710Y020504D01*
X010787Y020427D01*
X011094Y020427D01*
X011094Y020274D02*
X010787Y020274D01*
X010710Y020197D01*
X010710Y020043D01*
X010787Y019967D01*
X011094Y019967D01*
X011171Y020043D01*
X011171Y020197D01*
X011094Y020274D01*
X011171Y019813D02*
X011171Y019660D01*
X011171Y019736D02*
X010710Y019736D01*
X010710Y019660D02*
X010710Y019813D01*
X010787Y019506D02*
X010710Y019429D01*
X010710Y019199D01*
X011171Y019199D01*
X011017Y019199D02*
X011017Y019429D01*
X010941Y019506D01*
X010787Y019506D01*
X009956Y019617D02*
X009879Y019693D01*
X009725Y019693D01*
X009649Y019617D01*
X009649Y019310D01*
X009725Y019233D01*
X009879Y019233D01*
X009956Y019310D01*
X009495Y019233D02*
X009188Y019233D01*
X009495Y019540D01*
X009495Y019617D01*
X009418Y019693D01*
X009265Y019693D01*
X009188Y019617D01*
X009035Y019693D02*
X008881Y019693D01*
X008958Y019693D02*
X008958Y019233D01*
X008881Y019233D02*
X009035Y019233D01*
X009065Y020378D02*
X009142Y020455D01*
X009142Y020608D01*
X009065Y020685D01*
X008988Y020685D01*
X008911Y020608D01*
X008911Y020455D01*
X008835Y020378D01*
X008758Y020378D01*
X008681Y020455D01*
X008681Y020608D01*
X008758Y020685D01*
X008681Y020839D02*
X008681Y021069D01*
X008758Y021146D01*
X009065Y021146D01*
X009142Y021069D01*
X009142Y020839D01*
X008681Y020839D01*
X008835Y021299D02*
X008681Y021453D01*
X008835Y021606D01*
X009142Y021606D01*
X008911Y021606D02*
X008911Y021299D01*
X008835Y021299D02*
X009142Y021299D01*
X009578Y021325D02*
X010038Y021325D01*
X010038Y021632D01*
X009962Y021172D02*
X010038Y021095D01*
X010038Y020941D01*
X009962Y020865D01*
X009655Y020865D01*
X009578Y020941D01*
X009578Y021095D01*
X009655Y021172D01*
X009655Y020711D02*
X009578Y020635D01*
X009578Y020481D01*
X009655Y020404D01*
X009731Y020404D01*
X009808Y020481D01*
X009808Y020635D01*
X009885Y020711D01*
X009962Y020711D01*
X010038Y020635D01*
X010038Y020481D01*
X009962Y020404D01*
X008118Y020416D02*
X007657Y020416D01*
X007657Y020647D01*
X007734Y020723D01*
X007887Y020723D01*
X007964Y020647D01*
X007964Y020416D01*
X007964Y020570D02*
X008118Y020723D01*
X008118Y020877D02*
X007657Y021184D01*
X007657Y021337D02*
X007657Y021567D01*
X007734Y021644D01*
X008041Y021644D01*
X008118Y021567D01*
X008118Y021337D01*
X007657Y021337D01*
X007657Y020877D02*
X008118Y021184D01*
X007153Y021200D02*
X006692Y020893D01*
X006692Y020740D02*
X006692Y020433D01*
X006692Y020586D02*
X007153Y020586D01*
X007153Y020893D02*
X006692Y021200D01*
X006692Y021354D02*
X006692Y021584D01*
X006769Y021660D01*
X007076Y021660D01*
X007153Y021584D01*
X007153Y021354D01*
X006692Y021354D01*
X006131Y021273D02*
X005611Y021273D01*
X005611Y021441D02*
X005611Y021701D01*
X005697Y021788D01*
X006044Y021788D01*
X006131Y021701D01*
X006131Y021441D01*
X005611Y021441D01*
X005611Y020926D02*
X006131Y021273D01*
X006131Y020926D02*
X005611Y020926D01*
X005697Y020757D02*
X005611Y020670D01*
X005611Y020497D01*
X005697Y020410D01*
X006044Y020410D01*
X006131Y020497D01*
X006131Y020670D01*
X006044Y020757D01*
X005871Y020757D01*
X005871Y020583D01*
X006106Y019709D02*
X006106Y019325D01*
X006183Y019248D01*
X006336Y019248D01*
X006413Y019325D01*
X006413Y019709D01*
X006566Y019555D02*
X006720Y019709D01*
X006873Y019555D01*
X006873Y019248D01*
X007027Y019248D02*
X007027Y019709D01*
X007257Y019709D01*
X007334Y019632D01*
X007334Y019479D01*
X007257Y019402D01*
X007027Y019402D01*
X007180Y019402D02*
X007334Y019248D01*
X007641Y019248D02*
X007641Y019709D01*
X007794Y019709D02*
X007487Y019709D01*
X006873Y019479D02*
X006566Y019479D01*
X006566Y019555D02*
X006566Y019248D01*
X003066Y015597D02*
X003143Y015520D01*
X003143Y015367D01*
X003066Y015290D01*
X002759Y015290D01*
X002682Y015367D01*
X002682Y015520D01*
X002759Y015597D01*
X002759Y015136D02*
X002682Y015060D01*
X002682Y014829D01*
X003143Y014829D01*
X003143Y015060D01*
X003066Y015136D01*
X002759Y015136D01*
X001243Y014680D02*
X001243Y014450D01*
X000782Y014450D01*
X000782Y014680D01*
X000859Y014757D01*
X000936Y014757D01*
X001013Y014680D01*
X001013Y014450D01*
X001089Y014297D02*
X001166Y014297D01*
X001243Y014220D01*
X001243Y014067D01*
X001166Y013990D01*
X001166Y013836D02*
X000782Y013836D01*
X000859Y013990D02*
X000936Y013990D01*
X001013Y014067D01*
X001013Y014220D01*
X001089Y014297D01*
X000859Y014297D02*
X000782Y014220D01*
X000782Y014067D01*
X000859Y013990D01*
X001166Y013836D02*
X001243Y013760D01*
X001243Y013606D01*
X001166Y013529D01*
X000782Y013529D01*
X001013Y014680D02*
X001089Y014757D01*
X001166Y014757D01*
X001243Y014680D01*
X001627Y012106D02*
X001627Y011722D01*
X001704Y011645D01*
X001857Y011645D01*
X001934Y011722D01*
X001934Y012106D01*
X002088Y012029D02*
X002088Y011952D01*
X002164Y011875D01*
X002318Y011875D01*
X002395Y011799D01*
X002395Y011722D01*
X002318Y011645D01*
X002164Y011645D01*
X002088Y011722D01*
X002088Y012029D02*
X002164Y012106D01*
X002318Y012106D01*
X002395Y012029D01*
X002548Y012106D02*
X002548Y011645D01*
X002778Y011645D01*
X002855Y011722D01*
X002855Y011799D01*
X002778Y011875D01*
X002548Y011875D01*
X002778Y011875D02*
X002855Y011952D01*
X002855Y012029D01*
X002778Y012106D01*
X002548Y012106D01*
X014654Y020800D02*
X014807Y020954D01*
X015114Y020954D01*
X015114Y021107D02*
X015114Y021337D01*
X015038Y021414D01*
X014731Y021414D01*
X014654Y021337D01*
X014654Y021107D01*
X015114Y021107D01*
X014884Y020954D02*
X014884Y020647D01*
X014807Y020647D02*
X014654Y020800D01*
X014807Y020647D02*
X015114Y020647D01*
X015664Y020815D02*
X015818Y020969D01*
X016125Y020969D01*
X016125Y021122D02*
X016125Y021352D01*
X016048Y021429D01*
X015741Y021429D01*
X015664Y021352D01*
X015664Y021122D01*
X016125Y021122D01*
X015895Y020969D02*
X015895Y020662D01*
X015818Y020662D02*
X015664Y020815D01*
X015818Y020662D02*
X016125Y020662D01*
X016650Y020802D02*
X016804Y020955D01*
X017111Y020955D01*
X017111Y021109D02*
X017111Y021339D01*
X017034Y021415D01*
X016727Y021415D01*
X016650Y021339D01*
X016650Y021109D01*
X017111Y021109D01*
X016881Y020955D02*
X016881Y020648D01*
X016804Y020648D02*
X016650Y020802D01*
X016804Y020648D02*
X017111Y020648D01*
X017647Y020800D02*
X017800Y020954D01*
X018107Y020954D01*
X018107Y021107D02*
X018107Y021337D01*
X018030Y021414D01*
X017724Y021414D01*
X017647Y021337D01*
X017647Y021107D01*
X018107Y021107D01*
X017877Y020954D02*
X017877Y020647D01*
X017800Y020647D02*
X017647Y020800D01*
X017800Y020647D02*
X018107Y020647D01*
X018653Y020653D02*
X018730Y020730D01*
X019037Y020423D01*
X019113Y020500D01*
X019113Y020653D01*
X019037Y020730D01*
X018730Y020730D01*
X018653Y020653D02*
X018653Y020500D01*
X018730Y020423D01*
X019037Y020423D01*
X019037Y020270D02*
X018730Y020270D01*
X018653Y020193D01*
X018653Y020039D01*
X018730Y019963D01*
X019037Y019963D01*
X019113Y020039D01*
X019113Y020193D01*
X019037Y020270D01*
X019113Y019809D02*
X019113Y019656D01*
X019113Y019732D02*
X018653Y019732D01*
X018653Y019656D02*
X018653Y019809D01*
X018730Y019502D02*
X018653Y019425D01*
X018653Y019195D01*
X019113Y019195D01*
X018960Y019195D02*
X018960Y019425D01*
X018883Y019502D01*
X018730Y019502D01*
X019639Y019468D02*
X019639Y019207D01*
X020159Y019207D01*
X019986Y019207D02*
X019986Y019468D01*
X019899Y019554D01*
X019726Y019554D01*
X019639Y019468D01*
X019639Y019723D02*
X019639Y019897D01*
X019639Y019810D02*
X020159Y019810D01*
X020159Y019723D02*
X020159Y019897D01*
X020072Y020067D02*
X019726Y020067D01*
X019639Y020154D01*
X019639Y020327D01*
X019726Y020414D01*
X020072Y020414D01*
X020159Y020327D01*
X020159Y020154D01*
X020072Y020067D01*
X020072Y020582D02*
X019726Y020582D01*
X019639Y020669D01*
X019639Y020843D01*
X019726Y020929D01*
X020072Y020582D01*
X020159Y020669D01*
X020159Y020843D01*
X020072Y020929D01*
X019726Y020929D01*
X020246Y021098D02*
X020246Y021445D01*
X020159Y021614D02*
X020072Y021614D01*
X019726Y021961D01*
X019639Y021961D01*
X019639Y021614D01*
X019113Y021651D02*
X019113Y021344D01*
X019113Y021497D02*
X018653Y021497D01*
X018807Y021344D01*
X019190Y021190D02*
X019190Y020883D01*
X019113Y021804D02*
X019037Y021804D01*
X018730Y022111D01*
X018653Y022111D01*
X018653Y021804D01*
X018107Y021798D02*
X018107Y021644D01*
X018030Y021567D01*
X017724Y021874D01*
X018030Y021874D01*
X018107Y021798D01*
X018030Y021567D02*
X017724Y021567D01*
X017647Y021644D01*
X017647Y021798D01*
X017724Y021874D01*
X017111Y021876D02*
X017111Y021569D01*
X017111Y021722D02*
X016650Y021722D01*
X016804Y021569D01*
X016125Y021583D02*
X015818Y021889D01*
X015741Y021889D01*
X015664Y021813D01*
X015664Y021659D01*
X015741Y021583D01*
X016125Y021583D02*
X016125Y021889D01*
X015114Y021798D02*
X015114Y021644D01*
X015038Y021567D01*
X014884Y021721D02*
X014884Y021798D01*
X014961Y021874D01*
X015038Y021874D01*
X015114Y021798D01*
X014884Y021798D02*
X014807Y021874D01*
X014731Y021874D01*
X014654Y021798D01*
X014654Y021644D01*
X014731Y021567D01*
X016147Y019692D02*
X016301Y019538D01*
X016301Y019231D01*
X016454Y019231D02*
X016684Y019231D01*
X016761Y019308D01*
X016761Y019615D01*
X016684Y019692D01*
X016454Y019692D01*
X016454Y019231D01*
X016301Y019461D02*
X015994Y019461D01*
X015994Y019538D02*
X015994Y019231D01*
X015994Y019538D02*
X016147Y019692D01*
X016914Y019615D02*
X016914Y019308D01*
X016991Y019231D01*
X017145Y019231D01*
X017221Y019308D01*
X017221Y019615D02*
X017145Y019692D01*
X016991Y019692D01*
X016914Y019615D01*
X020704Y020427D02*
X020781Y020351D01*
X020858Y020351D01*
X020935Y020427D01*
X020935Y020581D01*
X021011Y020658D01*
X021088Y020658D01*
X021165Y020581D01*
X021165Y020427D01*
X021088Y020351D01*
X020781Y020658D02*
X020704Y020581D01*
X020704Y020427D01*
X020781Y020811D02*
X020704Y020888D01*
X020704Y021041D01*
X020781Y021118D01*
X020704Y021271D02*
X021165Y021271D01*
X021165Y021578D01*
X021165Y021732D02*
X021165Y022039D01*
X021165Y021732D02*
X020704Y021732D01*
X020704Y021578D02*
X020704Y021271D01*
X020935Y021271D02*
X020935Y021425D01*
X021011Y021118D02*
X020935Y021041D01*
X020935Y020888D01*
X020858Y020811D01*
X020781Y020811D01*
X021088Y020811D02*
X021165Y020888D01*
X021165Y021041D01*
X021088Y021118D01*
X021011Y021118D01*
X021557Y021061D02*
X021557Y020907D01*
X021634Y020830D01*
X021941Y020830D01*
X022017Y020907D01*
X022017Y021061D01*
X021941Y021137D01*
X022017Y021291D02*
X021557Y021291D01*
X021634Y021137D02*
X021557Y021061D01*
X021787Y021368D02*
X022017Y021598D01*
X021864Y021291D02*
X021557Y021598D01*
X021634Y020677D02*
X021557Y020600D01*
X021557Y020447D01*
X021634Y020370D01*
X021710Y020370D01*
X021787Y020447D01*
X021787Y020600D01*
X021864Y020677D01*
X021941Y020677D01*
X022017Y020600D01*
X022017Y020447D01*
X021941Y020370D01*
X022110Y019713D02*
X022034Y019636D01*
X022034Y019559D01*
X022110Y019483D01*
X022264Y019483D01*
X022340Y019406D01*
X022340Y019329D01*
X022264Y019252D01*
X022110Y019252D01*
X022034Y019329D01*
X022110Y019713D02*
X022264Y019713D01*
X022340Y019636D01*
X022494Y019713D02*
X022724Y019713D01*
X022801Y019636D01*
X022801Y019483D01*
X022724Y019406D01*
X022494Y019406D01*
X022494Y019252D02*
X022494Y019713D01*
X022954Y019713D02*
X023108Y019713D01*
X023031Y019713D02*
X023031Y019252D01*
X022954Y019252D02*
X023108Y019252D01*
X023184Y020361D02*
X022724Y020361D01*
X022877Y020514D01*
X022724Y020668D01*
X023184Y020668D01*
X023107Y020821D02*
X022801Y020821D01*
X022724Y020898D01*
X022724Y021051D01*
X022801Y021128D01*
X023107Y021128D01*
X023184Y021051D01*
X023184Y020898D01*
X023107Y020821D01*
X023107Y021281D02*
X023184Y021358D01*
X023184Y021512D01*
X023107Y021588D01*
X023031Y021588D01*
X022954Y021512D01*
X022954Y021358D01*
X022877Y021281D01*
X022801Y021281D01*
X022724Y021358D01*
X022724Y021512D01*
X022801Y021588D01*
X022724Y021742D02*
X022724Y021895D01*
X022724Y021819D02*
X023184Y021819D01*
X023184Y021895D02*
X023184Y021742D01*
X023674Y021819D02*
X023674Y021665D01*
X023751Y021588D01*
X024058Y021588D01*
X024134Y021665D01*
X024134Y021819D01*
X024058Y021895D01*
X023751Y021895D01*
X023674Y021819D01*
X023751Y021435D02*
X023674Y021358D01*
X023674Y021205D01*
X023751Y021128D01*
X023827Y021128D01*
X023904Y021205D01*
X023904Y021358D01*
X023981Y021435D01*
X024058Y021435D01*
X024134Y021358D01*
X024134Y021205D01*
X024058Y021128D01*
X024134Y020974D02*
X024134Y020821D01*
X024134Y020898D02*
X023674Y020898D01*
X023674Y020974D02*
X023674Y020821D01*
X023674Y020668D02*
X024134Y020668D01*
X024134Y020361D02*
X023674Y020361D01*
X023827Y020514D01*
X023674Y020668D01*
X023382Y016221D02*
X023152Y016221D01*
X023152Y015761D01*
X023152Y015914D02*
X023382Y015914D01*
X023458Y015991D01*
X023458Y016145D01*
X023382Y016221D01*
X022998Y016221D02*
X022998Y015838D01*
X022921Y015761D01*
X022768Y015761D01*
X022691Y015838D01*
X022691Y016221D01*
X022538Y016221D02*
X022231Y016221D01*
X022231Y015761D01*
X022538Y015761D01*
X022384Y015991D02*
X022231Y015991D01*
X022077Y015761D02*
X021847Y015991D01*
X021770Y015914D02*
X022077Y016221D01*
X021770Y016221D02*
X021770Y015761D01*
X021617Y015761D02*
X021617Y016068D01*
X021463Y016221D01*
X021310Y016068D01*
X021310Y015761D01*
X021157Y015761D02*
X021003Y015914D01*
X020850Y015761D01*
X020850Y016221D01*
X021157Y016221D02*
X021157Y015761D01*
X021310Y015991D02*
X021617Y015991D01*
D13*
X003135Y021984D02*
X002688Y021984D01*
X002912Y021760D02*
X002912Y022207D01*
D14*
X003598Y022303D02*
X004049Y022303D01*
X004049Y022153D02*
X004049Y022453D01*
X004049Y022613D02*
X003749Y022914D01*
X003674Y022914D01*
X003598Y022838D01*
X003598Y022688D01*
X003674Y022613D01*
X003598Y022303D02*
X003749Y022153D01*
X003824Y021993D02*
X003824Y021692D01*
X003899Y021532D02*
X003824Y021457D01*
X003824Y021232D01*
X003974Y021232D01*
X004049Y021307D01*
X004049Y021457D01*
X003974Y021532D01*
X003899Y021532D01*
X003674Y021382D02*
X003824Y021232D01*
X003674Y021382D02*
X003598Y021532D01*
X004049Y022613D02*
X004049Y022914D01*
X003899Y023074D02*
X004049Y023224D01*
X003899Y023374D01*
X003598Y023374D01*
X003598Y023074D02*
X003899Y023074D01*
X002211Y020872D02*
X002189Y020888D01*
X014142Y007517D02*
X014292Y007517D01*
X014367Y007441D01*
X014367Y007216D01*
X014517Y007216D02*
X014067Y007216D01*
X014067Y007441D01*
X014142Y007517D01*
X014142Y007056D02*
X014067Y006981D01*
X014067Y006831D01*
X014142Y006756D01*
X014217Y006756D01*
X014292Y006831D01*
X014292Y006981D01*
X014367Y007056D01*
X014442Y007056D01*
X014517Y006981D01*
X014517Y006831D01*
X014442Y006756D01*
X014517Y006599D02*
X014517Y006449D01*
X014517Y006524D02*
X014067Y006524D01*
X014067Y006449D02*
X014067Y006599D01*
X020999Y011736D02*
X020999Y011886D01*
X020999Y011811D02*
X021375Y011811D01*
X021450Y011736D01*
X021450Y011661D01*
X021375Y011586D01*
X020999Y012046D02*
X020999Y012346D01*
X020999Y012196D02*
X021450Y012196D01*
X021450Y012506D02*
X021149Y012506D01*
X020999Y012657D01*
X021149Y012807D01*
X021450Y012807D01*
X021375Y012967D02*
X021450Y013042D01*
X021450Y013192D01*
X021375Y013267D01*
X021224Y013267D01*
X021224Y013117D01*
X021074Y013267D02*
X020999Y013192D01*
X020999Y013042D01*
X021074Y012967D01*
X021375Y012967D01*
X021224Y012807D02*
X021224Y012506D01*
X021722Y012496D02*
X021872Y012496D01*
X021872Y012448D02*
X021722Y012448D01*
X021722Y012399D02*
X021872Y012399D01*
X021872Y012351D02*
X021722Y012351D01*
X021722Y012321D02*
X021722Y013121D01*
X021872Y013121D01*
X021872Y012321D01*
X021722Y012321D01*
X021722Y012545D02*
X021872Y012545D01*
X021872Y012593D02*
X021722Y012593D01*
X021722Y012642D02*
X021872Y012642D01*
X021872Y012690D02*
X021722Y012690D01*
X021722Y012739D02*
X021872Y012739D01*
X021872Y012787D02*
X021722Y012787D01*
X021722Y012836D02*
X021872Y012836D01*
X021872Y012884D02*
X021722Y012884D01*
X021722Y012933D02*
X021872Y012933D01*
X021872Y012981D02*
X021722Y012981D01*
X021722Y013030D02*
X021872Y013030D01*
X021872Y013078D02*
X021722Y013078D01*
X021979Y007381D02*
X021979Y007080D01*
X021979Y007230D02*
X022429Y007230D01*
X022429Y006920D02*
X022429Y006620D01*
X021979Y006620D01*
X021979Y006920D01*
X022204Y006770D02*
X022204Y006620D01*
X022279Y006460D02*
X022204Y006385D01*
X022204Y006235D01*
X022129Y006159D01*
X022054Y006159D01*
X021979Y006235D01*
X021979Y006385D01*
X022054Y006460D01*
X022279Y006460D02*
X022354Y006460D01*
X022429Y006385D01*
X022429Y006235D01*
X022354Y006159D01*
X022429Y005999D02*
X022429Y005699D01*
X021979Y005699D01*
X021979Y005999D01*
X022204Y005849D02*
X022204Y005699D01*
X022204Y005539D02*
X022279Y005464D01*
X022279Y005239D01*
X022279Y005389D02*
X022429Y005539D01*
X022204Y005539D02*
X022054Y005539D01*
X021979Y005464D01*
X021979Y005239D01*
X022429Y005239D01*
D15*
X011882Y017911D02*
X011882Y018019D01*
X012316Y018453D01*
X012316Y018561D01*
X011882Y018561D01*
X011507Y018561D02*
X011182Y018236D01*
X011616Y018236D01*
X011507Y017911D02*
X011507Y018561D01*
X010916Y018453D02*
X010916Y018345D01*
X010808Y018236D01*
X010916Y018128D01*
X010916Y018019D01*
X010808Y017911D01*
X010591Y017911D01*
X010482Y018019D01*
X010699Y018236D02*
X010808Y018236D01*
X010916Y018453D02*
X010808Y018561D01*
X010591Y018561D01*
X010482Y018453D01*
X009999Y018561D02*
X009999Y017911D01*
X009783Y017911D02*
X010216Y017911D01*
X009783Y018345D02*
X009999Y018561D01*
X009516Y018453D02*
X009408Y018561D01*
X009191Y018561D01*
X009083Y018453D01*
X009083Y018019D01*
X009191Y017911D01*
X009408Y017911D01*
X009516Y018019D01*
X008817Y018236D02*
X008708Y018128D01*
X008383Y018128D01*
X008383Y017911D02*
X008383Y018561D01*
X008708Y018561D01*
X008817Y018453D01*
X008817Y018236D01*
X008117Y017911D02*
X007683Y017911D01*
X007683Y018561D01*
D16*
X022033Y014057D02*
X022035Y014075D01*
X022041Y014091D01*
X022050Y014106D01*
X022063Y014119D01*
X022078Y014128D01*
X022094Y014134D01*
X022112Y014136D01*
X022130Y014134D01*
X022146Y014128D01*
X022161Y014119D01*
X022174Y014106D01*
X022183Y014091D01*
X022189Y014075D01*
X022191Y014057D01*
X022189Y014039D01*
X022183Y014023D01*
X022174Y014008D01*
X022161Y013995D01*
X022146Y013986D01*
X022130Y013980D01*
X022112Y013978D01*
X022094Y013980D01*
X022078Y013986D01*
X022063Y013995D01*
X022050Y014008D01*
X022041Y014023D01*
X022035Y014039D01*
X022033Y014057D01*
D17*
X022910Y016626D02*
X022910Y016926D01*
X023060Y016926D01*
X023110Y016876D01*
X023110Y016776D01*
X023060Y016726D01*
X022910Y016726D01*
X023010Y016726D02*
X023110Y016626D01*
X023204Y016676D02*
X023255Y016626D01*
X023355Y016626D01*
X023405Y016676D01*
X023405Y016776D01*
X023355Y016826D01*
X023305Y016826D01*
X023204Y016776D01*
X023204Y016926D01*
X023405Y016926D01*
X017105Y017033D02*
X016905Y016833D01*
X016905Y016783D01*
X016811Y016833D02*
X016761Y016783D01*
X016661Y016783D01*
X016611Y016833D01*
X016611Y017033D01*
X016661Y017083D01*
X016761Y017083D01*
X016811Y017033D01*
X016905Y017083D02*
X017105Y017083D01*
X017105Y017033D01*
X014189Y016980D02*
X013889Y016980D01*
X013889Y017130D01*
X013939Y017180D01*
X014039Y017180D01*
X014089Y017130D01*
X014089Y016980D01*
X014089Y017080D02*
X014189Y017180D01*
X014039Y017275D02*
X014039Y017475D01*
X014189Y017425D02*
X013889Y017425D01*
X014039Y017275D01*
X013087Y017325D02*
X013037Y017275D01*
X013087Y017325D02*
X013087Y017425D01*
X013037Y017475D01*
X012987Y017475D01*
X012937Y017425D01*
X012937Y017375D01*
X012937Y017425D02*
X012887Y017475D01*
X012836Y017475D01*
X012786Y017425D01*
X012786Y017325D01*
X012836Y017275D01*
X012836Y017180D02*
X012937Y017180D01*
X012987Y017130D01*
X012987Y016980D01*
X013087Y016980D02*
X012786Y016980D01*
X012786Y017130D01*
X012836Y017180D01*
X012987Y017080D02*
X013087Y017180D01*
X012024Y017180D02*
X011924Y017080D01*
X011924Y017130D02*
X011924Y016980D01*
X012024Y016980D02*
X011723Y016980D01*
X011723Y017130D01*
X011773Y017180D01*
X011874Y017180D01*
X011924Y017130D01*
X012024Y017275D02*
X011824Y017475D01*
X011773Y017475D01*
X011723Y017425D01*
X011723Y017325D01*
X011773Y017275D01*
X012024Y017275D02*
X012024Y017475D01*
X010747Y016246D02*
X010697Y016296D01*
X010596Y016296D01*
X010546Y016246D01*
X010352Y016296D02*
X010352Y015996D01*
X010252Y015996D02*
X010452Y015996D01*
X010546Y015996D02*
X010747Y016196D01*
X010747Y016246D01*
X010747Y015996D02*
X010546Y015996D01*
X010252Y016196D02*
X010352Y016296D01*
X010157Y016246D02*
X010107Y016296D01*
X010007Y016296D01*
X009957Y016246D01*
X009957Y016046D01*
X010007Y015996D01*
X010107Y015996D01*
X010157Y016046D01*
X010637Y015154D02*
X010587Y015104D01*
X010587Y014904D01*
X010637Y014854D01*
X010737Y014854D01*
X010787Y014904D01*
X010882Y014904D02*
X010932Y014854D01*
X011032Y014854D01*
X011082Y014904D01*
X011082Y014954D01*
X011032Y015004D01*
X010982Y015004D01*
X011032Y015004D02*
X011082Y015054D01*
X011082Y015104D01*
X011032Y015154D01*
X010932Y015154D01*
X010882Y015104D01*
X010787Y015104D02*
X010737Y015154D01*
X010637Y015154D01*
X013141Y013635D02*
X013441Y013635D01*
X013441Y013535D02*
X013441Y013735D01*
X013241Y013535D02*
X013141Y013635D01*
X013191Y013440D02*
X013141Y013390D01*
X013141Y013290D01*
X013191Y013240D01*
X013391Y013240D01*
X013441Y013290D01*
X013441Y013390D01*
X013391Y013440D01*
X012149Y012061D02*
X012149Y011861D01*
X011999Y012011D01*
X012299Y012011D01*
X012299Y011766D02*
X012299Y011566D01*
X012299Y011666D02*
X011999Y011666D01*
X012099Y011566D01*
X012049Y011472D02*
X011999Y011422D01*
X011999Y011321D01*
X012049Y011271D01*
X012249Y011271D01*
X012299Y011321D01*
X012299Y011422D01*
X012249Y011472D01*
X012921Y010036D02*
X012870Y009986D01*
X012870Y009786D01*
X012921Y009736D01*
X013021Y009736D01*
X013071Y009786D01*
X013165Y009786D02*
X013165Y009836D01*
X013215Y009886D01*
X013315Y009886D01*
X013365Y009836D01*
X013365Y009786D01*
X013315Y009736D01*
X013215Y009736D01*
X013165Y009786D01*
X013215Y009886D02*
X013165Y009936D01*
X013165Y009986D01*
X013215Y010036D01*
X013315Y010036D01*
X013365Y009986D01*
X013365Y009936D01*
X013315Y009886D01*
X013071Y009986D02*
X013021Y010036D01*
X012921Y010036D01*
X017162Y008776D02*
X017162Y008476D01*
X017162Y008576D02*
X017312Y008576D01*
X017362Y008626D01*
X017362Y008726D01*
X017312Y008776D01*
X017162Y008776D01*
X017262Y008576D02*
X017362Y008476D01*
X017456Y008526D02*
X017507Y008476D01*
X017607Y008476D01*
X017657Y008526D01*
X017657Y008576D01*
X017607Y008626D01*
X017456Y008626D01*
X017456Y008526D01*
X017456Y008626D02*
X017557Y008726D01*
X017657Y008776D01*
X019519Y007433D02*
X019819Y007433D01*
X019819Y007333D02*
X019819Y007533D01*
X019619Y007333D02*
X019519Y007433D01*
X019519Y007139D02*
X019819Y007139D01*
X019819Y007039D02*
X019819Y007239D01*
X019619Y007039D02*
X019519Y007139D01*
X019569Y006944D02*
X019519Y006894D01*
X019519Y006794D01*
X019569Y006744D01*
X019769Y006744D01*
X019819Y006794D01*
X019819Y006894D01*
X019769Y006944D01*
X017793Y005312D02*
X017793Y005012D01*
X017693Y005012D02*
X017893Y005012D01*
X017693Y005212D02*
X017793Y005312D01*
X017598Y005262D02*
X017548Y005312D01*
X017398Y005312D01*
X017398Y005012D01*
X017548Y005012D01*
X017598Y005062D01*
X017598Y005262D01*
X017596Y005996D02*
X017596Y006296D01*
X017496Y006196D01*
X017401Y006246D02*
X017351Y006296D01*
X017201Y006296D01*
X017201Y005996D01*
X017201Y006096D02*
X017351Y006096D01*
X017401Y006146D01*
X017401Y006246D01*
X017301Y006096D02*
X017401Y005996D01*
X017496Y005996D02*
X017696Y005996D01*
X022122Y008999D02*
X022172Y008949D01*
X022273Y008949D01*
X022323Y008999D01*
X022323Y009249D01*
X022417Y009199D02*
X022467Y009249D01*
X022567Y009249D01*
X022617Y009199D01*
X022617Y009149D01*
X022567Y009099D01*
X022617Y009049D01*
X022617Y008999D01*
X022567Y008949D01*
X022467Y008949D01*
X022417Y008999D01*
X022517Y009099D02*
X022567Y009099D01*
X022122Y008999D02*
X022122Y009249D01*
X023101Y007829D02*
X023101Y007629D01*
X023252Y007629D01*
X023201Y007729D01*
X023201Y007779D01*
X023252Y007829D01*
X023352Y007829D01*
X023402Y007779D01*
X023402Y007679D01*
X023352Y007629D01*
X023352Y007535D02*
X023402Y007485D01*
X023402Y007384D01*
X023352Y007334D01*
X023151Y007334D01*
X023101Y007384D01*
X023101Y007485D01*
X023151Y007535D01*
X008148Y011067D02*
X007948Y011067D01*
X008098Y011217D01*
X008098Y010917D01*
X007853Y010917D02*
X007653Y010917D01*
X007559Y010917D02*
X007459Y011017D01*
X007509Y011017D02*
X007359Y011017D01*
X007359Y010917D02*
X007359Y011217D01*
X007509Y011217D01*
X007559Y011167D01*
X007559Y011067D01*
X007509Y011017D01*
X007653Y011117D02*
X007753Y011217D01*
X007753Y010917D01*
X007812Y010076D02*
X007712Y009976D01*
X007812Y010076D02*
X007812Y009775D01*
X007712Y009775D02*
X007912Y009775D01*
X007617Y009775D02*
X007417Y009775D01*
X007323Y009775D02*
X007223Y009875D01*
X007273Y009875D02*
X007122Y009875D01*
X007122Y009775D02*
X007122Y010076D01*
X007273Y010076D01*
X007323Y010026D01*
X007323Y009925D01*
X007273Y009875D01*
X007417Y009976D02*
X007517Y010076D01*
X007517Y009775D01*
X007478Y009249D02*
X007478Y008949D01*
X007378Y008949D02*
X007578Y008949D01*
X007672Y008999D02*
X007873Y009199D01*
X007873Y008999D01*
X007823Y008949D01*
X007722Y008949D01*
X007672Y008999D01*
X007672Y009199D01*
X007722Y009249D01*
X007823Y009249D01*
X007873Y009199D01*
X007478Y009249D02*
X007378Y009149D01*
X007283Y009199D02*
X007283Y009099D01*
X007233Y009049D01*
X007083Y009049D01*
X007183Y009049D02*
X007283Y008949D01*
X007083Y008949D02*
X007083Y009249D01*
X007233Y009249D01*
X007283Y009199D01*
X006062Y008569D02*
X006062Y008369D01*
X006011Y008319D01*
X005911Y008319D01*
X005861Y008369D01*
X005767Y008319D02*
X005567Y008319D01*
X005472Y008319D02*
X005372Y008419D01*
X005422Y008419D02*
X005272Y008419D01*
X005272Y008319D02*
X005272Y008619D01*
X005422Y008619D01*
X005472Y008569D01*
X005472Y008469D01*
X005422Y008419D01*
X005567Y008519D02*
X005667Y008619D01*
X005667Y008319D01*
X005861Y008519D02*
X005911Y008469D01*
X006062Y008469D01*
X006062Y008569D02*
X006011Y008619D01*
X005911Y008619D01*
X005861Y008569D01*
X005861Y008519D01*
X005431Y007398D02*
X005431Y007098D01*
X005531Y007098D02*
X005330Y007098D01*
X005236Y007098D02*
X005136Y007198D01*
X005186Y007098D02*
X005086Y007098D01*
X005036Y007148D01*
X005036Y007348D01*
X005086Y007398D01*
X005186Y007398D01*
X005236Y007348D01*
X005236Y007148D01*
X005186Y007098D01*
X005330Y007298D02*
X005431Y007398D01*
X003992Y006234D02*
X003992Y006034D01*
X003792Y006234D01*
X003742Y006234D01*
X003692Y006184D01*
X003692Y006084D01*
X003742Y006034D01*
X003692Y005839D02*
X003992Y005839D01*
X003992Y005739D02*
X003992Y005939D01*
X003792Y005739D02*
X003692Y005839D01*
X003742Y005645D02*
X003842Y005645D01*
X003892Y005595D01*
X003892Y005445D01*
X003892Y005545D02*
X003992Y005645D01*
X003992Y005445D02*
X003692Y005445D01*
X003692Y005595D01*
X003742Y005645D01*
X005351Y005036D02*
X005351Y004736D01*
X005351Y004836D02*
X005501Y004836D01*
X005551Y004886D01*
X005551Y004986D01*
X005501Y005036D01*
X005351Y005036D01*
X005451Y004836D02*
X005551Y004736D01*
X005645Y004736D02*
X005846Y004736D01*
X005746Y004736D02*
X005746Y005036D01*
X005645Y004936D01*
X005940Y004886D02*
X006040Y004936D01*
X006090Y004936D01*
X006140Y004886D01*
X006140Y004786D01*
X006090Y004736D01*
X005990Y004736D01*
X005940Y004786D01*
X005940Y004886D02*
X005940Y005036D01*
X006140Y005036D01*
X006813Y002691D02*
X006863Y002691D01*
X006913Y002641D01*
X006963Y002691D01*
X007013Y002691D01*
X007063Y002641D01*
X007063Y002541D01*
X007013Y002491D01*
X007063Y002396D02*
X007063Y002196D01*
X007063Y002296D02*
X006763Y002296D01*
X006863Y002196D01*
X006813Y002102D02*
X006763Y002051D01*
X006763Y001951D01*
X006813Y001901D01*
X007013Y001901D01*
X007063Y001951D01*
X007063Y002051D01*
X007013Y002102D01*
X006813Y002491D02*
X006763Y002541D01*
X006763Y002641D01*
X006813Y002691D01*
X006913Y002641D02*
X006913Y002591D01*
X007359Y011980D02*
X007359Y012280D01*
X007509Y012280D01*
X007559Y012230D01*
X007559Y012130D01*
X007509Y012080D01*
X007359Y012080D01*
X007459Y012080D02*
X007559Y011980D01*
X007653Y011980D02*
X007653Y012030D01*
X007853Y012230D01*
X007853Y012280D01*
X007653Y012280D01*
X005134Y012621D02*
X005134Y012721D01*
X005084Y012771D01*
X004984Y012865D02*
X004984Y013065D01*
X005134Y013015D02*
X004834Y013015D01*
X004984Y012865D01*
X004884Y012771D02*
X004834Y012721D01*
X004834Y012621D01*
X004884Y012571D01*
X005084Y012571D01*
X005134Y012621D01*
X003942Y014342D02*
X003742Y014342D01*
X003692Y014392D01*
X003692Y014492D01*
X003742Y014542D01*
X003742Y014637D02*
X003692Y014687D01*
X003692Y014787D01*
X003742Y014837D01*
X003792Y014837D01*
X003992Y014637D01*
X003992Y014837D01*
X003942Y014542D02*
X003992Y014492D01*
X003992Y014392D01*
X003942Y014342D01*
X005440Y016311D02*
X005540Y016311D01*
X005590Y016361D01*
X005590Y016611D01*
X005685Y016561D02*
X005735Y016611D01*
X005835Y016611D01*
X005885Y016561D01*
X005885Y016511D01*
X005685Y016311D01*
X005885Y016311D01*
X005440Y016311D02*
X005390Y016361D01*
X005390Y016611D01*
X003756Y019185D02*
X003456Y019185D01*
X003456Y019335D01*
X003506Y019385D01*
X003706Y019385D01*
X003756Y019335D01*
X003756Y019185D01*
X003756Y019479D02*
X003556Y019680D01*
X003506Y019680D01*
X003456Y019630D01*
X003456Y019529D01*
X003506Y019479D01*
X003756Y019479D02*
X003756Y019680D01*
D18*
X002913Y023489D02*
X002719Y023489D01*
X002913Y023682D01*
X002913Y023731D01*
X002865Y023779D01*
X002768Y023779D01*
X002719Y023731D01*
X001913Y023489D02*
X001719Y023489D01*
X001816Y023489D02*
X001816Y023779D01*
X001719Y023682D01*
X009293Y008338D02*
X009438Y008338D01*
X009486Y008290D01*
X009486Y008193D01*
X009438Y008145D01*
X009293Y008145D01*
X009390Y008145D02*
X009486Y008048D01*
X009587Y008048D02*
X009781Y008048D01*
X009684Y008048D02*
X009684Y008338D01*
X009587Y008242D01*
X009882Y008290D02*
X009930Y008338D01*
X010027Y008338D01*
X010076Y008290D01*
X010076Y008242D01*
X010027Y008193D01*
X010076Y008145D01*
X010076Y008096D01*
X010027Y008048D01*
X009930Y008048D01*
X009882Y008096D01*
X009979Y008193D02*
X010027Y008193D01*
X009293Y008048D02*
X009293Y008338D01*
X009450Y007197D02*
X009595Y007197D01*
X009644Y007148D01*
X009644Y007051D01*
X009595Y007003D01*
X009450Y007003D01*
X009450Y006906D02*
X009450Y007197D01*
X009547Y007003D02*
X009644Y006906D01*
X009745Y006955D02*
X009793Y006906D01*
X009890Y006906D01*
X009938Y006955D01*
X009938Y007148D01*
X009890Y007197D01*
X009793Y007197D01*
X009745Y007148D01*
X009745Y007100D01*
X009793Y007051D01*
X009938Y007051D01*
X009890Y006134D02*
X009938Y006085D01*
X009938Y006037D01*
X009890Y005988D01*
X009793Y005988D01*
X009745Y006037D01*
X009745Y006085D01*
X009793Y006134D01*
X009890Y006134D01*
X009890Y005988D02*
X009938Y005940D01*
X009938Y005892D01*
X009890Y005843D01*
X009793Y005843D01*
X009745Y005892D01*
X009745Y005940D01*
X009793Y005988D01*
X009644Y005988D02*
X009644Y006085D01*
X009595Y006134D01*
X009450Y006134D01*
X009450Y005843D01*
X009450Y005940D02*
X009595Y005940D01*
X009644Y005988D01*
X009547Y005940D02*
X009644Y005843D01*
D19*
X009040Y005752D02*
X009040Y005137D01*
X010331Y005137D01*
X010331Y005752D01*
X009040Y005752D01*
X009061Y006207D02*
X009061Y006821D01*
X010353Y006821D01*
X010353Y006207D01*
X009061Y006207D01*
X008545Y006159D02*
X006988Y006159D01*
X006988Y006863D01*
X008545Y006863D01*
X008545Y006159D01*
X008497Y005798D02*
X008497Y005094D01*
X006940Y005094D01*
X006940Y005798D01*
X008497Y005798D01*
X007802Y005607D02*
X007802Y005450D01*
X007644Y005293D01*
X007644Y005607D01*
X007802Y005450D01*
X007802Y005293D01*
X007841Y006349D02*
X007841Y006664D01*
X007683Y006506D01*
X007841Y006349D01*
X007683Y006349D02*
X007683Y006506D01*
X007683Y006664D01*
X007712Y007434D02*
X007870Y007591D01*
X007712Y007749D01*
X007712Y007434D01*
X007870Y007434D02*
X007870Y007591D01*
X007870Y007749D01*
X008565Y007939D02*
X008565Y007235D01*
X007008Y007235D01*
X007008Y007939D01*
X008565Y007939D01*
X009052Y007910D02*
X009052Y007296D01*
X010343Y007296D01*
X010343Y007910D01*
X009052Y007910D01*
X009294Y008690D02*
X008003Y008690D01*
X008003Y009304D01*
X009294Y009304D01*
X009294Y008690D01*
X009294Y009550D02*
X008003Y009550D01*
X008003Y010165D01*
X009294Y010165D01*
X009294Y009550D01*
X007257Y010508D02*
X005966Y010508D01*
X005966Y011122D01*
X007257Y011122D01*
X007257Y010508D01*
X007242Y011571D02*
X005950Y011571D01*
X005950Y012185D01*
X007242Y012185D01*
X007242Y011571D01*
X005598Y012379D02*
X005598Y010322D01*
X005579Y010318D01*
X005550Y010318D02*
X004811Y010318D01*
X004811Y012379D01*
X005598Y012379D01*
X005380Y011421D02*
X005030Y011421D01*
X005205Y011271D01*
X005380Y011421D01*
X005380Y011271D02*
X005030Y011271D01*
X003762Y010537D02*
X003762Y010124D01*
X002752Y010832D02*
X001731Y010832D01*
X003762Y008470D02*
X003762Y008055D01*
X004749Y008206D02*
X004749Y007591D01*
X006041Y007591D01*
X006041Y008206D01*
X004749Y008206D01*
X004765Y007030D02*
X004151Y007030D01*
X004151Y005739D01*
X004765Y005739D01*
X004765Y007030D01*
X005131Y006987D02*
X005528Y006987D01*
X005972Y006987D02*
X006369Y006987D01*
X006369Y006470D01*
X005897Y006467D02*
X005598Y006467D01*
X005131Y006470D02*
X005131Y006987D01*
X005111Y005731D02*
X006402Y005731D01*
X006402Y005117D01*
X005111Y005117D01*
X005111Y005731D01*
X002746Y007761D02*
X001746Y007756D01*
X005838Y003196D02*
X005857Y003200D01*
X005838Y003196D02*
X005838Y001139D01*
X006625Y001139D01*
X006625Y003200D01*
X005886Y003200D01*
X006056Y002246D02*
X006406Y002246D01*
X006406Y002096D02*
X006056Y002096D01*
X006231Y002246D01*
X006406Y002096D01*
X014609Y005651D02*
X014609Y008250D01*
X015367Y008250D02*
X016212Y008250D01*
X016971Y008250D02*
X016971Y005651D01*
X017920Y005792D02*
X017920Y006189D01*
X018437Y006189D01*
X018440Y005717D02*
X018440Y005418D01*
X018437Y004951D02*
X017920Y004951D01*
X017920Y005348D01*
X017748Y006387D02*
X017748Y007001D01*
X019039Y007001D01*
X019039Y006387D01*
X017748Y006387D01*
X017744Y007333D02*
X017744Y007947D01*
X019035Y007947D01*
X019035Y007333D01*
X017744Y007333D01*
X017760Y008310D02*
X017760Y008924D01*
X019051Y008924D01*
X019051Y008310D01*
X017760Y008310D01*
X019408Y008234D02*
X019408Y005635D01*
X020166Y005635D02*
X021011Y005635D01*
X021770Y005635D02*
X021770Y008234D01*
X022291Y008354D02*
X022291Y008055D01*
X022294Y007583D02*
X022811Y007583D01*
X022811Y007980D01*
X022811Y008423D02*
X022811Y008821D01*
X022294Y008821D01*
X023552Y008513D02*
X024166Y008513D01*
X024166Y007222D01*
X023552Y007222D01*
X023552Y008513D01*
X024650Y010646D02*
X021894Y010646D01*
X021894Y012328D01*
X021697Y012328D01*
X021697Y013115D01*
X021894Y013115D01*
X021894Y014796D01*
X024650Y014796D01*
X024650Y010646D01*
X021894Y012328D02*
X021894Y013115D01*
X021445Y016434D02*
X021445Y017048D01*
X022736Y017048D01*
X022736Y016434D01*
X021445Y016434D01*
X018186Y013774D02*
X018068Y013892D01*
X015705Y013892D01*
X015587Y013774D01*
X015587Y011412D01*
X015705Y011294D01*
X018068Y011294D01*
X018186Y011412D01*
X018186Y013774D01*
X017667Y015856D02*
X016049Y015856D01*
X016049Y016665D01*
X017667Y016665D01*
X017667Y015856D01*
X014336Y015542D02*
X013722Y015542D01*
X013722Y016833D01*
X014336Y016833D01*
X014336Y015542D01*
X013290Y015544D02*
X012676Y015544D01*
X012676Y016835D01*
X013290Y016835D01*
X013290Y015544D01*
X012233Y015544D02*
X011619Y015544D01*
X011619Y016835D01*
X012233Y016835D01*
X012233Y015544D01*
X012404Y014172D02*
X013018Y014172D01*
X013018Y012880D01*
X012404Y012880D01*
X012404Y014172D01*
X011364Y013623D02*
X012283Y012705D01*
X011142Y011563D01*
X010223Y012482D01*
X011364Y013623D01*
X010400Y014632D02*
X008343Y014632D01*
X008339Y014652D01*
X008339Y014680D02*
X008339Y015420D01*
X010400Y015420D01*
X010400Y014632D01*
X009443Y014851D02*
X009293Y015026D01*
X009443Y015201D01*
X009443Y014851D01*
X009293Y014851D02*
X009293Y015201D01*
X009815Y015790D02*
X008523Y015790D01*
X008523Y016404D01*
X009815Y016404D01*
X009815Y015790D01*
X007983Y016165D02*
X007983Y014747D01*
X007955Y014747D02*
X006979Y014747D01*
X006949Y014747D02*
X005374Y014747D01*
X005346Y014747D02*
X005346Y016165D01*
X007983Y016165D01*
X004964Y016177D02*
X004964Y014116D01*
X004176Y014116D01*
X004176Y016173D01*
X004196Y016177D01*
X004224Y016177D02*
X004964Y016177D01*
X004745Y015224D02*
X004395Y015224D01*
X004395Y015074D02*
X004570Y015224D01*
X004745Y015074D01*
X004395Y015074D01*
X002463Y016209D02*
X002463Y013209D01*
X001463Y013209D01*
X001463Y016209D01*
X002463Y016209D01*
X002108Y017847D02*
X002108Y020884D01*
X002189Y020888D01*
X003368Y020888D01*
X003368Y017847D01*
X002108Y017847D01*
X002438Y019170D02*
X002738Y019170D01*
X003038Y019170D01*
X003038Y019470D02*
X002738Y019170D01*
X002438Y019470D01*
X003038Y019470D01*
X003399Y022394D02*
X001399Y022394D01*
X001399Y023394D01*
X003399Y023394D01*
X003399Y022394D01*
X012412Y012361D02*
X013026Y012361D01*
X013026Y011070D01*
X012412Y011070D01*
X012412Y012361D01*
X012753Y010986D02*
X014370Y010986D01*
X014370Y010177D01*
X012753Y010177D01*
X012753Y010986D01*
X015396Y006950D02*
X015398Y006989D01*
X015404Y007028D01*
X015414Y007066D01*
X015427Y007103D01*
X015444Y007138D01*
X015464Y007172D01*
X015488Y007203D01*
X015515Y007232D01*
X015544Y007258D01*
X015576Y007281D01*
X015610Y007301D01*
X015646Y007317D01*
X015683Y007329D01*
X015722Y007338D01*
X015761Y007343D01*
X015800Y007344D01*
X015839Y007341D01*
X015878Y007334D01*
X015915Y007323D01*
X015952Y007309D01*
X015987Y007291D01*
X016020Y007270D01*
X016051Y007245D01*
X016079Y007218D01*
X016104Y007188D01*
X016126Y007155D01*
X016145Y007121D01*
X016160Y007085D01*
X016172Y007047D01*
X016180Y007009D01*
X016184Y006970D01*
X016184Y006930D01*
X016180Y006891D01*
X016172Y006853D01*
X016160Y006815D01*
X016145Y006779D01*
X016126Y006745D01*
X016104Y006712D01*
X016079Y006682D01*
X016051Y006655D01*
X016020Y006630D01*
X015987Y006609D01*
X015952Y006591D01*
X015915Y006577D01*
X015878Y006566D01*
X015839Y006559D01*
X015800Y006556D01*
X015761Y006557D01*
X015722Y006562D01*
X015683Y006571D01*
X015646Y006583D01*
X015610Y006599D01*
X015576Y006619D01*
X015544Y006642D01*
X015515Y006668D01*
X015488Y006697D01*
X015464Y006728D01*
X015444Y006762D01*
X015427Y006797D01*
X015414Y006834D01*
X015404Y006872D01*
X015398Y006911D01*
X015396Y006950D01*
X015198Y006950D02*
X015200Y006998D01*
X015206Y007046D01*
X015216Y007093D01*
X015229Y007140D01*
X015247Y007185D01*
X015268Y007228D01*
X015292Y007270D01*
X015320Y007310D01*
X015351Y007347D01*
X015384Y007381D01*
X015421Y007413D01*
X015460Y007441D01*
X015501Y007467D01*
X015544Y007489D01*
X015589Y007507D01*
X015635Y007521D01*
X015682Y007532D01*
X015730Y007539D01*
X015778Y007542D01*
X015826Y007541D01*
X015874Y007536D01*
X015922Y007527D01*
X015968Y007514D01*
X016014Y007498D01*
X016058Y007478D01*
X016100Y007454D01*
X016140Y007428D01*
X016178Y007397D01*
X016213Y007364D01*
X016245Y007328D01*
X016275Y007290D01*
X016301Y007249D01*
X016323Y007207D01*
X016343Y007163D01*
X016358Y007117D01*
X016370Y007070D01*
X016378Y007022D01*
X016382Y006974D01*
X016382Y006926D01*
X016378Y006878D01*
X016370Y006830D01*
X016358Y006783D01*
X016343Y006737D01*
X016323Y006693D01*
X016301Y006651D01*
X016275Y006610D01*
X016245Y006572D01*
X016213Y006536D01*
X016178Y006503D01*
X016140Y006472D01*
X016100Y006446D01*
X016058Y006422D01*
X016014Y006402D01*
X015968Y006386D01*
X015922Y006373D01*
X015874Y006364D01*
X015826Y006359D01*
X015778Y006358D01*
X015730Y006361D01*
X015682Y006368D01*
X015635Y006379D01*
X015589Y006393D01*
X015544Y006411D01*
X015501Y006433D01*
X015460Y006459D01*
X015421Y006487D01*
X015384Y006519D01*
X015351Y006553D01*
X015320Y006590D01*
X015292Y006630D01*
X015268Y006672D01*
X015247Y006715D01*
X015229Y006760D01*
X015216Y006807D01*
X015206Y006854D01*
X015200Y006902D01*
X015198Y006950D01*
X015367Y005651D02*
X016212Y005651D01*
X020166Y008234D02*
X021011Y008234D01*
X020195Y006935D02*
X020197Y006974D01*
X020203Y007013D01*
X020213Y007051D01*
X020226Y007088D01*
X020243Y007123D01*
X020263Y007157D01*
X020287Y007188D01*
X020314Y007217D01*
X020343Y007243D01*
X020375Y007266D01*
X020409Y007286D01*
X020445Y007302D01*
X020482Y007314D01*
X020521Y007323D01*
X020560Y007328D01*
X020599Y007329D01*
X020638Y007326D01*
X020677Y007319D01*
X020714Y007308D01*
X020751Y007294D01*
X020786Y007276D01*
X020819Y007255D01*
X020850Y007230D01*
X020878Y007203D01*
X020903Y007173D01*
X020925Y007140D01*
X020944Y007106D01*
X020959Y007070D01*
X020971Y007032D01*
X020979Y006994D01*
X020983Y006955D01*
X020983Y006915D01*
X020979Y006876D01*
X020971Y006838D01*
X020959Y006800D01*
X020944Y006764D01*
X020925Y006730D01*
X020903Y006697D01*
X020878Y006667D01*
X020850Y006640D01*
X020819Y006615D01*
X020786Y006594D01*
X020751Y006576D01*
X020714Y006562D01*
X020677Y006551D01*
X020638Y006544D01*
X020599Y006541D01*
X020560Y006542D01*
X020521Y006547D01*
X020482Y006556D01*
X020445Y006568D01*
X020409Y006584D01*
X020375Y006604D01*
X020343Y006627D01*
X020314Y006653D01*
X020287Y006682D01*
X020263Y006713D01*
X020243Y006747D01*
X020226Y006782D01*
X020213Y006819D01*
X020203Y006857D01*
X020197Y006896D01*
X020195Y006935D01*
X019997Y006935D02*
X019999Y006983D01*
X020005Y007031D01*
X020015Y007078D01*
X020028Y007125D01*
X020046Y007170D01*
X020067Y007213D01*
X020091Y007255D01*
X020119Y007295D01*
X020150Y007332D01*
X020183Y007366D01*
X020220Y007398D01*
X020259Y007426D01*
X020300Y007452D01*
X020343Y007474D01*
X020388Y007492D01*
X020434Y007506D01*
X020481Y007517D01*
X020529Y007524D01*
X020577Y007527D01*
X020625Y007526D01*
X020673Y007521D01*
X020721Y007512D01*
X020767Y007499D01*
X020813Y007483D01*
X020857Y007463D01*
X020899Y007439D01*
X020939Y007413D01*
X020977Y007382D01*
X021012Y007349D01*
X021044Y007313D01*
X021074Y007275D01*
X021100Y007234D01*
X021122Y007192D01*
X021142Y007148D01*
X021157Y007102D01*
X021169Y007055D01*
X021177Y007007D01*
X021181Y006959D01*
X021181Y006911D01*
X021177Y006863D01*
X021169Y006815D01*
X021157Y006768D01*
X021142Y006722D01*
X021122Y006678D01*
X021100Y006636D01*
X021074Y006595D01*
X021044Y006557D01*
X021012Y006521D01*
X020977Y006488D01*
X020939Y006457D01*
X020899Y006431D01*
X020857Y006407D01*
X020813Y006387D01*
X020767Y006371D01*
X020721Y006358D01*
X020673Y006349D01*
X020625Y006344D01*
X020577Y006343D01*
X020529Y006346D01*
X020481Y006353D01*
X020434Y006364D01*
X020388Y006378D01*
X020343Y006396D01*
X020300Y006418D01*
X020259Y006444D01*
X020220Y006472D01*
X020183Y006504D01*
X020150Y006538D01*
X020119Y006575D01*
X020091Y006615D01*
X020067Y006657D01*
X020046Y006700D01*
X020028Y006745D01*
X020015Y006792D01*
X020005Y006839D01*
X019999Y006887D01*
X019997Y006935D01*
D20*
X005515Y001174D03*
X005515Y001124D03*
X005515Y001074D03*
X005515Y001024D03*
X005515Y000974D03*
X005515Y000924D03*
X005465Y000824D03*
X005465Y001224D03*
X005465Y001274D03*
X005415Y001324D03*
X004665Y001324D03*
X004615Y001274D03*
X004565Y001174D03*
X004565Y001124D03*
X004565Y001074D03*
X004565Y001024D03*
X004565Y000974D03*
X004565Y000924D03*
X004615Y000824D03*
X004215Y000824D03*
X004215Y000774D03*
X004215Y000724D03*
X004215Y000674D03*
X004215Y000624D03*
X004215Y000574D03*
X004215Y000524D03*
X003865Y000524D03*
X003865Y000674D03*
X003515Y000824D03*
X003565Y000924D03*
X003565Y000974D03*
X003565Y001024D03*
X003565Y001074D03*
X003565Y001124D03*
X003515Y001224D03*
X003515Y001274D03*
X003465Y001324D03*
X002865Y001324D03*
X002865Y001274D03*
X002865Y001224D03*
X002865Y001174D03*
X002865Y001124D03*
X002865Y001074D03*
X002865Y001024D03*
X002865Y000974D03*
X002865Y000924D03*
X002865Y000874D03*
X002865Y000824D03*
X002865Y000774D03*
X002865Y000724D03*
X002865Y000674D03*
X002515Y000674D03*
X002515Y000624D03*
X002515Y000574D03*
X002515Y000524D03*
X002515Y000724D03*
X002515Y000774D03*
X002515Y000824D03*
X002515Y000874D03*
X002515Y000924D03*
X002515Y000974D03*
X002515Y001024D03*
X002515Y001074D03*
X002515Y001124D03*
X002515Y001174D03*
X002515Y001224D03*
X002515Y001274D03*
X002515Y001324D03*
X002515Y001374D03*
X002515Y001424D03*
X002515Y001474D03*
X002515Y001524D03*
X002515Y001574D03*
X002865Y001424D03*
X002865Y001374D03*
X001765Y001374D03*
X001765Y001324D03*
X001765Y001274D03*
X001765Y001224D03*
X001765Y001174D03*
X001765Y000974D03*
X001765Y000924D03*
X001765Y000874D03*
X001765Y000824D03*
X001765Y000774D03*
X001765Y000724D03*
X001765Y000674D03*
X001765Y000624D03*
X001765Y000574D03*
X001765Y000524D03*
X001415Y000524D03*
X001365Y000624D03*
X001315Y000674D03*
X001265Y000774D03*
X001215Y000824D03*
X001165Y000924D03*
X000965Y000924D03*
X000965Y000874D03*
X000965Y000824D03*
X000965Y000774D03*
X000965Y000724D03*
X000965Y000674D03*
X000965Y000624D03*
X000965Y000574D03*
X000965Y000524D03*
X000965Y001074D03*
X000965Y001124D03*
X000965Y001174D03*
X000965Y001224D03*
X000965Y001274D03*
X000965Y001324D03*
X000965Y001374D03*
X000965Y001424D03*
X001415Y001324D03*
X001415Y001274D03*
X001415Y001224D03*
X001415Y001174D03*
X001365Y001124D03*
X001765Y001424D03*
X004215Y001424D03*
X004215Y001374D03*
X004215Y001324D03*
X004215Y001274D03*
X004215Y001224D03*
X004215Y001174D03*
X004215Y001124D03*
X004215Y001074D03*
X004215Y001024D03*
X004215Y000974D03*
X004215Y000924D03*
X004215Y000874D03*
X004215Y001474D03*
X004215Y001524D03*
X004215Y001574D03*
X003515Y004274D03*
X003515Y004974D03*
X003015Y004974D03*
D21*
X003665Y004874D03*
X004365Y004174D03*
X004415Y004074D03*
X004465Y003974D03*
X004465Y003174D03*
X004415Y003074D03*
X004415Y003024D03*
X004365Y002974D03*
X004315Y002874D03*
X003265Y003374D03*
X003265Y003724D03*
X002165Y004224D03*
X002115Y004174D03*
X002065Y004074D03*
X002065Y003074D03*
X002115Y002974D03*
X002165Y002924D03*
X002215Y002824D03*
X001115Y001524D03*
X003015Y000524D03*
D22*
X003290Y001424D03*
X005040Y000524D03*
X004440Y003124D03*
X004490Y003224D03*
X004490Y003274D03*
X004490Y003324D03*
X004490Y003824D03*
X004490Y003874D03*
X004490Y003924D03*
X004440Y004024D03*
X004390Y004124D03*
X003640Y004124D03*
X002090Y004124D03*
X002040Y004024D03*
X002040Y003974D03*
X001990Y003924D03*
X001990Y003874D03*
X001990Y003824D03*
X001990Y003324D03*
X001990Y003274D03*
X001990Y003224D03*
X002040Y003174D03*
X002040Y003124D03*
X002090Y003024D03*
X001090Y000974D03*
D23*
X001190Y000874D03*
X001290Y000724D03*
X001390Y000574D03*
X001390Y001374D03*
X001340Y001424D03*
X003240Y002124D03*
X003540Y001174D03*
X003540Y000874D03*
X003490Y000774D03*
X003440Y000724D03*
X003890Y000574D03*
X004590Y000874D03*
X004640Y000774D03*
X004690Y000724D03*
X004590Y001224D03*
X004690Y001374D03*
X005390Y000724D03*
X005440Y000774D03*
X005490Y000874D03*
X003940Y003774D03*
X003890Y003874D03*
D24*
X004040Y004524D03*
X003740Y004774D03*
X002440Y004524D03*
X004140Y002674D03*
X002440Y002624D03*
X003090Y000574D03*
X005040Y000574D03*
D25*
X003115Y000624D03*
X003115Y001474D03*
X004065Y002624D03*
X002765Y004774D03*
D26*
X003565Y004224D03*
X003815Y003974D03*
X003865Y003924D03*
X003915Y003824D03*
X003265Y003824D03*
X001015Y001574D03*
X003415Y001374D03*
X003365Y000674D03*
X003865Y000624D03*
X004765Y000674D03*
X005315Y000674D03*
X005365Y001374D03*
D27*
X005040Y001474D03*
X005040Y000624D03*
X003990Y002574D03*
X002540Y002574D03*
X002540Y004574D03*
X003790Y004724D03*
X003940Y004574D03*
D28*
X004240Y004324D03*
X004290Y004274D03*
X004340Y004224D03*
X003290Y003424D03*
X004240Y002774D03*
X004290Y002824D03*
X004340Y002924D03*
X005040Y001524D03*
X002190Y002874D03*
X001140Y001474D03*
X001140Y001024D03*
X002190Y004274D03*
X002240Y004324D03*
X002840Y004874D03*
D29*
X002815Y004824D03*
X002365Y004474D03*
X002315Y004424D03*
X002265Y004374D03*
X003265Y003674D03*
X003265Y003624D03*
X003265Y003574D03*
X003265Y003524D03*
X003265Y003474D03*
X004165Y002724D03*
X003065Y001524D03*
X001965Y001524D03*
X001965Y001474D03*
X001965Y001574D03*
X001965Y001124D03*
X001965Y001074D03*
X001965Y001024D03*
X002365Y002674D03*
X002315Y002724D03*
X002265Y002774D03*
X004115Y004474D03*
X004165Y004424D03*
X004215Y004374D03*
X003715Y004824D03*
D30*
X003590Y004924D03*
X003790Y004024D03*
X003290Y003324D03*
X002940Y001574D03*
X001290Y001074D03*
X004790Y001424D03*
D31*
X005265Y001424D03*
X004515Y003374D03*
X004515Y003774D03*
X003715Y004074D03*
X003615Y004174D03*
X003265Y003774D03*
X002915Y004924D03*
X001965Y003774D03*
X001965Y003724D03*
X001965Y003674D03*
X001965Y003624D03*
X001965Y003574D03*
X001965Y003524D03*
X001965Y003474D03*
X001965Y003424D03*
X001965Y003374D03*
D32*
X005040Y001574D03*
D33*
X003890Y002524D03*
X003240Y002174D03*
X002640Y002524D03*
X002690Y004674D03*
X003840Y004624D03*
D34*
X003265Y002224D03*
D35*
X003265Y002274D03*
D36*
X003265Y002324D03*
D37*
X003240Y002374D03*
D38*
X003240Y002424D03*
D39*
X003265Y002474D03*
D40*
X002665Y004624D03*
D41*
X002715Y004724D03*
X003815Y004674D03*
M02*
