G75*
G70*
%OFA0B0*%
%FSLAX24Y24*%
%IPPOS*%
%LPD*%
%AMOC8*
5,1,8,0,0,1.08239X$1,22.5*
%
%ADD10R,0.0480X0.0330*%
%ADD11R,0.0631X0.0552*%
%ADD12R,0.0474X0.0513*%
%ADD13R,0.0552X0.0552*%
%ADD14R,0.0513X0.0474*%
%ADD15R,0.0592X0.0592*%
%ADD16R,0.1497X0.0592*%
%ADD17R,0.0671X0.0848*%
%ADD18R,0.0848X0.0671*%
%ADD19OC8,0.0840*%
%ADD20R,0.1025X0.0867*%
%ADD21R,0.0989X0.0277*%
%ADD22C,0.0474*%
%ADD23R,0.0330X0.0480*%
%ADD24R,0.0592X0.0671*%
%ADD25C,0.0740*%
%ADD26R,0.1080X0.1080*%
%ADD27R,0.1104X0.0336*%
%ADD28R,0.0671X0.0178*%
%ADD29R,0.0178X0.0671*%
%ADD30C,0.0780*%
%ADD31R,0.0552X0.1340*%
%ADD32C,0.0400*%
%ADD33C,0.0580*%
%ADD34C,0.0377*%
D10*
X017786Y005570D03*
X018574Y005196D03*
X018574Y005944D03*
X022157Y007828D03*
X022157Y008576D03*
X022945Y008202D03*
D11*
G36*
X012199Y012704D02*
X011755Y012260D01*
X011365Y012650D01*
X011809Y013094D01*
X012199Y012704D01*
G37*
G36*
X011754Y013149D02*
X011310Y012705D01*
X010920Y013095D01*
X011364Y013539D01*
X011754Y013149D01*
G37*
G36*
X011587Y012091D02*
X011143Y011647D01*
X010753Y012037D01*
X011197Y012481D01*
X011587Y012091D01*
G37*
G36*
X011141Y012537D02*
X010697Y012093D01*
X010307Y012483D01*
X010751Y012927D01*
X011141Y012537D01*
G37*
D12*
X012719Y012046D03*
X012719Y011377D03*
X012711Y013195D03*
X012711Y013865D03*
X012983Y015851D03*
X012983Y016520D03*
X014029Y016518D03*
X014029Y015849D03*
X011926Y015851D03*
X011926Y016520D03*
X004458Y006723D03*
X004458Y006054D03*
X023859Y007529D03*
X023859Y008198D03*
D13*
X008205Y007591D03*
X007378Y007591D03*
X007349Y006506D03*
X008175Y006506D03*
X008136Y005450D03*
X007310Y005450D03*
D14*
X006095Y005424D03*
X005426Y005424D03*
X005734Y007898D03*
X005064Y007898D03*
X006273Y010815D03*
X006942Y010815D03*
X006927Y011878D03*
X006257Y011878D03*
X008310Y009857D03*
X008979Y009857D03*
X008979Y008997D03*
X008310Y008997D03*
X009367Y007603D03*
X010036Y007603D03*
X010046Y006514D03*
X009376Y006514D03*
X009347Y005444D03*
X010016Y005444D03*
X018063Y006694D03*
X018732Y006694D03*
X018728Y007640D03*
X018059Y007640D03*
X018075Y008617D03*
X018744Y008617D03*
X021752Y016741D03*
X022421Y016741D03*
X009500Y016097D03*
X008831Y016097D03*
D15*
X007570Y014255D03*
X006664Y014255D03*
X005759Y014255D03*
D16*
X006664Y016657D03*
D17*
X004570Y015690D03*
X004570Y014607D03*
X005205Y011888D03*
X005205Y010805D03*
X006231Y002712D03*
X006231Y001630D03*
D18*
X008826Y015026D03*
X009909Y015026D03*
D19*
X001963Y014709D03*
X001963Y015709D03*
X001963Y013709D03*
X001899Y022894D03*
X002899Y022894D03*
D20*
X003329Y011029D03*
X001164Y011029D03*
X001164Y007565D03*
X003329Y007565D03*
D21*
X003551Y008667D03*
X003551Y008982D03*
X003551Y009297D03*
X003551Y009612D03*
X003551Y009927D03*
D22*
X002345Y010163D03*
X002345Y008431D03*
D23*
X005376Y006333D03*
X006124Y006333D03*
X005750Y007120D03*
D24*
X013187Y010581D03*
X013935Y010581D03*
X016484Y016261D03*
X017232Y016261D03*
D25*
X016904Y022876D03*
X017904Y022876D03*
X018896Y022876D03*
X019896Y022876D03*
X020888Y022852D03*
X021888Y022852D03*
X022888Y022852D03*
X023888Y022852D03*
X024199Y016202D03*
X015904Y022876D03*
X014904Y022876D03*
X013890Y022847D03*
X012890Y022847D03*
X011890Y022847D03*
X010890Y022847D03*
X009861Y022846D03*
X008861Y022846D03*
X007876Y022860D03*
X006876Y022860D03*
X005876Y022860D03*
X007884Y000797D03*
X008884Y000797D03*
X009884Y000797D03*
X019899Y000777D03*
X020899Y000777D03*
X021899Y000777D03*
X022899Y000777D03*
X023899Y000777D03*
D26*
X002738Y018445D03*
X002738Y020295D03*
D27*
X022544Y013721D03*
X022544Y013221D03*
X022544Y012721D03*
X022544Y012221D03*
X022544Y011721D03*
X024001Y011721D03*
X024001Y012221D03*
X024001Y012721D03*
X024001Y013221D03*
X024001Y013721D03*
D28*
X018579Y013676D03*
X018579Y013479D03*
X018579Y013282D03*
X018579Y013085D03*
X018579Y012888D03*
X018579Y012691D03*
X018579Y012494D03*
X018579Y012298D03*
X018579Y012101D03*
X018579Y011904D03*
X018579Y011707D03*
X018579Y011510D03*
X015194Y011510D03*
X015194Y011707D03*
X015194Y011904D03*
X015194Y012101D03*
X015194Y012298D03*
X015194Y012494D03*
X015194Y012691D03*
X015194Y012888D03*
X015194Y013085D03*
X015194Y013282D03*
X015194Y013479D03*
X015194Y013676D03*
D29*
X015804Y014286D03*
X016001Y014286D03*
X016197Y014286D03*
X016394Y014286D03*
X016591Y014286D03*
X016788Y014286D03*
X016985Y014286D03*
X017182Y014286D03*
X017379Y014286D03*
X017575Y014286D03*
X017772Y014286D03*
X017969Y014286D03*
X017969Y010900D03*
X017772Y010900D03*
X017575Y010900D03*
X017379Y010900D03*
X017182Y010900D03*
X016985Y010900D03*
X016788Y010900D03*
X016591Y010900D03*
X016394Y010900D03*
X016197Y010900D03*
X016001Y010900D03*
X015804Y010900D03*
D30*
X015888Y000789D03*
X014888Y000789D03*
X013888Y000789D03*
X012888Y000789D03*
X011888Y000789D03*
X010888Y000789D03*
X016888Y000789D03*
X017888Y000789D03*
X018888Y000789D03*
D31*
X019801Y005596D03*
X021376Y005596D03*
X021376Y008273D03*
X019801Y008273D03*
X016577Y008289D03*
X015002Y008289D03*
X015002Y005612D03*
X016577Y005612D03*
D32*
X001323Y002273D03*
X001335Y004746D03*
X001876Y006147D03*
X003175Y005907D03*
X003796Y006738D03*
X004878Y004966D03*
X005187Y003714D03*
X006164Y000832D03*
X009797Y004120D03*
X008776Y005084D03*
X011573Y003391D03*
X013410Y003067D03*
X015341Y004250D03*
X018381Y003254D03*
X020609Y003423D03*
X023770Y003340D03*
X024250Y005297D03*
X023118Y009067D03*
X022888Y009907D03*
X022467Y010269D03*
X022994Y010939D03*
X023364Y010399D03*
X024380Y010380D03*
X021652Y011974D03*
X020934Y010987D03*
X020333Y010616D03*
X021014Y010317D03*
X021089Y009521D03*
X020360Y009773D03*
X018845Y010061D03*
X018451Y009746D03*
X018057Y009411D03*
X017939Y010080D03*
X017171Y009509D03*
X016876Y009785D03*
X015778Y010025D03*
X015262Y010348D03*
X015258Y010891D03*
X016030Y011596D03*
X015853Y012049D03*
X016581Y011576D03*
X017477Y011905D03*
X018274Y011045D03*
X018628Y010789D03*
X019278Y011104D03*
X019612Y011557D03*
X020400Y011694D03*
X020400Y012860D03*
X020026Y013139D03*
X019790Y013537D03*
X019514Y013911D03*
X019238Y014269D03*
X018372Y014057D03*
X018175Y014903D03*
X018097Y015415D03*
X018884Y015513D03*
X018923Y016222D03*
X017044Y017407D03*
X016256Y017456D03*
X015794Y017088D03*
X015469Y016472D03*
X015046Y016065D03*
X015833Y015415D03*
X015439Y015159D03*
X014514Y014470D03*
X014386Y015173D03*
X013510Y014234D03*
X012979Y014647D03*
X012359Y014647D03*
X011935Y014943D03*
X011807Y013657D03*
X012549Y012628D03*
X013431Y011832D03*
X014238Y011970D03*
X014455Y013269D03*
X015935Y013356D03*
X016805Y013608D03*
X014684Y016903D03*
X013530Y017206D03*
X012467Y017285D03*
X011347Y019496D03*
X011393Y019979D03*
X012752Y021059D03*
X011453Y021836D03*
X014696Y020356D03*
X015746Y019666D03*
X015543Y018615D03*
X016443Y018614D03*
X017309Y018614D03*
X018089Y018638D03*
X021384Y019691D03*
X022398Y018598D03*
X022799Y017444D03*
X021925Y017378D03*
X021971Y015285D03*
X021286Y015159D03*
X021561Y014450D03*
X021278Y013734D03*
X023254Y014234D03*
X024160Y019454D03*
X022418Y020960D03*
X022417Y022015D03*
X024323Y021976D03*
X012014Y010080D03*
X011364Y009746D03*
X010951Y009313D03*
X009888Y009017D03*
X009888Y009864D03*
X009215Y010450D03*
X008323Y011462D03*
X007841Y012584D03*
X009849Y014155D03*
X009957Y016836D03*
X008826Y016813D03*
X006906Y018086D03*
X005272Y018352D03*
X004140Y017659D03*
X001197Y018876D03*
X001201Y021161D03*
X000990Y015842D03*
X001040Y012348D03*
X006601Y010084D03*
X007565Y008559D03*
X010321Y011242D03*
X012329Y008919D03*
X012723Y008584D03*
X014179Y009037D03*
X020397Y007975D03*
D33*
X017313Y007612D03*
X017388Y006675D03*
X023845Y006665D03*
X023175Y015257D03*
X024085Y017974D03*
X010774Y006990D03*
X004589Y008824D03*
D34*
X016892Y015057D03*
M02*
