G75*
G70*
%OFA0B0*%
%FSLAX24Y24*%
%IPPOS*%
%LPD*%
%AMOC8*
5,1,8,0,0,1.08239X$1,22.5*
%
%ADD10OC8,0.0760*%
%ADD11C,0.0660*%
%ADD12C,0.0700*%
%ADD13C,0.0320*%
%ADD14C,0.0500*%
%ADD15C,0.0320*%
%ADD16C,0.0160*%
%ADD17C,0.0400*%
%ADD18C,0.0240*%
%ADD19C,0.0098*%
%ADD20C,0.0100*%
%ADD21C,0.0297*%
D10*
X001963Y013709D03*
X001963Y014709D03*
X001963Y015709D03*
X001899Y022894D03*
X002899Y022894D03*
D11*
X005876Y022860D03*
X006876Y022860D03*
X007876Y022860D03*
X008861Y022846D03*
X009861Y022846D03*
X010890Y022847D03*
X011890Y022847D03*
X012890Y022847D03*
X013890Y022847D03*
X014904Y022876D03*
X015904Y022876D03*
X016904Y022876D03*
X017904Y022876D03*
X018896Y022876D03*
X019896Y022876D03*
X020888Y022852D03*
X021888Y022852D03*
X022888Y022852D03*
X023888Y022852D03*
X024199Y016202D03*
X023899Y000777D03*
X022899Y000777D03*
X021899Y000777D03*
X020899Y000777D03*
X019899Y000777D03*
X009884Y000797D03*
X008884Y000797D03*
X007884Y000797D03*
D12*
X010888Y000789D03*
X011888Y000789D03*
X012888Y000789D03*
X013888Y000789D03*
X014888Y000789D03*
X015888Y000789D03*
X016888Y000789D03*
X017888Y000789D03*
X018888Y000789D03*
D13*
X018381Y003254D03*
X020609Y003423D03*
X023770Y003340D03*
X024250Y005297D03*
X023118Y009067D03*
X022888Y009907D03*
X022467Y010269D03*
X022994Y010939D03*
X023364Y010399D03*
X024380Y010380D03*
X021652Y011974D03*
X020934Y010987D03*
X020333Y010616D03*
X021014Y010317D03*
X021089Y009521D03*
X020360Y009773D03*
X018845Y010061D03*
X018451Y009746D03*
X018057Y009411D03*
X017939Y010080D03*
X017171Y009509D03*
X016876Y009785D03*
X015778Y010025D03*
X015262Y010348D03*
X015258Y010891D03*
X016030Y011596D03*
X015853Y012049D03*
X016581Y011576D03*
X017477Y011905D03*
X018274Y011045D03*
X018628Y010789D03*
X019278Y011104D03*
X019612Y011557D03*
X020400Y011694D03*
X020400Y012860D03*
X020026Y013139D03*
X019790Y013537D03*
X019514Y013911D03*
X019238Y014269D03*
X018372Y014057D03*
X018175Y014903D03*
X018097Y015415D03*
X018884Y015513D03*
X018923Y016222D03*
X017044Y017407D03*
X016256Y017456D03*
X015794Y017088D03*
X015469Y016472D03*
X015046Y016065D03*
X015833Y015415D03*
X015439Y015159D03*
X014514Y014470D03*
X014386Y015173D03*
X013510Y014234D03*
X012979Y014647D03*
X012359Y014647D03*
X011935Y014943D03*
X011807Y013657D03*
X012549Y012628D03*
X013431Y011832D03*
X014238Y011970D03*
X014455Y013269D03*
X015935Y013356D03*
X016805Y013608D03*
X014684Y016903D03*
X013530Y017206D03*
X012467Y017285D03*
X011347Y019496D03*
X011393Y019979D03*
X012752Y021059D03*
X011453Y021836D03*
X014696Y020356D03*
X015746Y019666D03*
X015543Y018615D03*
X016443Y018614D03*
X017309Y018614D03*
X018089Y018638D03*
X021384Y019691D03*
X022398Y018598D03*
X022799Y017444D03*
X021925Y017378D03*
X021971Y015285D03*
X021286Y015159D03*
X021561Y014450D03*
X021278Y013734D03*
X023254Y014234D03*
X024160Y019454D03*
X022418Y020960D03*
X022417Y022015D03*
X024323Y021976D03*
X012014Y010080D03*
X011364Y009746D03*
X010951Y009313D03*
X009888Y009017D03*
X009888Y009864D03*
X009215Y010450D03*
X008323Y011462D03*
X007841Y012584D03*
X009849Y014155D03*
X009957Y016836D03*
X008826Y016813D03*
X006906Y018086D03*
X005272Y018352D03*
X004140Y017659D03*
X001197Y018876D03*
X001201Y021161D03*
X000990Y015842D03*
X001040Y012348D03*
X006601Y010084D03*
X007565Y008559D03*
X010321Y011242D03*
X012329Y008919D03*
X012723Y008584D03*
X014179Y009037D03*
X015341Y004250D03*
X013410Y003067D03*
X011573Y003391D03*
X009797Y004120D03*
X008776Y005084D03*
X005187Y003714D03*
X004878Y004966D03*
X003175Y005907D03*
X003796Y006738D03*
X001876Y006147D03*
X001335Y004746D03*
X001323Y002273D03*
X006164Y000832D03*
X020397Y007975D03*
D14*
X017313Y007612D03*
X017388Y006675D03*
X023845Y006665D03*
X023175Y015257D03*
X024085Y017974D03*
X010774Y006990D03*
X004589Y008824D03*
D15*
X005479Y010100D02*
X005479Y011813D01*
X005479Y014392D01*
X007900Y016813D01*
X008826Y016813D01*
X003175Y012620D02*
X003175Y005907D01*
X006896Y006498D02*
X006896Y004352D01*
X007368Y003880D01*
X009069Y003880D01*
X009888Y003061D01*
X009888Y000801D01*
X009884Y000797D01*
X010971Y005317D02*
X016916Y005317D01*
X017388Y005789D01*
X017388Y006675D01*
X010971Y005317D02*
X010774Y005513D01*
X010774Y006990D01*
X006916Y006990D01*
X006896Y007009D01*
X006896Y006498D01*
X006916Y006517D01*
X006896Y007009D02*
X006896Y008683D01*
X005479Y010100D01*
X003175Y012620D02*
X001963Y013710D01*
D16*
X000709Y023374D02*
X000709Y000330D01*
X007677Y000330D01*
X007617Y000361D01*
X007552Y000408D01*
X007495Y000465D01*
X007448Y000530D01*
X007411Y000601D01*
X007387Y000677D01*
X007374Y000757D01*
X007374Y000778D01*
X007866Y000778D01*
X007866Y000815D01*
X007374Y000815D01*
X007374Y000837D01*
X007387Y000916D01*
X007411Y000993D01*
X007448Y001064D01*
X007495Y001129D01*
X007552Y001186D01*
X007617Y001233D01*
X007688Y001269D01*
X007765Y001294D01*
X007844Y001307D01*
X007866Y001307D01*
X007866Y000815D01*
X007903Y000815D01*
X008394Y000815D01*
X008394Y000837D01*
X008382Y000916D01*
X008357Y000993D01*
X008320Y001064D01*
X008273Y001129D01*
X008216Y001186D01*
X008151Y001233D01*
X008080Y001269D01*
X008004Y001294D01*
X007924Y001307D01*
X007903Y001307D01*
X007903Y000815D01*
X007903Y000778D01*
X008394Y000778D01*
X008394Y000757D01*
X008382Y000677D01*
X008357Y000601D01*
X008320Y000530D01*
X008273Y000465D01*
X008216Y000408D01*
X008151Y000361D01*
X008091Y000330D01*
X008783Y000330D01*
X008618Y000398D01*
X008486Y000531D01*
X008414Y000703D01*
X008414Y000890D01*
X008486Y001063D01*
X008618Y001195D01*
X008791Y001267D01*
X008978Y001267D01*
X009150Y001195D01*
X009283Y001063D01*
X009354Y000890D01*
X009354Y000703D01*
X009283Y000531D01*
X009150Y000398D01*
X008985Y000330D01*
X009783Y000330D01*
X009618Y000398D01*
X009486Y000531D01*
X009414Y000703D01*
X009414Y000890D01*
X009486Y001063D01*
X009588Y001165D01*
X009588Y002936D01*
X008945Y003580D01*
X007309Y003580D01*
X007198Y003625D01*
X007114Y003710D01*
X006642Y004182D01*
X006596Y004292D01*
X006596Y008558D01*
X005309Y009845D01*
X005309Y009845D01*
X005225Y009930D01*
X005179Y010040D01*
X005179Y014451D01*
X005225Y014562D01*
X007646Y016983D01*
X007730Y017067D01*
X007840Y017113D01*
X008886Y017113D01*
X008996Y017067D01*
X009081Y016983D01*
X009126Y016872D01*
X009126Y016753D01*
X009081Y016643D01*
X008996Y016558D01*
X008886Y016513D01*
X008024Y016513D01*
X005779Y014267D01*
X005779Y012052D01*
X013227Y012052D01*
X013261Y012087D01*
X013347Y012122D01*
X013026Y012443D01*
X013026Y013506D01*
X012743Y013789D01*
X011129Y013789D01*
X010774Y014143D01*
X010663Y014254D01*
X010663Y018576D01*
X010663Y018576D01*
X010663Y019517D01*
X011093Y019947D01*
X011093Y020038D01*
X011138Y020149D01*
X011223Y020233D01*
X011333Y020279D01*
X011452Y020279D01*
X011500Y020259D01*
X011431Y020327D01*
X011353Y020327D01*
X011349Y020323D01*
X009239Y020323D01*
X009160Y020323D01*
X009160Y020323D01*
X009160Y020323D01*
X009104Y020379D01*
X007047Y022422D01*
X006970Y022390D01*
X006783Y022390D01*
X006610Y022461D01*
X006478Y022594D01*
X006406Y022766D01*
X006406Y022953D01*
X006478Y023126D01*
X006610Y023258D01*
X006783Y023330D01*
X006970Y023330D01*
X007142Y023258D01*
X007275Y023126D01*
X007346Y022953D01*
X007346Y022766D01*
X007315Y022692D01*
X009317Y020703D01*
X009779Y020703D01*
X008048Y022422D01*
X007970Y022390D01*
X007783Y022390D01*
X007610Y022461D01*
X007478Y022594D01*
X007406Y022766D01*
X007406Y022953D01*
X007478Y023126D01*
X007610Y023258D01*
X007783Y023330D01*
X007970Y023330D01*
X008142Y023258D01*
X008275Y023126D01*
X008346Y022953D01*
X008346Y022766D01*
X008315Y022692D01*
X010077Y020944D01*
X010514Y020944D01*
X009033Y022408D01*
X008955Y022376D01*
X008768Y022376D01*
X008595Y022447D01*
X008463Y022580D01*
X008391Y022752D01*
X008391Y022939D01*
X008463Y023112D01*
X008595Y023244D01*
X008768Y023316D01*
X008955Y023316D01*
X009127Y023244D01*
X009259Y023112D01*
X009331Y022939D01*
X009331Y022752D01*
X009300Y022679D01*
X010728Y021266D01*
X011191Y021266D01*
X010034Y022409D01*
X009955Y022376D01*
X009768Y022376D01*
X009595Y022447D01*
X009463Y022580D01*
X009391Y022752D01*
X009391Y022939D01*
X009463Y023112D01*
X009595Y023244D01*
X009768Y023316D01*
X009955Y023316D01*
X010127Y023244D01*
X010259Y023112D01*
X010331Y022939D01*
X010331Y022752D01*
X010301Y022679D01*
X011433Y021562D01*
X013018Y021562D01*
X013129Y021450D01*
X013129Y021449D01*
X013719Y020859D01*
X013719Y019097D01*
X013720Y019096D01*
X013720Y017441D01*
X013784Y017376D01*
X013830Y017266D01*
X013830Y017147D01*
X013784Y017036D01*
X013700Y016952D01*
X013589Y016906D01*
X013470Y016906D01*
X013360Y016952D01*
X013275Y017036D01*
X013230Y017147D01*
X013230Y017266D01*
X013275Y017376D01*
X013340Y017441D01*
X013340Y019096D01*
X013341Y019097D01*
X013341Y020703D01*
X012862Y021182D01*
X012418Y021182D01*
X012444Y021155D01*
X012444Y021154D01*
X012656Y020942D01*
X012656Y018821D01*
X012657Y018820D01*
X012657Y017519D01*
X012721Y017455D01*
X012767Y017345D01*
X012767Y017225D01*
X012721Y017115D01*
X012637Y017031D01*
X012526Y016985D01*
X012407Y016985D01*
X012297Y017031D01*
X012224Y017104D01*
X012224Y017088D01*
X013372Y015940D01*
X014773Y015940D01*
X014746Y016005D01*
X014746Y016124D01*
X014791Y016235D01*
X014856Y016300D01*
X014856Y016651D01*
X014854Y016649D01*
X014744Y016603D01*
X014624Y016603D01*
X014514Y016649D01*
X014430Y016733D01*
X014384Y016843D01*
X014384Y016963D01*
X014430Y017073D01*
X014495Y017138D01*
X014495Y020133D01*
X014441Y020186D01*
X014396Y020296D01*
X014396Y020416D01*
X014441Y020526D01*
X014526Y020610D01*
X014636Y020656D01*
X014756Y020656D01*
X014866Y020610D01*
X014950Y020526D01*
X014996Y020416D01*
X014996Y020296D01*
X014950Y020186D01*
X014873Y020109D01*
X014873Y019572D01*
X015060Y019759D01*
X015171Y019870D01*
X015525Y019870D01*
X015576Y019920D01*
X015686Y019966D01*
X015805Y019966D01*
X015915Y019920D01*
X016000Y019836D01*
X016046Y019725D01*
X016046Y019606D01*
X016000Y019496D01*
X015915Y019411D01*
X015805Y019366D01*
X015686Y019366D01*
X015576Y019411D01*
X015496Y019491D01*
X015327Y019491D01*
X015235Y019399D01*
X015235Y016300D01*
X015300Y016235D01*
X015346Y016124D01*
X015346Y016005D01*
X015318Y015940D01*
X015538Y015940D01*
X015649Y015828D01*
X015754Y015723D01*
X015794Y015723D01*
X015802Y015715D01*
X015893Y015715D01*
X016003Y015669D01*
X016087Y015585D01*
X016133Y015475D01*
X016133Y015355D01*
X016087Y015245D01*
X016003Y015161D01*
X015893Y015115D01*
X015773Y015115D01*
X015739Y015129D01*
X015739Y015099D01*
X015694Y014989D01*
X015609Y014905D01*
X015499Y014859D01*
X015380Y014859D01*
X015269Y014905D01*
X015185Y014989D01*
X015139Y015099D01*
X015139Y015210D01*
X015065Y015284D01*
X013097Y015284D01*
X011719Y016662D01*
X011708Y016673D01*
X011708Y015140D01*
X011765Y015197D01*
X011876Y015243D01*
X011995Y015243D01*
X012105Y015197D01*
X012170Y015132D01*
X014120Y015132D01*
X014231Y015021D01*
X014310Y014942D01*
X014310Y014690D01*
X014344Y014724D01*
X014454Y014770D01*
X014574Y014770D01*
X014684Y014724D01*
X014749Y014659D01*
X015438Y014659D01*
X015439Y014660D01*
X015597Y014660D01*
X016530Y013727D01*
X016551Y013778D01*
X016615Y013842D01*
X016615Y014419D01*
X016975Y014779D01*
X016949Y014768D01*
X016835Y014768D01*
X016728Y014812D01*
X016647Y014893D01*
X016603Y014999D01*
X016603Y015114D01*
X016647Y015220D01*
X016706Y015279D01*
X016706Y015395D01*
X016817Y015507D01*
X017375Y016065D01*
X017375Y017561D01*
X016702Y018234D01*
X016702Y018454D01*
X016697Y018444D01*
X016613Y018359D01*
X016503Y018314D01*
X016383Y018314D01*
X016273Y018359D01*
X016189Y018444D01*
X016143Y018554D01*
X016143Y018673D01*
X016189Y018783D01*
X015798Y018783D01*
X015798Y018785D02*
X015713Y018870D01*
X015603Y018915D01*
X015484Y018915D01*
X015373Y018870D01*
X015289Y018785D01*
X015243Y018675D01*
X015243Y018556D01*
X015289Y018445D01*
X015373Y018361D01*
X015484Y018315D01*
X015576Y018315D01*
X015604Y018287D01*
X015604Y017323D01*
X015539Y017258D01*
X015494Y017148D01*
X015494Y017029D01*
X015539Y016918D01*
X015624Y016834D01*
X015734Y016788D01*
X015853Y016788D01*
X015963Y016834D01*
X016048Y016918D01*
X016094Y017029D01*
X016094Y017148D01*
X016048Y017258D01*
X015983Y017323D01*
X015983Y018443D01*
X015843Y018583D01*
X015843Y018675D01*
X015798Y018785D01*
X015843Y018625D02*
X016143Y018625D01*
X016179Y018466D02*
X015960Y018466D01*
X015983Y018308D02*
X016702Y018308D01*
X016787Y018149D02*
X015983Y018149D01*
X015983Y017991D02*
X016945Y017991D01*
X017104Y017832D02*
X015983Y017832D01*
X015983Y017674D02*
X017262Y017674D01*
X017375Y017515D02*
X015983Y017515D01*
X015983Y017357D02*
X017375Y017357D01*
X017375Y017198D02*
X016073Y017198D01*
X016094Y017040D02*
X017375Y017040D01*
X017375Y016881D02*
X016011Y016881D01*
X015576Y016881D02*
X015235Y016881D01*
X015235Y016723D02*
X017375Y016723D01*
X017375Y016564D02*
X015235Y016564D01*
X015235Y016406D02*
X017375Y016406D01*
X017375Y016247D02*
X015287Y016247D01*
X015346Y016089D02*
X017375Y016089D01*
X017241Y015930D02*
X015547Y015930D01*
X015705Y015772D02*
X017083Y015772D01*
X016924Y015613D02*
X016059Y015613D01*
X016133Y015455D02*
X016766Y015455D01*
X016706Y015296D02*
X016108Y015296D01*
X015948Y015138D02*
X016613Y015138D01*
X016611Y014979D02*
X015684Y014979D01*
X015753Y014504D02*
X016700Y014504D01*
X016615Y014345D02*
X015911Y014345D01*
X016070Y014187D02*
X016615Y014187D01*
X016615Y014028D02*
X016228Y014028D01*
X016387Y013870D02*
X016615Y013870D01*
X016859Y014662D02*
X014746Y014662D01*
X014310Y014821D02*
X016719Y014821D01*
X015195Y014979D02*
X014272Y014979D01*
X015139Y015138D02*
X012164Y015138D01*
X012170Y014753D02*
X012698Y014753D01*
X012679Y014707D01*
X012679Y014588D01*
X012722Y014482D01*
X011827Y014482D01*
X011708Y014601D01*
X011708Y014745D01*
X011765Y014688D01*
X011876Y014643D01*
X011995Y014643D01*
X012105Y014688D01*
X012170Y014753D01*
X012043Y014662D02*
X012679Y014662D01*
X012713Y014504D02*
X011806Y014504D01*
X011828Y014662D02*
X011708Y014662D01*
X011708Y015296D02*
X013084Y015296D01*
X012926Y015455D02*
X011708Y015455D01*
X011708Y015613D02*
X012767Y015613D01*
X012609Y015772D02*
X011708Y015772D01*
X011708Y015930D02*
X012450Y015930D01*
X012292Y016089D02*
X011708Y016089D01*
X011708Y016247D02*
X012133Y016247D01*
X011975Y016406D02*
X011708Y016406D01*
X011708Y016564D02*
X011816Y016564D01*
X012272Y017040D02*
X012288Y017040D01*
X012431Y016881D02*
X014384Y016881D01*
X014416Y017040D02*
X013786Y017040D01*
X013830Y017198D02*
X014495Y017198D01*
X014495Y017357D02*
X013792Y017357D01*
X013720Y017515D02*
X014495Y017515D01*
X014495Y017674D02*
X013720Y017674D01*
X013720Y017832D02*
X014495Y017832D01*
X014495Y017991D02*
X013720Y017991D01*
X013720Y018149D02*
X014495Y018149D01*
X014495Y018308D02*
X013720Y018308D01*
X013720Y018466D02*
X014495Y018466D01*
X014495Y018625D02*
X013720Y018625D01*
X013720Y018783D02*
X014495Y018783D01*
X014495Y018942D02*
X013720Y018942D01*
X013719Y019100D02*
X014495Y019100D01*
X014495Y019259D02*
X013719Y019259D01*
X013719Y019417D02*
X014495Y019417D01*
X014495Y019576D02*
X013719Y019576D01*
X013719Y019734D02*
X014495Y019734D01*
X014495Y019893D02*
X013719Y019893D01*
X013719Y020051D02*
X014495Y020051D01*
X014432Y020210D02*
X013719Y020210D01*
X013719Y020368D02*
X014396Y020368D01*
X014443Y020527D02*
X013719Y020527D01*
X013719Y020685D02*
X015845Y020685D01*
X016004Y020527D02*
X014949Y020527D01*
X014996Y020368D02*
X016162Y020368D01*
X016253Y020277D02*
X016253Y018848D01*
X016189Y018783D01*
X016253Y018942D02*
X015235Y018942D01*
X015235Y019100D02*
X016253Y019100D01*
X016253Y019259D02*
X015235Y019259D01*
X015254Y019417D02*
X015570Y019417D01*
X015921Y019417D02*
X016253Y019417D01*
X016253Y019576D02*
X016033Y019576D01*
X016042Y019734D02*
X016253Y019734D01*
X016253Y019893D02*
X015943Y019893D01*
X015548Y019893D02*
X014873Y019893D01*
X014873Y020051D02*
X016253Y020051D01*
X016253Y020210D02*
X014960Y020210D01*
X015035Y019734D02*
X014873Y019734D01*
X014873Y019576D02*
X014877Y019576D01*
X015235Y018783D02*
X015288Y018783D01*
X015243Y018625D02*
X015235Y018625D01*
X015235Y018466D02*
X015280Y018466D01*
X015235Y018308D02*
X015583Y018308D01*
X015604Y018149D02*
X015235Y018149D01*
X015235Y017991D02*
X015604Y017991D01*
X015604Y017832D02*
X015235Y017832D01*
X015235Y017674D02*
X015604Y017674D01*
X015604Y017515D02*
X015235Y017515D01*
X015235Y017357D02*
X015604Y017357D01*
X015514Y017198D02*
X015235Y017198D01*
X015235Y017040D02*
X015494Y017040D01*
X014856Y016564D02*
X012748Y016564D01*
X012906Y016406D02*
X014856Y016406D01*
X014804Y016247D02*
X013065Y016247D01*
X013223Y016089D02*
X014746Y016089D01*
X014440Y016723D02*
X012589Y016723D01*
X012646Y017040D02*
X013274Y017040D01*
X013230Y017198D02*
X012756Y017198D01*
X012762Y017357D02*
X013267Y017357D01*
X013340Y017515D02*
X012661Y017515D01*
X012657Y017674D02*
X013340Y017674D01*
X013340Y017832D02*
X012657Y017832D01*
X012657Y017991D02*
X013340Y017991D01*
X013340Y018149D02*
X012657Y018149D01*
X012657Y018308D02*
X013340Y018308D01*
X013340Y018466D02*
X012657Y018466D01*
X012657Y018625D02*
X013340Y018625D01*
X013340Y018783D02*
X012657Y018783D01*
X012656Y018942D02*
X013340Y018942D01*
X013341Y019100D02*
X012656Y019100D01*
X012656Y019259D02*
X013341Y019259D01*
X013341Y019417D02*
X012656Y019417D01*
X012656Y019576D02*
X013341Y019576D01*
X013341Y019734D02*
X012656Y019734D01*
X012656Y019893D02*
X013341Y019893D01*
X013341Y020051D02*
X012656Y020051D01*
X012656Y020210D02*
X013341Y020210D01*
X013341Y020368D02*
X012656Y020368D01*
X012656Y020527D02*
X013341Y020527D01*
X013341Y020685D02*
X012656Y020685D01*
X012656Y020844D02*
X013199Y020844D01*
X013041Y021002D02*
X012596Y021002D01*
X012438Y021161D02*
X012882Y021161D01*
X013102Y021478D02*
X015053Y021478D01*
X014986Y021544D02*
X016253Y020277D01*
X016737Y020685D02*
X016825Y020685D01*
X016895Y020527D02*
X018993Y020527D01*
X018960Y020560D02*
X019049Y020470D01*
X019049Y019751D01*
X018799Y020002D01*
X018687Y020113D01*
X017309Y020113D01*
X017198Y020002D01*
X017119Y019923D01*
X017119Y018848D01*
X017082Y018810D01*
X017082Y020340D01*
X015334Y022088D01*
X015223Y022199D01*
X014806Y022199D01*
X014328Y022677D01*
X014360Y022753D01*
X014360Y022940D01*
X014288Y023113D01*
X014156Y023245D01*
X013983Y023317D01*
X013796Y023317D01*
X013624Y023245D01*
X013491Y023113D01*
X013420Y022940D01*
X013420Y022753D01*
X013491Y022581D01*
X013624Y022448D01*
X013796Y022377D01*
X013983Y022377D01*
X014060Y022408D01*
X014544Y021924D01*
X014082Y021924D01*
X013328Y022677D01*
X013360Y022753D01*
X013360Y022940D01*
X013288Y023113D01*
X013156Y023245D01*
X012983Y023317D01*
X012796Y023317D01*
X012624Y023245D01*
X012491Y023113D01*
X012420Y022940D01*
X012420Y022753D01*
X012491Y022581D01*
X012624Y022448D01*
X012796Y022377D01*
X012983Y022377D01*
X013060Y022408D01*
X013924Y021544D01*
X014986Y021544D01*
X015211Y021319D02*
X013259Y021319D01*
X013418Y021161D02*
X015370Y021161D01*
X015528Y021002D02*
X013576Y021002D01*
X013719Y020844D02*
X015687Y020844D01*
X016103Y021319D02*
X016191Y021319D01*
X016261Y021161D02*
X016350Y021161D01*
X016420Y021002D02*
X016508Y021002D01*
X016578Y020844D02*
X016667Y020844D01*
X016887Y021161D02*
X017350Y021161D01*
X017508Y021002D02*
X017046Y021002D01*
X017108Y020940D02*
X015342Y022706D01*
X015374Y022782D01*
X015374Y022969D01*
X015302Y023142D01*
X015170Y023274D01*
X014997Y023346D01*
X014810Y023346D01*
X014638Y023274D01*
X014505Y023142D01*
X014434Y022969D01*
X014434Y022782D01*
X014505Y022609D01*
X014638Y022477D01*
X014810Y022406D01*
X014997Y022406D01*
X015074Y022437D01*
X016951Y020560D01*
X018960Y020560D01*
X019049Y020368D02*
X017054Y020368D01*
X017082Y020210D02*
X019049Y020210D01*
X019049Y020051D02*
X018749Y020051D01*
X018799Y020002D02*
X018799Y020002D01*
X018907Y019893D02*
X019049Y019893D01*
X020334Y020775D02*
X020334Y021379D01*
X019940Y021773D01*
X019829Y021884D01*
X019164Y021884D01*
X018342Y022706D01*
X018374Y022782D01*
X018374Y022969D01*
X018302Y023142D01*
X018170Y023274D01*
X017997Y023346D01*
X017810Y023346D01*
X017638Y023274D01*
X017505Y023142D01*
X017434Y022969D01*
X017434Y022782D01*
X017505Y022609D01*
X017638Y022477D01*
X017810Y022406D01*
X017997Y022406D01*
X018074Y022437D01*
X018941Y021570D01*
X018479Y021570D01*
X017342Y022706D01*
X017374Y022782D01*
X017374Y022969D01*
X017302Y023142D01*
X017170Y023274D01*
X016997Y023346D01*
X016810Y023346D01*
X016638Y023274D01*
X016505Y023142D01*
X016434Y022969D01*
X016434Y022782D01*
X016505Y022609D01*
X016638Y022477D01*
X016810Y022406D01*
X016997Y022406D01*
X017074Y022437D01*
X018295Y021215D01*
X017833Y021215D01*
X016342Y022706D01*
X016374Y022782D01*
X016374Y022969D01*
X016302Y023142D01*
X016170Y023274D01*
X015997Y023346D01*
X015810Y023346D01*
X015638Y023274D01*
X015505Y023142D01*
X015434Y022969D01*
X015434Y022782D01*
X015505Y022609D01*
X015638Y022477D01*
X015810Y022406D01*
X015997Y022406D01*
X016074Y022437D01*
X017571Y020940D01*
X017108Y020940D01*
X017191Y021319D02*
X016729Y021319D01*
X016570Y021478D02*
X017033Y021478D01*
X016874Y021636D02*
X016412Y021636D01*
X016253Y021795D02*
X016716Y021795D01*
X016557Y021953D02*
X016095Y021953D01*
X015936Y022112D02*
X016399Y022112D01*
X016240Y022270D02*
X015778Y022270D01*
X015754Y022429D02*
X015619Y022429D01*
X015527Y022587D02*
X015461Y022587D01*
X015449Y022746D02*
X015359Y022746D01*
X015374Y022904D02*
X015434Y022904D01*
X015473Y023063D02*
X015335Y023063D01*
X015223Y023221D02*
X015585Y023221D01*
X016223Y023221D02*
X016585Y023221D01*
X016473Y023063D02*
X016335Y023063D01*
X016374Y022904D02*
X016434Y022904D01*
X016449Y022746D02*
X016359Y022746D01*
X016461Y022587D02*
X016527Y022587D01*
X016619Y022429D02*
X016754Y022429D01*
X016778Y022270D02*
X017240Y022270D01*
X017399Y022112D02*
X016936Y022112D01*
X017095Y021953D02*
X017557Y021953D01*
X017716Y021795D02*
X017253Y021795D01*
X017412Y021636D02*
X017874Y021636D01*
X018033Y021478D02*
X017570Y021478D01*
X017729Y021319D02*
X018191Y021319D01*
X018412Y021636D02*
X018874Y021636D01*
X018716Y021795D02*
X018253Y021795D01*
X018095Y021953D02*
X018557Y021953D01*
X018399Y022112D02*
X017936Y022112D01*
X017778Y022270D02*
X018240Y022270D01*
X018082Y022429D02*
X018053Y022429D01*
X017754Y022429D02*
X017619Y022429D01*
X017527Y022587D02*
X017461Y022587D01*
X017449Y022746D02*
X017359Y022746D01*
X017374Y022904D02*
X017434Y022904D01*
X017473Y023063D02*
X017335Y023063D01*
X017223Y023221D02*
X017585Y023221D01*
X018223Y023221D02*
X018577Y023221D01*
X018630Y023274D02*
X018497Y023142D01*
X018426Y022969D01*
X018426Y022782D01*
X018497Y022609D01*
X018630Y022477D01*
X018802Y022406D01*
X018989Y022406D01*
X019162Y022477D01*
X019294Y022609D01*
X019366Y022782D01*
X019366Y022969D01*
X019294Y023142D01*
X019162Y023274D01*
X018993Y023344D01*
X019796Y023343D01*
X019630Y023274D01*
X019497Y023142D01*
X019426Y022969D01*
X019426Y022782D01*
X019497Y022609D01*
X019630Y022477D01*
X019802Y022406D01*
X019989Y022406D01*
X020162Y022477D01*
X020294Y022609D01*
X020366Y022782D01*
X020366Y022969D01*
X020294Y023142D01*
X020162Y023274D01*
X019997Y023342D01*
X024619Y023335D01*
X024619Y016418D01*
X024598Y016469D01*
X024465Y016601D01*
X024293Y016672D01*
X024106Y016672D01*
X023933Y016601D01*
X023801Y016469D01*
X023729Y016296D01*
X023729Y016109D01*
X023801Y015936D01*
X023933Y015804D01*
X024106Y015732D01*
X024293Y015732D01*
X024465Y015804D01*
X024598Y015936D01*
X024619Y015987D01*
X024619Y000330D01*
X024048Y000330D01*
X024165Y000379D01*
X024298Y000511D01*
X024369Y000684D01*
X024369Y000871D01*
X024298Y001043D01*
X024165Y001176D01*
X024088Y001208D01*
X024088Y002447D01*
X023542Y002993D01*
X023542Y005789D01*
X022892Y006438D01*
X022892Y009572D01*
X022857Y009607D01*
X022948Y009607D01*
X023058Y009653D01*
X023142Y009737D01*
X023188Y009847D01*
X023188Y009967D01*
X023142Y010077D01*
X023069Y010150D01*
X023069Y010415D01*
X022959Y010525D01*
X022699Y010785D01*
X022699Y010867D01*
X022740Y010769D01*
X022824Y010684D01*
X022935Y010639D01*
X023054Y010639D01*
X023164Y010684D01*
X023249Y010769D01*
X023294Y010879D01*
X023294Y010998D01*
X023287Y011017D01*
X023495Y011017D01*
X023495Y011175D02*
X023404Y011175D01*
X023398Y011169D02*
X023443Y011215D01*
X023443Y011231D01*
X023453Y011244D01*
X023443Y011307D01*
X023443Y013999D01*
X023495Y014050D01*
X023495Y008296D01*
X023494Y008295D01*
X023495Y008229D01*
X023495Y008162D01*
X023495Y008161D01*
X023503Y006860D01*
X023455Y006743D01*
X023455Y006587D01*
X023514Y006444D01*
X023624Y006334D01*
X023767Y006275D01*
X023922Y006275D01*
X024066Y006334D01*
X024175Y006444D01*
X024235Y006587D01*
X024235Y006743D01*
X024183Y006866D01*
X024175Y008231D01*
X024175Y014616D01*
X024123Y014741D01*
X024027Y014837D01*
X023565Y015299D01*
X023565Y015335D01*
X023515Y015456D01*
X023515Y016923D01*
X024186Y017593D01*
X024306Y017643D01*
X024416Y017753D01*
X024475Y017896D01*
X024475Y018052D01*
X024416Y018195D01*
X024306Y018305D01*
X024163Y018364D01*
X024008Y018364D01*
X023865Y018305D01*
X023755Y018195D01*
X023705Y018074D01*
X022887Y017257D01*
X022835Y017132D01*
X022835Y015456D01*
X022785Y015335D01*
X022785Y015180D01*
X022814Y015111D01*
X022451Y015474D01*
X022206Y015474D01*
X022141Y015539D01*
X022030Y015585D01*
X021911Y015585D01*
X021813Y015545D01*
X021813Y015568D01*
X021786Y015596D01*
X021786Y015604D01*
X021675Y015714D01*
X021581Y015808D01*
X021581Y018560D01*
X021573Y018568D01*
X021573Y019455D01*
X021638Y019521D01*
X021684Y019631D01*
X021684Y019750D01*
X021638Y019860D01*
X021554Y019945D01*
X021444Y019991D01*
X021324Y019991D01*
X021214Y019945D01*
X021140Y019871D01*
X021140Y020124D01*
X022327Y021311D01*
X022687Y021311D01*
X023088Y021712D01*
X023088Y022426D01*
X023154Y022454D01*
X023286Y022586D01*
X023358Y022758D01*
X023358Y022945D01*
X023286Y023118D01*
X023154Y023250D01*
X022982Y023322D01*
X022795Y023322D01*
X022622Y023250D01*
X022490Y023118D01*
X022418Y022945D01*
X022418Y022758D01*
X022490Y022586D01*
X022622Y022454D01*
X022710Y022417D01*
X022710Y022092D01*
X022671Y022185D01*
X022587Y022269D01*
X022477Y022315D01*
X022357Y022315D01*
X022247Y022269D01*
X022163Y022185D01*
X022117Y022074D01*
X022117Y021982D01*
X020699Y020565D01*
X020696Y020565D01*
X020631Y020500D01*
X020590Y020459D01*
X020590Y020494D01*
X022066Y021970D01*
X022066Y022417D01*
X022154Y022454D01*
X022286Y022586D01*
X022358Y022758D01*
X022358Y022945D01*
X022286Y023118D01*
X022154Y023250D01*
X021982Y023322D01*
X021795Y023322D01*
X021622Y023250D01*
X021490Y023118D01*
X021418Y022945D01*
X021418Y022758D01*
X021490Y022586D01*
X021622Y022454D01*
X021686Y022427D01*
X021686Y022128D01*
X020334Y020775D01*
X020334Y020844D02*
X020403Y020844D01*
X020334Y021002D02*
X020561Y021002D01*
X020720Y021161D02*
X020334Y021161D01*
X020334Y021319D02*
X020878Y021319D01*
X021037Y021478D02*
X020236Y021478D01*
X020077Y021636D02*
X021195Y021636D01*
X021354Y021795D02*
X019919Y021795D01*
X020046Y022429D02*
X020681Y022429D01*
X020622Y022454D02*
X020795Y022382D01*
X020982Y022382D01*
X021154Y022454D01*
X021286Y022586D01*
X021358Y022758D01*
X021358Y022945D01*
X021286Y023118D01*
X021154Y023250D01*
X020982Y023322D01*
X020795Y023322D01*
X020622Y023250D01*
X020490Y023118D01*
X020418Y022945D01*
X020418Y022758D01*
X020490Y022586D01*
X020622Y022454D01*
X020489Y022587D02*
X020272Y022587D01*
X020351Y022746D02*
X020423Y022746D01*
X020418Y022904D02*
X020366Y022904D01*
X020327Y023063D02*
X020467Y023063D01*
X020593Y023221D02*
X020215Y023221D01*
X019577Y023221D02*
X019215Y023221D01*
X019327Y023063D02*
X019465Y023063D01*
X019426Y022904D02*
X019366Y022904D01*
X019351Y022746D02*
X019441Y022746D01*
X019519Y022587D02*
X019272Y022587D01*
X019046Y022429D02*
X019746Y022429D01*
X019095Y021953D02*
X021512Y021953D01*
X021671Y022112D02*
X018936Y022112D01*
X018778Y022270D02*
X021686Y022270D01*
X021681Y022429D02*
X021095Y022429D01*
X021287Y022587D02*
X021489Y022587D01*
X021423Y022746D02*
X021353Y022746D01*
X021358Y022904D02*
X021418Y022904D01*
X021467Y023063D02*
X021309Y023063D01*
X021183Y023221D02*
X021593Y023221D01*
X022183Y023221D02*
X022593Y023221D01*
X022467Y023063D02*
X022309Y023063D01*
X022358Y022904D02*
X022418Y022904D01*
X022423Y022746D02*
X022353Y022746D01*
X022287Y022587D02*
X022489Y022587D01*
X022681Y022429D02*
X022095Y022429D01*
X022066Y022270D02*
X022250Y022270D01*
X022132Y022112D02*
X022066Y022112D01*
X022049Y021953D02*
X022088Y021953D01*
X021930Y021795D02*
X021891Y021795D01*
X021771Y021636D02*
X021732Y021636D01*
X021613Y021478D02*
X021574Y021478D01*
X021454Y021319D02*
X021415Y021319D01*
X021296Y021161D02*
X021257Y021161D01*
X021137Y021002D02*
X021098Y021002D01*
X020979Y020844D02*
X020940Y020844D01*
X020820Y020685D02*
X020781Y020685D01*
X020658Y020527D02*
X020623Y020527D01*
X021140Y020051D02*
X024619Y020051D01*
X024619Y019893D02*
X021606Y019893D01*
X021684Y019734D02*
X024619Y019734D01*
X024619Y019576D02*
X021661Y019576D01*
X021573Y019417D02*
X024619Y019417D01*
X024619Y019259D02*
X021573Y019259D01*
X021573Y019100D02*
X024619Y019100D01*
X024619Y018942D02*
X021573Y018942D01*
X021573Y018783D02*
X024619Y018783D01*
X024619Y018625D02*
X021573Y018625D01*
X021581Y018466D02*
X024619Y018466D01*
X024619Y018308D02*
X024299Y018308D01*
X024435Y018149D02*
X024619Y018149D01*
X024619Y017991D02*
X024475Y017991D01*
X024449Y017832D02*
X024619Y017832D01*
X024619Y017674D02*
X024337Y017674D01*
X024108Y017515D02*
X024619Y017515D01*
X024619Y017357D02*
X023949Y017357D01*
X023791Y017198D02*
X024619Y017198D01*
X024619Y017040D02*
X023632Y017040D01*
X023515Y016881D02*
X024619Y016881D01*
X024619Y016723D02*
X023515Y016723D01*
X023515Y016564D02*
X023896Y016564D01*
X023775Y016406D02*
X023515Y016406D01*
X023515Y016247D02*
X023729Y016247D01*
X023737Y016089D02*
X023515Y016089D01*
X023515Y015930D02*
X023806Y015930D01*
X024010Y015772D02*
X023515Y015772D01*
X023515Y015613D02*
X024619Y015613D01*
X024619Y015455D02*
X023516Y015455D01*
X023568Y015296D02*
X024619Y015296D01*
X024619Y015138D02*
X023727Y015138D01*
X023885Y014979D02*
X024619Y014979D01*
X024619Y014821D02*
X024044Y014821D01*
X024156Y014662D02*
X024619Y014662D01*
X024619Y014504D02*
X024175Y014504D01*
X024175Y014345D02*
X024619Y014345D01*
X024619Y014187D02*
X024175Y014187D01*
X024175Y014028D02*
X024619Y014028D01*
X024619Y013870D02*
X024175Y013870D01*
X024175Y013711D02*
X024619Y013711D01*
X024619Y013553D02*
X024175Y013553D01*
X024175Y013394D02*
X024619Y013394D01*
X024619Y013236D02*
X024175Y013236D01*
X024175Y013077D02*
X024619Y013077D01*
X024619Y012919D02*
X024175Y012919D01*
X024175Y012760D02*
X024619Y012760D01*
X024619Y012602D02*
X024175Y012602D01*
X024175Y012443D02*
X024619Y012443D01*
X024619Y012285D02*
X024175Y012285D01*
X024175Y012126D02*
X024619Y012126D01*
X024619Y011968D02*
X024175Y011968D01*
X024175Y011809D02*
X024619Y011809D01*
X024619Y011651D02*
X024175Y011651D01*
X024175Y011492D02*
X024619Y011492D01*
X024619Y011334D02*
X024175Y011334D01*
X024175Y011175D02*
X024619Y011175D01*
X024619Y011017D02*
X024175Y011017D01*
X024175Y010858D02*
X024619Y010858D01*
X024619Y010700D02*
X024175Y010700D01*
X024175Y010541D02*
X024619Y010541D01*
X024619Y010383D02*
X024175Y010383D01*
X024175Y010224D02*
X024619Y010224D01*
X024619Y010066D02*
X024175Y010066D01*
X024175Y009907D02*
X024619Y009907D01*
X024619Y009749D02*
X024175Y009749D01*
X024175Y009590D02*
X024619Y009590D01*
X024619Y009432D02*
X024175Y009432D01*
X024175Y009273D02*
X024619Y009273D01*
X024619Y009115D02*
X024175Y009115D01*
X024175Y008956D02*
X024619Y008956D01*
X024619Y008798D02*
X024175Y008798D01*
X024175Y008639D02*
X024619Y008639D01*
X024619Y008481D02*
X024175Y008481D01*
X024175Y008322D02*
X024619Y008322D01*
X024619Y008164D02*
X024175Y008164D01*
X024176Y008005D02*
X024619Y008005D01*
X024619Y007847D02*
X024177Y007847D01*
X024178Y007688D02*
X024619Y007688D01*
X024619Y007530D02*
X024179Y007530D01*
X024180Y007371D02*
X024619Y007371D01*
X024619Y007213D02*
X024181Y007213D01*
X024182Y007054D02*
X024619Y007054D01*
X024619Y006896D02*
X024183Y006896D01*
X024235Y006737D02*
X024619Y006737D01*
X024619Y006579D02*
X024231Y006579D01*
X024152Y006420D02*
X024619Y006420D01*
X024619Y006262D02*
X023069Y006262D01*
X023227Y006103D02*
X024619Y006103D01*
X024619Y005945D02*
X023386Y005945D01*
X023542Y005786D02*
X024619Y005786D01*
X024619Y005628D02*
X023542Y005628D01*
X023542Y005469D02*
X024619Y005469D01*
X024619Y005311D02*
X023542Y005311D01*
X023542Y005152D02*
X024619Y005152D01*
X024619Y004994D02*
X023542Y004994D01*
X023542Y004835D02*
X024619Y004835D01*
X024619Y004677D02*
X023542Y004677D01*
X023542Y004518D02*
X024619Y004518D01*
X024619Y004360D02*
X023542Y004360D01*
X023542Y004201D02*
X024619Y004201D01*
X024619Y004043D02*
X023542Y004043D01*
X023542Y003884D02*
X024619Y003884D01*
X024619Y003726D02*
X023542Y003726D01*
X023542Y003567D02*
X024619Y003567D01*
X024619Y003409D02*
X023542Y003409D01*
X023542Y003250D02*
X024619Y003250D01*
X024619Y003092D02*
X023542Y003092D01*
X023602Y002933D02*
X024619Y002933D01*
X024619Y002775D02*
X023760Y002775D01*
X023919Y002616D02*
X024619Y002616D01*
X024619Y002458D02*
X024077Y002458D01*
X024088Y002299D02*
X024619Y002299D01*
X024619Y002141D02*
X024088Y002141D01*
X024088Y001982D02*
X024619Y001982D01*
X024619Y001824D02*
X024088Y001824D01*
X024088Y001665D02*
X024619Y001665D01*
X024619Y001507D02*
X024088Y001507D01*
X024088Y001348D02*
X024619Y001348D01*
X024619Y001190D02*
X024131Y001190D01*
X024303Y001031D02*
X024619Y001031D01*
X024619Y000873D02*
X024368Y000873D01*
X024369Y000714D02*
X024619Y000714D01*
X024619Y000556D02*
X024316Y000556D01*
X024184Y000397D02*
X024619Y000397D01*
X021337Y003726D02*
X014786Y003726D01*
X014628Y003567D02*
X021178Y003567D01*
X021020Y003409D02*
X014469Y003409D01*
X014311Y003250D02*
X020861Y003250D01*
X020703Y003092D02*
X014152Y003092D01*
X014086Y003025D02*
X015113Y004053D01*
X015171Y003995D01*
X015281Y003950D01*
X015400Y003950D01*
X015511Y003995D01*
X015595Y004080D01*
X015641Y004190D01*
X015641Y004309D01*
X015595Y004420D01*
X015511Y004504D01*
X015400Y004550D01*
X015281Y004550D01*
X015171Y004504D01*
X015100Y004434D01*
X015031Y004432D01*
X014955Y004432D01*
X014953Y004430D01*
X014950Y004430D01*
X014898Y004374D01*
X013817Y003294D01*
X013706Y003183D01*
X013706Y001244D01*
X013610Y001204D01*
X013473Y001067D01*
X013398Y000886D01*
X013398Y000692D01*
X013473Y000511D01*
X013610Y000374D01*
X013716Y000330D01*
X013060Y000330D01*
X013166Y000374D01*
X013303Y000511D01*
X013378Y000692D01*
X013378Y000886D01*
X013303Y001067D01*
X013166Y001204D01*
X012985Y001279D01*
X012791Y001279D01*
X012610Y001204D01*
X012473Y001067D01*
X012398Y000886D01*
X012398Y000692D01*
X012473Y000511D01*
X012610Y000374D01*
X012716Y000330D01*
X012060Y000330D01*
X012166Y000374D01*
X012303Y000511D01*
X012378Y000692D01*
X012378Y000886D01*
X012303Y001067D01*
X012166Y001204D01*
X011985Y001279D01*
X011791Y001279D01*
X011610Y001204D01*
X011473Y001067D01*
X011398Y000886D01*
X011398Y000692D01*
X011473Y000511D01*
X011610Y000374D01*
X011716Y000330D01*
X011060Y000330D01*
X011166Y000374D01*
X011303Y000511D01*
X011378Y000692D01*
X011378Y000886D01*
X011303Y001067D01*
X011166Y001204D01*
X010985Y001279D01*
X010791Y001279D01*
X010610Y001204D01*
X010473Y001067D01*
X010398Y000886D01*
X010398Y000692D01*
X010473Y000511D01*
X010610Y000374D01*
X010716Y000330D01*
X009985Y000330D01*
X010150Y000398D01*
X010283Y000531D01*
X010354Y000703D01*
X010354Y000890D01*
X010283Y001063D01*
X010188Y001158D01*
X010188Y003120D01*
X010142Y003231D01*
X010058Y003315D01*
X009239Y004134D01*
X009129Y004180D01*
X007493Y004180D01*
X007196Y004476D01*
X007196Y006410D01*
X007216Y006458D01*
X007216Y006577D01*
X007196Y006625D01*
X007196Y006690D01*
X010474Y006690D01*
X010474Y005454D01*
X010520Y005343D01*
X010716Y005147D01*
X010801Y005062D01*
X010911Y005017D01*
X016975Y005017D01*
X017086Y005062D01*
X017170Y005147D01*
X017642Y005619D01*
X017688Y005729D01*
X017688Y006423D01*
X017719Y006454D01*
X017778Y006597D01*
X017778Y006752D01*
X017719Y006896D01*
X017609Y007005D01*
X017466Y007065D01*
X017310Y007065D01*
X017167Y007005D01*
X017057Y006896D01*
X016998Y006752D01*
X016998Y006597D01*
X017057Y006454D01*
X017088Y006423D01*
X017088Y005913D01*
X016791Y005617D01*
X011095Y005617D01*
X011074Y005638D01*
X011074Y006738D01*
X011104Y006769D01*
X011164Y006912D01*
X011164Y007067D01*
X011104Y007211D01*
X010995Y007320D01*
X010851Y007380D01*
X010696Y007380D01*
X010553Y007320D01*
X010522Y007290D01*
X007196Y007290D01*
X007196Y008742D01*
X007150Y008853D01*
X007066Y008937D01*
X005779Y010224D01*
X005779Y011612D01*
X013227Y011612D01*
X013261Y011578D01*
X013372Y011532D01*
X013491Y011532D01*
X013601Y011578D01*
X013686Y011662D01*
X013720Y011745D01*
X014034Y011431D01*
X010556Y011431D01*
X010491Y011496D01*
X010381Y011542D01*
X010261Y011542D01*
X010151Y011496D01*
X010067Y011412D01*
X010021Y011301D01*
X010021Y011182D01*
X010040Y011136D01*
X009767Y011136D01*
X009766Y011137D01*
X009689Y011136D01*
X009613Y011136D01*
X009611Y011134D01*
X009609Y011134D01*
X009556Y011079D01*
X009502Y011025D01*
X009502Y011023D01*
X009241Y010750D01*
X009155Y010750D01*
X009045Y010705D01*
X008960Y010620D01*
X008915Y010510D01*
X008915Y010391D01*
X008960Y010280D01*
X009045Y010196D01*
X009155Y010150D01*
X009274Y010150D01*
X009385Y010196D01*
X009469Y010280D01*
X009515Y010391D01*
X009515Y010490D01*
X009772Y010757D01*
X010533Y010757D01*
X009925Y010164D01*
X009828Y010164D01*
X009718Y010118D01*
X009634Y010034D01*
X009588Y009923D01*
X009588Y009804D01*
X009634Y009694D01*
X009718Y009609D01*
X009828Y009564D01*
X009948Y009564D01*
X010058Y009609D01*
X010142Y009694D01*
X010188Y009804D01*
X010188Y009892D01*
X010772Y010462D01*
X011047Y010462D01*
X009918Y009317D01*
X009828Y009317D01*
X009718Y009272D01*
X009634Y009187D01*
X009588Y009077D01*
X009588Y008958D01*
X009634Y008847D01*
X009718Y008763D01*
X009828Y008717D01*
X009948Y008717D01*
X010058Y008763D01*
X010142Y008847D01*
X010188Y008958D01*
X010188Y009052D01*
X011346Y010226D01*
X011751Y010229D01*
X011714Y010140D01*
X011714Y010021D01*
X011750Y009935D01*
X011599Y009935D01*
X011534Y010000D01*
X011424Y010046D01*
X011305Y010046D01*
X011194Y010000D01*
X011110Y009916D01*
X011064Y009805D01*
X011064Y009686D01*
X011110Y009576D01*
X011117Y009568D01*
X011011Y009613D01*
X010891Y009613D01*
X010781Y009567D01*
X010697Y009483D01*
X010651Y009372D01*
X010651Y009253D01*
X010697Y009143D01*
X010781Y009058D01*
X010891Y009013D01*
X011011Y009013D01*
X011121Y009058D01*
X011186Y009123D01*
X012109Y009123D01*
X012075Y009089D01*
X012029Y008979D01*
X012029Y008859D01*
X012075Y008749D01*
X012159Y008665D01*
X012269Y008619D01*
X012389Y008619D01*
X012423Y008633D01*
X012423Y008525D01*
X012468Y008414D01*
X012553Y008330D01*
X012663Y008284D01*
X012755Y008284D01*
X013195Y007844D01*
X019514Y007844D01*
X020097Y008427D01*
X020097Y012521D01*
X020098Y012521D01*
X020098Y012797D01*
X020055Y012839D01*
X020086Y012839D01*
X020100Y012845D01*
X020100Y012800D01*
X020146Y012690D01*
X020230Y012606D01*
X020340Y012560D01*
X020460Y012560D01*
X020520Y012585D01*
X020520Y012082D01*
X020432Y011994D01*
X020340Y011994D01*
X020230Y011949D01*
X020146Y011864D01*
X020100Y011754D01*
X020100Y011635D01*
X020146Y011525D01*
X020230Y011440D01*
X020340Y011394D01*
X020460Y011394D01*
X020570Y011440D01*
X020654Y011525D01*
X020700Y011635D01*
X020700Y011727D01*
X020762Y011789D01*
X020762Y011291D01*
X020759Y011236D01*
X020680Y011157D01*
X020634Y011047D01*
X020634Y010927D01*
X020680Y010817D01*
X020764Y010733D01*
X020875Y010687D01*
X020994Y010687D01*
X021104Y010733D01*
X021189Y010817D01*
X021234Y010927D01*
X021234Y011047D01*
X021189Y011157D01*
X021139Y011206D01*
X021140Y011207D01*
X021140Y011280D01*
X021144Y011353D01*
X021140Y011357D01*
X021140Y011375D01*
X021333Y011183D01*
X021333Y010265D01*
X021314Y010284D01*
X021314Y010376D01*
X021268Y010486D01*
X021184Y010571D01*
X021074Y010617D01*
X020954Y010617D01*
X020844Y010571D01*
X020760Y010486D01*
X020714Y010376D01*
X020714Y010257D01*
X020760Y010147D01*
X020844Y010062D01*
X020954Y010017D01*
X021046Y010017D01*
X021081Y009982D01*
X021081Y009821D01*
X021029Y009821D01*
X020919Y009776D01*
X020834Y009691D01*
X020789Y009581D01*
X020789Y009462D01*
X020834Y009351D01*
X020919Y009267D01*
X020978Y009242D01*
X020978Y005787D01*
X020977Y005785D01*
X020978Y005708D01*
X020978Y005632D01*
X020980Y005630D01*
X020980Y005628D01*
X021035Y005575D01*
X021089Y005521D01*
X021091Y005521D01*
X021510Y005118D01*
X021510Y003899D01*
X019710Y002099D01*
X019710Y001208D01*
X019633Y001176D01*
X019501Y001043D01*
X019429Y000871D01*
X019429Y000684D01*
X019501Y000511D01*
X019633Y000379D01*
X019750Y000330D01*
X019060Y000330D01*
X019166Y000374D01*
X019303Y000511D01*
X019378Y000692D01*
X019378Y000886D01*
X019303Y001067D01*
X019166Y001204D01*
X018985Y001279D01*
X018791Y001279D01*
X018610Y001204D01*
X018473Y001067D01*
X018398Y000886D01*
X018398Y000692D01*
X018473Y000511D01*
X018610Y000374D01*
X018716Y000330D01*
X018060Y000330D01*
X018166Y000374D01*
X018303Y000511D01*
X018378Y000692D01*
X018378Y000886D01*
X018303Y001067D01*
X018166Y001204D01*
X017985Y001279D01*
X017791Y001279D01*
X017610Y001204D01*
X017473Y001067D01*
X017398Y000886D01*
X017398Y000692D01*
X017473Y000511D01*
X017610Y000374D01*
X017716Y000330D01*
X017060Y000330D01*
X017166Y000374D01*
X017303Y000511D01*
X017378Y000692D01*
X017378Y000886D01*
X017303Y001067D01*
X017166Y001204D01*
X016985Y001279D01*
X016791Y001279D01*
X016610Y001204D01*
X016473Y001067D01*
X016398Y000886D01*
X016398Y000692D01*
X016473Y000511D01*
X016610Y000374D01*
X016716Y000330D01*
X016060Y000330D01*
X016166Y000374D01*
X016303Y000511D01*
X016378Y000692D01*
X016378Y000886D01*
X016303Y001067D01*
X016166Y001204D01*
X015985Y001279D01*
X015791Y001279D01*
X015610Y001204D01*
X015473Y001067D01*
X015398Y000886D01*
X015398Y000692D01*
X015473Y000511D01*
X015610Y000374D01*
X015716Y000330D01*
X015060Y000330D01*
X015166Y000374D01*
X015303Y000511D01*
X015378Y000692D01*
X015378Y000886D01*
X015303Y001067D01*
X015166Y001204D01*
X014985Y001279D01*
X014791Y001279D01*
X014610Y001204D01*
X014473Y001067D01*
X014398Y000886D01*
X014398Y000692D01*
X014473Y000511D01*
X014610Y000374D01*
X014716Y000330D01*
X014060Y000330D01*
X014166Y000374D01*
X014303Y000511D01*
X014378Y000692D01*
X014378Y000886D01*
X014303Y001067D01*
X014166Y001204D01*
X014086Y001237D01*
X014086Y003025D01*
X014086Y002933D02*
X020544Y002933D01*
X020386Y002775D02*
X014086Y002775D01*
X014086Y002616D02*
X020227Y002616D01*
X020069Y002458D02*
X014086Y002458D01*
X014086Y002299D02*
X019910Y002299D01*
X019752Y002141D02*
X014086Y002141D01*
X014086Y001982D02*
X019710Y001982D01*
X019710Y001824D02*
X014086Y001824D01*
X014086Y001665D02*
X019710Y001665D01*
X019710Y001507D02*
X014086Y001507D01*
X014086Y001348D02*
X019710Y001348D01*
X019667Y001190D02*
X019180Y001190D01*
X019318Y001031D02*
X019496Y001031D01*
X019430Y000873D02*
X019378Y000873D01*
X019378Y000714D02*
X019429Y000714D01*
X019482Y000556D02*
X019322Y000556D01*
X019189Y000397D02*
X019614Y000397D01*
X018587Y000397D02*
X018189Y000397D01*
X018322Y000556D02*
X018454Y000556D01*
X018398Y000714D02*
X018378Y000714D01*
X018378Y000873D02*
X018398Y000873D01*
X018458Y001031D02*
X018318Y001031D01*
X018180Y001190D02*
X018596Y001190D01*
X017596Y001190D02*
X017180Y001190D01*
X017318Y001031D02*
X017458Y001031D01*
X017398Y000873D02*
X017378Y000873D01*
X017378Y000714D02*
X017398Y000714D01*
X017454Y000556D02*
X017322Y000556D01*
X017189Y000397D02*
X017587Y000397D01*
X016587Y000397D02*
X016189Y000397D01*
X016322Y000556D02*
X016454Y000556D01*
X016398Y000714D02*
X016378Y000714D01*
X016378Y000873D02*
X016398Y000873D01*
X016458Y001031D02*
X016318Y001031D01*
X016180Y001190D02*
X016596Y001190D01*
X015596Y001190D02*
X015180Y001190D01*
X015318Y001031D02*
X015458Y001031D01*
X015398Y000873D02*
X015378Y000873D01*
X015378Y000714D02*
X015398Y000714D01*
X015454Y000556D02*
X015322Y000556D01*
X015189Y000397D02*
X015587Y000397D01*
X014587Y000397D02*
X014189Y000397D01*
X014322Y000556D02*
X014454Y000556D01*
X014398Y000714D02*
X014378Y000714D01*
X014378Y000873D02*
X014398Y000873D01*
X014458Y001031D02*
X014318Y001031D01*
X014180Y001190D02*
X014596Y001190D01*
X013706Y001348D02*
X010188Y001348D01*
X010188Y001190D02*
X010596Y001190D01*
X010458Y001031D02*
X010296Y001031D01*
X010354Y000873D02*
X010398Y000873D01*
X010398Y000714D02*
X010354Y000714D01*
X010293Y000556D02*
X010454Y000556D01*
X010587Y000397D02*
X010148Y000397D01*
X009620Y000397D02*
X009148Y000397D01*
X009293Y000556D02*
X009475Y000556D01*
X009414Y000714D02*
X009354Y000714D01*
X009354Y000873D02*
X009414Y000873D01*
X009472Y001031D02*
X009296Y001031D01*
X009156Y001190D02*
X009588Y001190D01*
X009588Y001348D02*
X000709Y001348D01*
X000709Y001190D02*
X007557Y001190D01*
X007431Y001031D02*
X000709Y001031D01*
X000709Y000873D02*
X007380Y000873D01*
X007381Y000714D02*
X000709Y000714D01*
X000709Y000556D02*
X007435Y000556D01*
X007566Y000397D02*
X000709Y000397D01*
X000709Y001507D02*
X009588Y001507D01*
X009588Y001665D02*
X000709Y001665D01*
X000709Y001824D02*
X009588Y001824D01*
X009588Y001982D02*
X000709Y001982D01*
X000709Y002141D02*
X009588Y002141D01*
X009588Y002299D02*
X000709Y002299D01*
X000709Y002458D02*
X009588Y002458D01*
X009588Y002616D02*
X000709Y002616D01*
X000709Y002775D02*
X009588Y002775D01*
X009588Y002933D02*
X000709Y002933D01*
X000709Y003092D02*
X009433Y003092D01*
X009274Y003250D02*
X000709Y003250D01*
X000709Y003409D02*
X009116Y003409D01*
X008957Y003567D02*
X000709Y003567D01*
X000709Y003726D02*
X007098Y003726D01*
X006939Y003884D02*
X000709Y003884D01*
X000709Y004043D02*
X006781Y004043D01*
X006634Y004201D02*
X000709Y004201D01*
X000709Y004360D02*
X006596Y004360D01*
X006596Y004518D02*
X000709Y004518D01*
X000709Y004677D02*
X006596Y004677D01*
X006596Y004835D02*
X000709Y004835D01*
X000709Y004994D02*
X006596Y004994D01*
X006596Y005152D02*
X000709Y005152D01*
X000709Y005311D02*
X006596Y005311D01*
X006596Y005469D02*
X000709Y005469D01*
X000709Y005628D02*
X003066Y005628D01*
X003116Y005607D02*
X003235Y005607D01*
X003345Y005653D01*
X003430Y005737D01*
X003475Y005847D01*
X003475Y012568D01*
X003478Y012576D01*
X003475Y012628D01*
X003475Y012679D01*
X003472Y012687D01*
X003472Y012695D01*
X003450Y012742D01*
X003430Y012790D01*
X003424Y012795D01*
X003420Y012803D01*
X003382Y012837D01*
X003345Y012874D01*
X003338Y012877D01*
X002483Y013646D01*
X002483Y013925D01*
X002198Y014209D01*
X002483Y014494D01*
X002483Y014925D01*
X002198Y015209D01*
X002483Y015494D01*
X002483Y015925D01*
X002178Y016229D01*
X001747Y016229D01*
X001443Y015925D01*
X001443Y015494D01*
X001727Y015209D01*
X001443Y014925D01*
X001443Y014494D01*
X001727Y014209D01*
X001443Y013925D01*
X001443Y013494D01*
X001747Y013189D01*
X002093Y013189D01*
X002875Y012486D01*
X002875Y005847D01*
X002921Y005737D01*
X003005Y005653D01*
X003116Y005607D01*
X003285Y005628D02*
X006596Y005628D01*
X006596Y005786D02*
X003450Y005786D01*
X003475Y005945D02*
X006596Y005945D01*
X006596Y006103D02*
X003475Y006103D01*
X003475Y006262D02*
X006596Y006262D01*
X006596Y006420D02*
X003475Y006420D01*
X003475Y006579D02*
X006596Y006579D01*
X006596Y006737D02*
X003475Y006737D01*
X003475Y006896D02*
X006596Y006896D01*
X006596Y007054D02*
X003475Y007054D01*
X003475Y007213D02*
X006596Y007213D01*
X006596Y007371D02*
X003475Y007371D01*
X003475Y007530D02*
X006596Y007530D01*
X006596Y007688D02*
X003475Y007688D01*
X003475Y007847D02*
X006596Y007847D01*
X006596Y008005D02*
X003475Y008005D01*
X003475Y008164D02*
X006596Y008164D01*
X006596Y008322D02*
X003475Y008322D01*
X003475Y008481D02*
X006596Y008481D01*
X006515Y008639D02*
X003475Y008639D01*
X003475Y008798D02*
X006356Y008798D01*
X006198Y008956D02*
X003475Y008956D01*
X003475Y009115D02*
X006039Y009115D01*
X005881Y009273D02*
X003475Y009273D01*
X003475Y009432D02*
X005722Y009432D01*
X005564Y009590D02*
X003475Y009590D01*
X003475Y009749D02*
X005405Y009749D01*
X005247Y009907D02*
X003475Y009907D01*
X003475Y010066D02*
X005179Y010066D01*
X005179Y010224D02*
X003475Y010224D01*
X003475Y010383D02*
X005179Y010383D01*
X005179Y010541D02*
X003475Y010541D01*
X003475Y010700D02*
X005179Y010700D01*
X005179Y010858D02*
X003475Y010858D01*
X003475Y011017D02*
X005179Y011017D01*
X005179Y011175D02*
X003475Y011175D01*
X003475Y011334D02*
X005179Y011334D01*
X005179Y011492D02*
X003475Y011492D01*
X003475Y011651D02*
X005179Y011651D01*
X005179Y011809D02*
X003475Y011809D01*
X003475Y011968D02*
X005179Y011968D01*
X005179Y012126D02*
X003475Y012126D01*
X003475Y012285D02*
X005179Y012285D01*
X005179Y012443D02*
X003475Y012443D01*
X003477Y012602D02*
X005179Y012602D01*
X005179Y012760D02*
X003442Y012760D01*
X003291Y012919D02*
X005179Y012919D01*
X005179Y013077D02*
X003115Y013077D01*
X002939Y013236D02*
X005179Y013236D01*
X005179Y013394D02*
X002763Y013394D01*
X002586Y013553D02*
X005179Y013553D01*
X005179Y013711D02*
X002483Y013711D01*
X002483Y013870D02*
X005179Y013870D01*
X005179Y014028D02*
X002379Y014028D01*
X002221Y014187D02*
X005179Y014187D01*
X005179Y014345D02*
X002334Y014345D01*
X002483Y014504D02*
X005201Y014504D01*
X005325Y014662D02*
X002483Y014662D01*
X002483Y014821D02*
X005484Y014821D01*
X005642Y014979D02*
X002428Y014979D01*
X002270Y015138D02*
X005801Y015138D01*
X005959Y015296D02*
X002285Y015296D01*
X002444Y015455D02*
X006118Y015455D01*
X006276Y015613D02*
X002483Y015613D01*
X002483Y015772D02*
X006435Y015772D01*
X006593Y015930D02*
X002477Y015930D01*
X002319Y016089D02*
X006752Y016089D01*
X006910Y016247D02*
X000709Y016247D01*
X000709Y016089D02*
X001607Y016089D01*
X001448Y015930D02*
X000709Y015930D01*
X000709Y015772D02*
X001443Y015772D01*
X001443Y015613D02*
X000709Y015613D01*
X000709Y015455D02*
X001482Y015455D01*
X001641Y015296D02*
X000709Y015296D01*
X000709Y015138D02*
X001656Y015138D01*
X001497Y014979D02*
X000709Y014979D01*
X000709Y014821D02*
X001443Y014821D01*
X001443Y014662D02*
X000709Y014662D01*
X000709Y014504D02*
X001443Y014504D01*
X001592Y014345D02*
X000709Y014345D01*
X000709Y014187D02*
X001705Y014187D01*
X001546Y014028D02*
X000709Y014028D01*
X000709Y013870D02*
X001443Y013870D01*
X001443Y013711D02*
X000709Y013711D01*
X000709Y013553D02*
X001443Y013553D01*
X001543Y013394D02*
X000709Y013394D01*
X000709Y013236D02*
X001701Y013236D01*
X002218Y013077D02*
X000709Y013077D01*
X000709Y012919D02*
X002394Y012919D01*
X002570Y012760D02*
X000709Y012760D01*
X000709Y012602D02*
X002747Y012602D01*
X002875Y012443D02*
X000709Y012443D01*
X000709Y012285D02*
X002875Y012285D01*
X002875Y012126D02*
X000709Y012126D01*
X000709Y011968D02*
X002875Y011968D01*
X002875Y011809D02*
X000709Y011809D01*
X000709Y011651D02*
X002875Y011651D01*
X002875Y011492D02*
X000709Y011492D01*
X000709Y011334D02*
X002875Y011334D01*
X002875Y011175D02*
X000709Y011175D01*
X000709Y011017D02*
X002875Y011017D01*
X002875Y010858D02*
X000709Y010858D01*
X000709Y010700D02*
X002875Y010700D01*
X002875Y010541D02*
X002547Y010541D01*
X002587Y010525D02*
X002430Y010590D01*
X002260Y010590D01*
X002103Y010525D01*
X001983Y010405D01*
X001918Y010248D01*
X001918Y010078D01*
X001983Y009921D01*
X002103Y009801D01*
X002260Y009736D01*
X002430Y009736D01*
X002587Y009801D01*
X002707Y009921D01*
X002772Y010078D01*
X002772Y010248D01*
X002707Y010405D01*
X002587Y010525D01*
X002716Y010383D02*
X002875Y010383D01*
X002875Y010224D02*
X002772Y010224D01*
X002766Y010066D02*
X002875Y010066D01*
X002875Y009907D02*
X002693Y009907D01*
X002875Y009749D02*
X002460Y009749D01*
X002229Y009749D02*
X000709Y009749D01*
X000709Y009907D02*
X001997Y009907D01*
X001923Y010066D02*
X000709Y010066D01*
X000709Y010224D02*
X001918Y010224D01*
X001974Y010383D02*
X000709Y010383D01*
X000709Y010541D02*
X002143Y010541D01*
X002875Y009590D02*
X000709Y009590D01*
X000709Y009432D02*
X002875Y009432D01*
X002875Y009273D02*
X000709Y009273D01*
X000709Y009115D02*
X002875Y009115D01*
X002875Y008956D02*
X000709Y008956D01*
X000709Y008798D02*
X002116Y008798D01*
X002103Y008793D02*
X001983Y008672D01*
X001918Y008516D01*
X001918Y008346D01*
X001983Y008189D01*
X002103Y008069D01*
X002260Y008004D01*
X002430Y008004D01*
X002587Y008069D01*
X002707Y008189D01*
X002772Y008346D01*
X002772Y008516D01*
X002707Y008672D01*
X002587Y008793D01*
X002430Y008858D01*
X002260Y008858D01*
X002103Y008793D01*
X001969Y008639D02*
X000709Y008639D01*
X000709Y008481D02*
X001918Y008481D01*
X001928Y008322D02*
X000709Y008322D01*
X000709Y008164D02*
X002008Y008164D01*
X002256Y008005D02*
X000709Y008005D01*
X000709Y007847D02*
X002875Y007847D01*
X002875Y008005D02*
X002433Y008005D01*
X002681Y008164D02*
X002875Y008164D01*
X002875Y008322D02*
X002762Y008322D01*
X002772Y008481D02*
X002875Y008481D01*
X002875Y008639D02*
X002720Y008639D01*
X002574Y008798D02*
X002875Y008798D01*
X002875Y007688D02*
X000709Y007688D01*
X000709Y007530D02*
X002875Y007530D01*
X002875Y007371D02*
X000709Y007371D01*
X000709Y007213D02*
X002875Y007213D01*
X002875Y007054D02*
X000709Y007054D01*
X000709Y006896D02*
X002875Y006896D01*
X002875Y006737D02*
X000709Y006737D01*
X000709Y006579D02*
X002875Y006579D01*
X002875Y006420D02*
X000709Y006420D01*
X000709Y006262D02*
X002875Y006262D01*
X002875Y006103D02*
X000709Y006103D01*
X000709Y005945D02*
X002875Y005945D01*
X002901Y005786D02*
X000709Y005786D01*
X005779Y010224D02*
X009017Y010224D01*
X008918Y010383D02*
X005779Y010383D01*
X005779Y010541D02*
X008928Y010541D01*
X009040Y010700D02*
X005779Y010700D01*
X005779Y010858D02*
X009344Y010858D01*
X009496Y011017D02*
X005779Y011017D01*
X005779Y011175D02*
X010024Y011175D01*
X010035Y011334D02*
X005779Y011334D01*
X005779Y011492D02*
X010147Y011492D01*
X010495Y011492D02*
X013972Y011492D01*
X013814Y011651D02*
X013674Y011651D01*
X013431Y011832D02*
X005499Y011832D01*
X005479Y011813D01*
X005779Y012126D02*
X013342Y012126D01*
X013184Y012285D02*
X005779Y012285D01*
X005779Y012443D02*
X013026Y012443D01*
X013026Y012602D02*
X005779Y012602D01*
X005779Y012760D02*
X013026Y012760D01*
X013026Y012919D02*
X005779Y012919D01*
X005779Y013077D02*
X013026Y013077D01*
X013026Y013236D02*
X005779Y013236D01*
X005779Y013394D02*
X013026Y013394D01*
X012979Y013553D02*
X005779Y013553D01*
X005779Y013711D02*
X012820Y013711D01*
X011047Y013870D02*
X005779Y013870D01*
X005779Y014028D02*
X010889Y014028D01*
X010730Y014187D02*
X005779Y014187D01*
X005857Y014345D02*
X010663Y014345D01*
X010663Y014504D02*
X006015Y014504D01*
X006174Y014662D02*
X010663Y014662D01*
X010663Y014821D02*
X006332Y014821D01*
X006491Y014979D02*
X010663Y014979D01*
X010663Y015138D02*
X006649Y015138D01*
X006808Y015296D02*
X010663Y015296D01*
X010663Y015455D02*
X006966Y015455D01*
X007125Y015613D02*
X010663Y015613D01*
X010663Y015772D02*
X007283Y015772D01*
X007442Y015930D02*
X010663Y015930D01*
X010663Y016089D02*
X007600Y016089D01*
X007759Y016247D02*
X010663Y016247D01*
X010663Y016406D02*
X007917Y016406D01*
X007544Y016881D02*
X000709Y016881D01*
X000709Y016723D02*
X007386Y016723D01*
X007227Y016564D02*
X000709Y016564D01*
X000709Y016406D02*
X007069Y016406D01*
X007703Y017040D02*
X000709Y017040D01*
X000709Y017198D02*
X010663Y017198D01*
X010663Y017040D02*
X009023Y017040D01*
X009122Y016881D02*
X010663Y016881D01*
X010663Y016723D02*
X009114Y016723D01*
X009002Y016564D02*
X010663Y016564D01*
X010663Y017357D02*
X000709Y017357D01*
X000709Y017515D02*
X010663Y017515D01*
X010663Y017674D02*
X000709Y017674D01*
X000709Y017832D02*
X010663Y017832D01*
X010663Y017991D02*
X000709Y017991D01*
X000709Y018149D02*
X010663Y018149D01*
X010663Y018308D02*
X000709Y018308D01*
X000709Y018466D02*
X010663Y018466D01*
X010663Y018625D02*
X000709Y018625D01*
X000709Y018783D02*
X010663Y018783D01*
X010663Y018942D02*
X000709Y018942D01*
X000709Y019100D02*
X010663Y019100D01*
X010663Y019259D02*
X000709Y019259D01*
X000709Y019417D02*
X010663Y019417D01*
X010721Y019576D02*
X000709Y019576D01*
X000709Y019734D02*
X010880Y019734D01*
X011038Y019893D02*
X000709Y019893D01*
X000709Y020051D02*
X011098Y020051D01*
X011200Y020210D02*
X000709Y020210D01*
X000709Y020368D02*
X009115Y020368D01*
X008955Y020527D02*
X000709Y020527D01*
X000709Y020685D02*
X008796Y020685D01*
X008636Y020844D02*
X000709Y020844D01*
X000709Y021002D02*
X008477Y021002D01*
X008317Y021161D02*
X000709Y021161D01*
X000709Y021319D02*
X008157Y021319D01*
X007998Y021478D02*
X000709Y021478D01*
X000709Y021636D02*
X007838Y021636D01*
X007679Y021795D02*
X000709Y021795D01*
X000709Y021953D02*
X007519Y021953D01*
X007360Y022112D02*
X000709Y022112D01*
X000709Y022270D02*
X007200Y022270D01*
X007420Y022587D02*
X007484Y022587D01*
X007415Y022746D02*
X007338Y022746D01*
X007346Y022904D02*
X007406Y022904D01*
X007452Y023063D02*
X007301Y023063D01*
X007179Y023221D02*
X007573Y023221D01*
X008179Y023221D02*
X008572Y023221D01*
X008442Y023063D02*
X008301Y023063D01*
X008346Y022904D02*
X008391Y022904D01*
X008394Y022746D02*
X008338Y022746D01*
X008420Y022587D02*
X008459Y022587D01*
X008580Y022429D02*
X008640Y022429D01*
X008740Y022270D02*
X009173Y022270D01*
X009333Y022112D02*
X008900Y022112D01*
X009059Y021953D02*
X009493Y021953D01*
X009654Y021795D02*
X009219Y021795D01*
X009379Y021636D02*
X009814Y021636D01*
X009974Y021478D02*
X009538Y021478D01*
X009698Y021319D02*
X010134Y021319D01*
X010295Y021161D02*
X009858Y021161D01*
X010017Y021002D02*
X010455Y021002D01*
X010675Y021319D02*
X011137Y021319D01*
X010977Y021478D02*
X010514Y021478D01*
X010354Y021636D02*
X010816Y021636D01*
X010656Y021795D02*
X010194Y021795D01*
X010034Y021953D02*
X010495Y021953D01*
X010334Y022112D02*
X009873Y022112D01*
X009713Y022270D02*
X010174Y022270D01*
X010394Y022587D02*
X010489Y022587D01*
X010491Y022581D02*
X010624Y022448D01*
X010796Y022377D01*
X010983Y022377D01*
X011156Y022448D01*
X011288Y022581D01*
X011360Y022753D01*
X011360Y022940D01*
X011288Y023113D01*
X011156Y023245D01*
X010983Y023317D01*
X010796Y023317D01*
X010624Y023245D01*
X010491Y023113D01*
X010420Y022940D01*
X010420Y022753D01*
X010491Y022581D01*
X010554Y022429D02*
X010671Y022429D01*
X010715Y022270D02*
X013198Y022270D01*
X013356Y022112D02*
X010875Y022112D01*
X011036Y021953D02*
X013515Y021953D01*
X013673Y021795D02*
X011197Y021795D01*
X011357Y021636D02*
X013832Y021636D01*
X014052Y021953D02*
X014515Y021953D01*
X014356Y022112D02*
X013894Y022112D01*
X013735Y022270D02*
X014198Y022270D01*
X014418Y022587D02*
X014527Y022587D01*
X014577Y022429D02*
X014754Y022429D01*
X014735Y022270D02*
X015240Y022270D01*
X015310Y022112D02*
X015399Y022112D01*
X015469Y021953D02*
X015557Y021953D01*
X015627Y021795D02*
X015716Y021795D01*
X015786Y021636D02*
X015874Y021636D01*
X015944Y021478D02*
X016033Y021478D01*
X016053Y022429D02*
X016082Y022429D01*
X017053Y022429D02*
X017082Y022429D01*
X018359Y022746D02*
X018441Y022746D01*
X018426Y022904D02*
X018374Y022904D01*
X018335Y023063D02*
X018465Y023063D01*
X018630Y023274D02*
X018799Y023344D01*
X005946Y023365D01*
X005996Y023357D01*
X006072Y023332D01*
X006144Y023296D01*
X006208Y023249D01*
X006265Y023192D01*
X006312Y023127D01*
X006349Y023056D01*
X006374Y022979D01*
X006386Y022900D01*
X006386Y022878D01*
X005895Y022878D01*
X005895Y022841D01*
X006386Y022841D01*
X006386Y022820D01*
X006374Y022740D01*
X006349Y022664D01*
X006312Y022593D01*
X006265Y022528D01*
X006208Y022471D01*
X006144Y022424D01*
X006072Y022387D01*
X005996Y022362D01*
X005916Y022350D01*
X005895Y022350D01*
X005895Y022841D01*
X005858Y022841D01*
X005858Y022350D01*
X005836Y022350D01*
X005757Y022362D01*
X005680Y022387D01*
X005609Y022424D01*
X005544Y022471D01*
X005487Y022528D01*
X005440Y022593D01*
X005404Y022664D01*
X005379Y022740D01*
X005366Y022820D01*
X005366Y022841D01*
X005858Y022841D01*
X005858Y022878D01*
X005366Y022878D01*
X005366Y022900D01*
X005379Y022979D01*
X005404Y023056D01*
X005440Y023127D01*
X005487Y023192D01*
X005544Y023249D01*
X005609Y023296D01*
X005680Y023332D01*
X005757Y023357D01*
X005808Y023365D01*
X003159Y023370D01*
X003419Y023109D01*
X003419Y022678D01*
X003114Y022374D01*
X002684Y022374D01*
X002427Y022630D01*
X002131Y022334D01*
X001917Y022334D01*
X001917Y022875D01*
X001881Y022875D01*
X001881Y022334D01*
X001667Y022334D01*
X001339Y022662D01*
X001339Y022875D01*
X001881Y022875D01*
X001881Y022912D01*
X001339Y022912D01*
X001339Y023126D01*
X001586Y023372D01*
X000709Y023374D01*
X000709Y023221D02*
X001435Y023221D01*
X001339Y023063D02*
X000709Y023063D01*
X000709Y022904D02*
X001881Y022904D01*
X001881Y022746D02*
X001917Y022746D01*
X001917Y022587D02*
X001881Y022587D01*
X001881Y022429D02*
X001917Y022429D01*
X002226Y022429D02*
X002629Y022429D01*
X002470Y022587D02*
X002385Y022587D01*
X003170Y022429D02*
X005602Y022429D01*
X005444Y022587D02*
X003328Y022587D01*
X003419Y022746D02*
X005378Y022746D01*
X005367Y022904D02*
X003419Y022904D01*
X003419Y023063D02*
X005407Y023063D01*
X005516Y023221D02*
X003307Y023221D01*
X001572Y022429D02*
X000709Y022429D01*
X000709Y022587D02*
X001413Y022587D01*
X001339Y022746D02*
X000709Y022746D01*
X005858Y022746D02*
X005895Y022746D01*
X005895Y022587D02*
X005858Y022587D01*
X005858Y022429D02*
X005895Y022429D01*
X006151Y022429D02*
X006689Y022429D01*
X006484Y022587D02*
X006309Y022587D01*
X006375Y022746D02*
X006415Y022746D01*
X006406Y022904D02*
X006386Y022904D01*
X006345Y023063D02*
X006452Y023063D01*
X006573Y023221D02*
X006236Y023221D01*
X007580Y022429D02*
X007689Y022429D01*
X007739Y022270D02*
X008200Y022270D01*
X008360Y022112D02*
X007899Y022112D01*
X008058Y021953D02*
X008520Y021953D01*
X008679Y021795D02*
X008218Y021795D01*
X008378Y021636D02*
X008839Y021636D01*
X008999Y021478D02*
X008537Y021478D01*
X008697Y021319D02*
X009159Y021319D01*
X009318Y021161D02*
X008856Y021161D01*
X009016Y021002D02*
X009478Y021002D01*
X009638Y020844D02*
X009175Y020844D01*
X009553Y022429D02*
X009640Y022429D01*
X009459Y022587D02*
X009393Y022587D01*
X009394Y022746D02*
X009328Y022746D01*
X009331Y022904D02*
X009391Y022904D01*
X009442Y023063D02*
X009280Y023063D01*
X009150Y023221D02*
X009572Y023221D01*
X010150Y023221D02*
X010600Y023221D01*
X010471Y023063D02*
X010280Y023063D01*
X010331Y022904D02*
X010420Y022904D01*
X010423Y022746D02*
X010328Y022746D01*
X011109Y022429D02*
X011671Y022429D01*
X011624Y022448D02*
X011796Y022377D01*
X011983Y022377D01*
X012156Y022448D01*
X012288Y022581D01*
X012360Y022753D01*
X012360Y022940D01*
X012288Y023113D01*
X012156Y023245D01*
X011983Y023317D01*
X011796Y023317D01*
X011624Y023245D01*
X011491Y023113D01*
X011420Y022940D01*
X011420Y022753D01*
X011491Y022581D01*
X011624Y022448D01*
X011489Y022587D02*
X011291Y022587D01*
X011357Y022746D02*
X011423Y022746D01*
X011420Y022904D02*
X011360Y022904D01*
X011309Y023063D02*
X011471Y023063D01*
X011600Y023221D02*
X011180Y023221D01*
X012180Y023221D02*
X012600Y023221D01*
X012471Y023063D02*
X012309Y023063D01*
X012360Y022904D02*
X012420Y022904D01*
X012423Y022746D02*
X012357Y022746D01*
X012291Y022587D02*
X012489Y022587D01*
X012671Y022429D02*
X012109Y022429D01*
X013180Y023221D02*
X013600Y023221D01*
X013471Y023063D02*
X013309Y023063D01*
X013360Y022904D02*
X013420Y022904D01*
X013423Y022746D02*
X013357Y022746D01*
X013418Y022587D02*
X013489Y022587D01*
X013577Y022429D02*
X013671Y022429D01*
X014357Y022746D02*
X014449Y022746D01*
X014434Y022904D02*
X014360Y022904D01*
X014309Y023063D02*
X014473Y023063D01*
X014585Y023221D02*
X014180Y023221D01*
X015053Y022429D02*
X015082Y022429D01*
X017082Y020051D02*
X017248Y020051D01*
X017119Y019893D02*
X017082Y019893D01*
X017082Y019734D02*
X017119Y019734D01*
X017119Y019576D02*
X017082Y019576D01*
X017082Y019417D02*
X017119Y019417D01*
X017119Y019259D02*
X017082Y019259D01*
X017082Y019100D02*
X017119Y019100D01*
X017119Y018942D02*
X017082Y018942D01*
X018619Y022429D02*
X018746Y022429D01*
X018519Y022587D02*
X018461Y022587D01*
X021140Y019893D02*
X021162Y019893D01*
X021226Y020210D02*
X024619Y020210D01*
X024619Y020368D02*
X021385Y020368D01*
X021543Y020527D02*
X024619Y020527D01*
X024619Y020685D02*
X021702Y020685D01*
X021860Y020844D02*
X024619Y020844D01*
X024619Y021002D02*
X022019Y021002D01*
X022177Y021161D02*
X024619Y021161D01*
X024619Y021319D02*
X022696Y021319D01*
X022854Y021478D02*
X024619Y021478D01*
X024619Y021636D02*
X023013Y021636D01*
X023088Y021795D02*
X024619Y021795D01*
X024619Y021953D02*
X023088Y021953D01*
X023088Y022112D02*
X024619Y022112D01*
X024619Y022270D02*
X023088Y022270D01*
X023095Y022429D02*
X023681Y022429D01*
X023622Y022454D02*
X023795Y022382D01*
X023982Y022382D01*
X024154Y022454D01*
X024286Y022586D01*
X024358Y022758D01*
X024358Y022945D01*
X024286Y023118D01*
X024154Y023250D01*
X023982Y023322D01*
X023795Y023322D01*
X023622Y023250D01*
X023490Y023118D01*
X023418Y022945D01*
X023418Y022758D01*
X023490Y022586D01*
X023622Y022454D01*
X023489Y022587D02*
X023287Y022587D01*
X023353Y022746D02*
X023423Y022746D01*
X023418Y022904D02*
X023358Y022904D01*
X023309Y023063D02*
X023467Y023063D01*
X023593Y023221D02*
X023183Y023221D01*
X024183Y023221D02*
X024619Y023221D01*
X024619Y023063D02*
X024309Y023063D01*
X024358Y022904D02*
X024619Y022904D01*
X024619Y022746D02*
X024353Y022746D01*
X024287Y022587D02*
X024619Y022587D01*
X024619Y022429D02*
X024095Y022429D01*
X022710Y022270D02*
X022583Y022270D01*
X022701Y022112D02*
X022710Y022112D01*
X021581Y018308D02*
X023872Y018308D01*
X023736Y018149D02*
X021581Y018149D01*
X021581Y017991D02*
X023621Y017991D01*
X023463Y017832D02*
X021581Y017832D01*
X021581Y017674D02*
X023304Y017674D01*
X023146Y017515D02*
X021581Y017515D01*
X021581Y017357D02*
X022987Y017357D01*
X022863Y017198D02*
X021581Y017198D01*
X021581Y017040D02*
X022835Y017040D01*
X022835Y016881D02*
X021581Y016881D01*
X021581Y016723D02*
X022835Y016723D01*
X022835Y016564D02*
X021581Y016564D01*
X021581Y016406D02*
X022835Y016406D01*
X022835Y016247D02*
X021581Y016247D01*
X021581Y016089D02*
X022835Y016089D01*
X022835Y015930D02*
X021581Y015930D01*
X021618Y015772D02*
X022835Y015772D01*
X022835Y015613D02*
X021776Y015613D01*
X022470Y015455D02*
X022835Y015455D01*
X022785Y015296D02*
X022629Y015296D01*
X022787Y015138D02*
X022803Y015138D01*
X023473Y014028D02*
X023495Y014028D01*
X023495Y013870D02*
X023443Y013870D01*
X023443Y013711D02*
X023495Y013711D01*
X023495Y013553D02*
X023443Y013553D01*
X023443Y013394D02*
X023495Y013394D01*
X023495Y013236D02*
X023443Y013236D01*
X023443Y013077D02*
X023495Y013077D01*
X023495Y012919D02*
X023443Y012919D01*
X023443Y012760D02*
X023495Y012760D01*
X023495Y012602D02*
X023443Y012602D01*
X023443Y012443D02*
X023495Y012443D01*
X023495Y012285D02*
X023443Y012285D01*
X023443Y012126D02*
X023495Y012126D01*
X023495Y011968D02*
X023443Y011968D01*
X023443Y011809D02*
X023495Y011809D01*
X023495Y011651D02*
X023443Y011651D01*
X023443Y011492D02*
X023495Y011492D01*
X023495Y011334D02*
X023443Y011334D01*
X023398Y011169D02*
X023287Y011017D01*
X023286Y010858D02*
X023495Y010858D01*
X023495Y010700D02*
X023180Y010700D01*
X022943Y010541D02*
X023495Y010541D01*
X023495Y010383D02*
X023069Y010383D01*
X023069Y010224D02*
X023495Y010224D01*
X023495Y010066D02*
X023147Y010066D01*
X023188Y009907D02*
X023495Y009907D01*
X023495Y009749D02*
X023147Y009749D01*
X022874Y009590D02*
X023495Y009590D01*
X023495Y009432D02*
X022892Y009432D01*
X022892Y009273D02*
X023495Y009273D01*
X023495Y009115D02*
X022892Y009115D01*
X022892Y008956D02*
X023495Y008956D01*
X023495Y008798D02*
X022892Y008798D01*
X022892Y008639D02*
X023495Y008639D01*
X023495Y008481D02*
X022892Y008481D01*
X022892Y008322D02*
X023495Y008322D01*
X023495Y008164D02*
X022892Y008164D01*
X022892Y008005D02*
X023496Y008005D01*
X023497Y007847D02*
X022892Y007847D01*
X022892Y007688D02*
X023498Y007688D01*
X023499Y007530D02*
X022892Y007530D01*
X022892Y007371D02*
X023500Y007371D01*
X023501Y007213D02*
X022892Y007213D01*
X022892Y007054D02*
X023502Y007054D01*
X023503Y006896D02*
X022892Y006896D01*
X022892Y006737D02*
X023455Y006737D01*
X023458Y006579D02*
X022892Y006579D01*
X022910Y006420D02*
X023538Y006420D01*
X021474Y005152D02*
X017176Y005152D01*
X017170Y005147D02*
X017170Y005147D01*
X017334Y005311D02*
X021310Y005311D01*
X021145Y005469D02*
X017493Y005469D01*
X017646Y005628D02*
X020980Y005628D01*
X020978Y005786D02*
X017688Y005786D01*
X017688Y005945D02*
X020978Y005945D01*
X020978Y006103D02*
X017688Y006103D01*
X017688Y006262D02*
X020978Y006262D01*
X020978Y006420D02*
X017688Y006420D01*
X017770Y006579D02*
X020978Y006579D01*
X020978Y006737D02*
X017778Y006737D01*
X017719Y006896D02*
X020978Y006896D01*
X020978Y007054D02*
X017491Y007054D01*
X017285Y007054D02*
X011164Y007054D01*
X011157Y006896D02*
X017058Y006896D01*
X016998Y006737D02*
X011074Y006737D01*
X011074Y006579D02*
X017006Y006579D01*
X017088Y006420D02*
X011074Y006420D01*
X011074Y006262D02*
X017088Y006262D01*
X017088Y006103D02*
X011074Y006103D01*
X011074Y005945D02*
X017088Y005945D01*
X016961Y005786D02*
X011074Y005786D01*
X011084Y005628D02*
X016803Y005628D01*
X015476Y004518D02*
X021510Y004518D01*
X021510Y004360D02*
X015620Y004360D01*
X015641Y004201D02*
X021510Y004201D01*
X021510Y004043D02*
X015558Y004043D01*
X015123Y004043D02*
X015103Y004043D01*
X014945Y003884D02*
X021495Y003884D01*
X021510Y004677D02*
X007196Y004677D01*
X007196Y004835D02*
X021510Y004835D01*
X021510Y004994D02*
X007196Y004994D01*
X007196Y005152D02*
X010711Y005152D01*
X010552Y005311D02*
X007196Y005311D01*
X007196Y005469D02*
X010474Y005469D01*
X010474Y005628D02*
X007196Y005628D01*
X007196Y005786D02*
X010474Y005786D01*
X010474Y005945D02*
X007196Y005945D01*
X007196Y006103D02*
X010474Y006103D01*
X010474Y006262D02*
X007196Y006262D01*
X007200Y006420D02*
X010474Y006420D01*
X010474Y006579D02*
X007215Y006579D01*
X007196Y007371D02*
X010676Y007371D01*
X010872Y007371D02*
X020978Y007371D01*
X020978Y007213D02*
X011102Y007213D01*
X012220Y008639D02*
X007196Y008639D01*
X007196Y008481D02*
X012441Y008481D01*
X012571Y008322D02*
X007196Y008322D01*
X007196Y008164D02*
X012876Y008164D01*
X013034Y008005D02*
X007196Y008005D01*
X007196Y007847D02*
X013193Y007847D01*
X012054Y008798D02*
X010093Y008798D01*
X010187Y008956D02*
X012029Y008956D01*
X012101Y009115D02*
X011178Y009115D01*
X010725Y009115D02*
X010250Y009115D01*
X010406Y009273D02*
X010651Y009273D01*
X010676Y009432D02*
X010562Y009432D01*
X010719Y009590D02*
X010838Y009590D01*
X010875Y009749D02*
X011064Y009749D01*
X011064Y009590D02*
X011104Y009590D01*
X011107Y009907D02*
X011031Y009907D01*
X011187Y010066D02*
X011714Y010066D01*
X011749Y010224D02*
X011344Y010224D01*
X010969Y010383D02*
X010691Y010383D01*
X010812Y010224D02*
X010529Y010224D01*
X010656Y010066D02*
X010366Y010066D01*
X010500Y009907D02*
X010204Y009907D01*
X010165Y009749D02*
X010344Y009749D01*
X010187Y009590D02*
X010012Y009590D01*
X010031Y009432D02*
X006571Y009432D01*
X006413Y009590D02*
X009764Y009590D01*
X009611Y009749D02*
X006254Y009749D01*
X006096Y009907D02*
X009588Y009907D01*
X009666Y010066D02*
X005937Y010066D01*
X006730Y009273D02*
X009722Y009273D01*
X009604Y009115D02*
X006888Y009115D01*
X007047Y008956D02*
X009589Y008956D01*
X009683Y008798D02*
X007173Y008798D01*
X007196Y007688D02*
X020978Y007688D01*
X020978Y007530D02*
X007196Y007530D01*
X009413Y010224D02*
X009987Y010224D01*
X010149Y010383D02*
X009512Y010383D01*
X009564Y010541D02*
X010312Y010541D01*
X010474Y010700D02*
X009717Y010700D01*
X015925Y011315D02*
X015970Y011296D01*
X016089Y011296D01*
X016200Y011342D01*
X016284Y011426D01*
X016301Y011468D01*
X016327Y011406D01*
X016411Y011322D01*
X016521Y011276D01*
X016641Y011276D01*
X016751Y011322D01*
X016835Y011406D01*
X016881Y011517D01*
X016881Y011636D01*
X016835Y011746D01*
X016770Y011811D01*
X016770Y012450D01*
X017467Y012450D01*
X018104Y011813D01*
X018104Y011366D01*
X018100Y011295D01*
X018020Y011215D01*
X017974Y011105D01*
X017974Y010985D01*
X018020Y010875D01*
X018104Y010791D01*
X018214Y010745D01*
X018328Y010745D01*
X018328Y010729D01*
X018374Y010619D01*
X018458Y010535D01*
X018543Y010499D01*
X018314Y010270D01*
X018174Y010270D01*
X018109Y010335D01*
X017999Y010380D01*
X017880Y010380D01*
X017769Y010335D01*
X017685Y010250D01*
X017639Y010140D01*
X017639Y010021D01*
X017685Y009910D01*
X017769Y009826D01*
X017880Y009780D01*
X017999Y009780D01*
X018109Y009826D01*
X018174Y009891D01*
X018187Y009891D01*
X018151Y009805D01*
X018151Y009697D01*
X018117Y009711D01*
X017998Y009711D01*
X017887Y009665D01*
X017803Y009581D01*
X017757Y009471D01*
X017757Y009384D01*
X017444Y009384D01*
X017471Y009450D01*
X017471Y009569D01*
X017426Y009679D01*
X017341Y009764D01*
X017231Y009809D01*
X017176Y009809D01*
X017176Y009845D01*
X017131Y009955D01*
X017046Y010039D01*
X016936Y010085D01*
X016817Y010085D01*
X016706Y010039D01*
X016622Y009955D01*
X016602Y009907D01*
X016054Y009907D01*
X016078Y009966D01*
X016078Y010085D01*
X016032Y010195D01*
X015966Y010261D01*
X015963Y010829D01*
X015967Y010833D01*
X015967Y011273D01*
X015925Y011315D01*
X015967Y011175D02*
X018003Y011175D01*
X017974Y011017D02*
X015967Y011017D01*
X015967Y010858D02*
X018036Y010858D01*
X018340Y010700D02*
X015964Y010700D01*
X015965Y010541D02*
X018452Y010541D01*
X018427Y010383D02*
X015965Y010383D01*
X016003Y010224D02*
X017674Y010224D01*
X017639Y010066D02*
X016982Y010066D01*
X016770Y010066D02*
X016078Y010066D01*
X016054Y009907D02*
X016602Y009907D01*
X017150Y009907D02*
X017688Y009907D01*
X017356Y009749D02*
X018151Y009749D01*
X017812Y009590D02*
X017463Y009590D01*
X017464Y009432D02*
X017757Y009432D01*
X019517Y007847D02*
X020978Y007847D01*
X020978Y008005D02*
X019675Y008005D01*
X019834Y008164D02*
X020978Y008164D01*
X020978Y008322D02*
X019992Y008322D01*
X020097Y008481D02*
X020978Y008481D01*
X020978Y008639D02*
X020097Y008639D01*
X020097Y008798D02*
X020978Y008798D01*
X020978Y008956D02*
X020097Y008956D01*
X020097Y009115D02*
X020978Y009115D01*
X020912Y009273D02*
X020097Y009273D01*
X020097Y009432D02*
X020801Y009432D01*
X020793Y009590D02*
X020097Y009590D01*
X020097Y009749D02*
X020892Y009749D01*
X021081Y009907D02*
X020097Y009907D01*
X020097Y010066D02*
X020840Y010066D01*
X020727Y010224D02*
X020097Y010224D01*
X020097Y010383D02*
X020717Y010383D01*
X020815Y010541D02*
X020097Y010541D01*
X020097Y010700D02*
X020844Y010700D01*
X021025Y010700D02*
X021333Y010700D01*
X021333Y010858D02*
X021206Y010858D01*
X021234Y011017D02*
X021333Y011017D01*
X021333Y011175D02*
X021170Y011175D01*
X021182Y011334D02*
X021143Y011334D01*
X020762Y011334D02*
X020097Y011334D01*
X020097Y011492D02*
X020178Y011492D01*
X020100Y011651D02*
X020097Y011651D01*
X020097Y011809D02*
X020123Y011809D01*
X020097Y011968D02*
X020276Y011968D01*
X020097Y012126D02*
X020520Y012126D01*
X020520Y012285D02*
X020097Y012285D01*
X020097Y012443D02*
X020520Y012443D01*
X020239Y012602D02*
X020098Y012602D01*
X020098Y012760D02*
X020116Y012760D01*
X020700Y011651D02*
X020762Y011651D01*
X020762Y011492D02*
X020622Y011492D01*
X020698Y011175D02*
X020097Y011175D01*
X020097Y011017D02*
X020634Y011017D01*
X020663Y010858D02*
X020097Y010858D01*
X021213Y010541D02*
X021333Y010541D01*
X021333Y010383D02*
X021311Y010383D01*
X021577Y011474D02*
X021396Y011655D01*
X021396Y013458D01*
X021448Y013480D01*
X021532Y013564D01*
X021578Y013674D01*
X021578Y013794D01*
X021555Y013848D01*
X022049Y013848D01*
X022049Y011989D01*
X021577Y011517D01*
X021577Y011474D01*
X021577Y011492D02*
X021559Y011492D01*
X021711Y011651D02*
X021400Y011651D01*
X021396Y011809D02*
X021869Y011809D01*
X022028Y011968D02*
X021396Y011968D01*
X021396Y012126D02*
X022049Y012126D01*
X022049Y012285D02*
X021396Y012285D01*
X021396Y012443D02*
X022049Y012443D01*
X022049Y012602D02*
X021396Y012602D01*
X021396Y012760D02*
X022049Y012760D01*
X022049Y012919D02*
X021396Y012919D01*
X021396Y013077D02*
X022049Y013077D01*
X022049Y013236D02*
X021396Y013236D01*
X021396Y013394D02*
X022049Y013394D01*
X022049Y013553D02*
X021521Y013553D01*
X021578Y013711D02*
X022049Y013711D01*
X024388Y015772D02*
X024619Y015772D01*
X024619Y015930D02*
X024592Y015930D01*
X024619Y016564D02*
X024502Y016564D01*
X022703Y010858D02*
X022699Y010858D01*
X022784Y010700D02*
X022809Y010700D01*
X018102Y011334D02*
X016763Y011334D01*
X016871Y011492D02*
X018104Y011492D01*
X018104Y011651D02*
X016875Y011651D01*
X016772Y011809D02*
X018104Y011809D01*
X017949Y011968D02*
X016770Y011968D01*
X016770Y012126D02*
X017791Y012126D01*
X017632Y012285D02*
X016770Y012285D01*
X016770Y012443D02*
X017474Y012443D01*
X016399Y011334D02*
X016181Y011334D01*
X015206Y004518D02*
X007196Y004518D01*
X007312Y004360D02*
X014883Y004360D01*
X014725Y004201D02*
X007471Y004201D01*
X009330Y004043D02*
X014566Y004043D01*
X014408Y003884D02*
X009489Y003884D01*
X009647Y003726D02*
X014249Y003726D01*
X014091Y003567D02*
X009806Y003567D01*
X009964Y003409D02*
X013932Y003409D01*
X013774Y003250D02*
X010123Y003250D01*
X010188Y003092D02*
X013706Y003092D01*
X013706Y002933D02*
X010188Y002933D01*
X010188Y002775D02*
X013706Y002775D01*
X013706Y002616D02*
X010188Y002616D01*
X010188Y002458D02*
X013706Y002458D01*
X013706Y002299D02*
X010188Y002299D01*
X010188Y002141D02*
X013706Y002141D01*
X013706Y001982D02*
X010188Y001982D01*
X010188Y001824D02*
X013706Y001824D01*
X013706Y001665D02*
X010188Y001665D01*
X010188Y001507D02*
X013706Y001507D01*
X013596Y001190D02*
X013180Y001190D01*
X013318Y001031D02*
X013458Y001031D01*
X013398Y000873D02*
X013378Y000873D01*
X013378Y000714D02*
X013398Y000714D01*
X013454Y000556D02*
X013322Y000556D01*
X013189Y000397D02*
X013587Y000397D01*
X012587Y000397D02*
X012189Y000397D01*
X012322Y000556D02*
X012454Y000556D01*
X012398Y000714D02*
X012378Y000714D01*
X012378Y000873D02*
X012398Y000873D01*
X012458Y001031D02*
X012318Y001031D01*
X012180Y001190D02*
X012596Y001190D01*
X011596Y001190D02*
X011180Y001190D01*
X011318Y001031D02*
X011458Y001031D01*
X011398Y000873D02*
X011378Y000873D01*
X011378Y000714D02*
X011398Y000714D01*
X011454Y000556D02*
X011322Y000556D01*
X011189Y000397D02*
X011587Y000397D01*
X008620Y000397D02*
X008202Y000397D01*
X008334Y000556D02*
X008475Y000556D01*
X008414Y000714D02*
X008387Y000714D01*
X008388Y000873D02*
X008414Y000873D01*
X008472Y001031D02*
X008337Y001031D01*
X008211Y001190D02*
X008612Y001190D01*
X007903Y001190D02*
X007866Y001190D01*
X007866Y001031D02*
X007903Y001031D01*
X007903Y000873D02*
X007866Y000873D01*
D17*
X023175Y015208D02*
X023175Y017064D01*
X024085Y017974D01*
X023175Y015208D02*
X023835Y014549D01*
X023835Y008230D01*
X023845Y006665D01*
D18*
X017313Y007612D02*
X015931Y007600D01*
X008797Y016784D02*
X008826Y016813D01*
D19*
X010853Y018655D02*
X010853Y014332D01*
X011207Y013978D01*
X012821Y013978D01*
X013215Y013584D01*
X013215Y012521D01*
X013632Y012104D01*
X013632Y012100D01*
X014223Y011509D01*
X015463Y011509D01*
X015778Y011194D01*
X015778Y010911D01*
X015774Y010907D01*
X015778Y010025D01*
X015262Y010348D02*
X014664Y010946D01*
X009691Y010946D01*
X009215Y010450D01*
X009888Y009864D02*
X010695Y010651D01*
X014120Y010651D01*
X015053Y009718D01*
X016809Y009718D01*
X016876Y009785D01*
X017171Y009509D02*
X017109Y009446D01*
X014990Y009446D01*
X014002Y010435D01*
X011266Y010415D01*
X009888Y009017D01*
X010951Y009313D02*
X012920Y009313D01*
X013668Y008565D01*
X019061Y008565D01*
X019278Y008781D01*
X019278Y011104D01*
X018963Y011399D02*
X019268Y011704D01*
X019290Y011726D01*
X019612Y011557D02*
X019612Y008545D01*
X019376Y008309D01*
X013530Y008309D01*
X012920Y008919D01*
X012329Y008919D01*
X012723Y008584D02*
X013274Y008033D01*
X019435Y008033D01*
X019908Y008506D01*
X019908Y012600D01*
X020026Y013131D02*
X020144Y013250D01*
X020144Y019726D01*
X020400Y019726D02*
X020400Y012860D01*
X020026Y013131D02*
X020026Y013139D01*
X019790Y013537D02*
X019849Y013596D01*
X019849Y019647D01*
X019593Y019490D02*
X019593Y013939D01*
X019514Y013911D01*
X019238Y014269D02*
X019238Y020549D01*
X019038Y020750D01*
X018884Y019647D02*
X018923Y019608D01*
X018923Y016222D01*
X018489Y015948D02*
X018490Y015946D01*
X018489Y015948D02*
X018489Y019060D01*
X018429Y019120D01*
X017829Y019120D01*
X017782Y019073D01*
X017782Y018860D01*
X018089Y018654D02*
X018089Y018638D01*
X018089Y018654D02*
X018089Y015920D01*
X018018Y015849D01*
X018018Y015848D01*
X017526Y015356D01*
X017526Y014600D01*
X017782Y015100D02*
X018097Y015415D01*
X018372Y014057D02*
X017900Y013584D01*
X017703Y012836D02*
X016837Y012836D01*
X016758Y012639D02*
X017546Y012639D01*
X018294Y011891D01*
X018294Y011360D01*
X018274Y011045D01*
X018609Y010809D02*
X018609Y011931D01*
X017703Y012836D01*
X016758Y012639D02*
X016364Y013033D01*
X014691Y013033D01*
X014455Y013269D01*
X014120Y013112D02*
X014120Y014864D01*
X014042Y014943D01*
X011935Y014943D01*
X011519Y014523D02*
X011749Y014293D01*
X012900Y014293D01*
X013451Y013742D01*
X013451Y012679D01*
X014160Y011970D01*
X014238Y011970D01*
X014101Y012364D02*
X013648Y012817D01*
X013648Y014096D01*
X013510Y014234D01*
X013845Y014509D02*
X013707Y014647D01*
X012979Y014647D01*
X013845Y014509D02*
X013845Y013033D01*
X014278Y012600D01*
X016168Y012600D01*
X016305Y012462D01*
X016305Y011872D01*
X016030Y011596D01*
X015853Y012049D02*
X015853Y012187D01*
X015675Y012364D01*
X014101Y012364D01*
X014396Y012836D02*
X014120Y013112D01*
X014396Y012836D02*
X016286Y012836D01*
X016581Y012541D01*
X016581Y011576D01*
X015258Y010891D02*
X014908Y011242D01*
X010321Y011242D01*
X011364Y009746D02*
X013923Y009746D01*
X014691Y008978D01*
X018353Y008978D01*
X018451Y009076D01*
X018451Y009746D01*
X018392Y010080D02*
X018963Y010651D01*
X018963Y011399D01*
X018609Y010809D02*
X018628Y010789D01*
X018392Y010080D02*
X017939Y010080D01*
X018057Y009411D02*
X017841Y009194D01*
X014888Y009194D01*
X014002Y010080D01*
X014179Y009037D02*
X014179Y009017D01*
X014416Y008781D01*
X018648Y008781D01*
X018845Y008978D01*
X018845Y010061D01*
X020400Y011694D02*
X020709Y012004D01*
X020709Y020310D01*
X020774Y020376D01*
X020778Y020376D01*
X022417Y022015D01*
X022899Y021790D02*
X022609Y021500D01*
X022249Y021500D01*
X020951Y020202D01*
X020951Y011285D01*
X020934Y010987D01*
X021522Y011261D02*
X021207Y011576D01*
X021207Y013663D01*
X021278Y013734D01*
X021345Y014037D02*
X022136Y014037D01*
X022238Y013935D01*
X022238Y011911D01*
X021766Y011439D01*
X021766Y009994D01*
X022349Y009411D01*
X022349Y006261D01*
X022899Y005711D01*
X022899Y000777D01*
X021899Y000777D02*
X021899Y002682D01*
X022486Y003269D01*
X022486Y005553D01*
X021955Y006084D01*
X021955Y009474D01*
X021522Y009907D01*
X021522Y011261D01*
X022046Y011238D02*
X022479Y011671D01*
X022479Y014254D01*
X022282Y014450D01*
X021561Y014450D01*
X021207Y014175D02*
X021345Y014037D01*
X021207Y014175D02*
X021207Y015080D01*
X021286Y015159D01*
X021624Y015006D02*
X021770Y014860D01*
X022360Y014860D01*
X022691Y014529D01*
X022691Y011513D01*
X022636Y011458D01*
X022459Y011285D01*
X022278Y011104D01*
X022278Y010466D01*
X022467Y010277D01*
X022467Y010269D01*
X022880Y010336D02*
X022880Y009915D01*
X022888Y009907D01*
X022880Y010336D02*
X022518Y010698D01*
X022510Y010698D01*
X022510Y010978D01*
X022912Y011380D01*
X022920Y011380D01*
X022920Y011887D01*
X022927Y011880D01*
X022920Y011887D02*
X022920Y014738D01*
X022372Y015285D01*
X021971Y015285D01*
X021624Y015490D02*
X021624Y015006D01*
X021624Y015490D02*
X021597Y015517D01*
X021597Y015525D01*
X021392Y015730D01*
X021392Y018482D01*
X021384Y018490D01*
X021384Y019691D01*
X022899Y021790D02*
X022899Y022865D01*
X015746Y019666D02*
X015731Y019680D01*
X015249Y019680D01*
X015046Y019477D01*
X015046Y016065D01*
X015715Y015533D02*
X015833Y015415D01*
X015439Y015159D02*
X015341Y015257D01*
X015518Y014470D02*
X014514Y014470D01*
X014684Y016903D02*
X014684Y020344D01*
X014696Y020356D01*
X013530Y020781D02*
X012939Y021372D01*
X012467Y020864D02*
X012254Y021076D01*
X012467Y020864D02*
X012467Y018742D01*
X012034Y018545D02*
X012034Y020171D01*
X011797Y019986D02*
X011797Y018387D01*
X011519Y019210D02*
X011519Y014523D01*
X015794Y017088D02*
X015794Y018365D01*
X015543Y018615D01*
X013530Y019017D02*
X013530Y020781D01*
X020715Y012009D02*
X020709Y012004D01*
X022046Y011238D02*
X022046Y010151D01*
X022703Y009494D01*
X022703Y006360D01*
X023353Y005710D01*
X023353Y002915D01*
X023899Y002369D01*
X023899Y000777D01*
X022112Y003506D02*
X022112Y005356D01*
X021620Y005848D01*
X021620Y009474D01*
X021553Y009541D01*
X021270Y009824D01*
X021270Y010061D01*
X021014Y010317D01*
X021089Y009521D02*
X021168Y009443D01*
X021168Y005710D01*
X021699Y005198D01*
X021699Y003820D01*
X019899Y002020D01*
X019899Y000777D01*
X020899Y000777D02*
X020899Y002292D01*
X022112Y003506D01*
X021561Y009541D02*
X021553Y009541D01*
X022994Y010939D02*
X023254Y011293D01*
X023254Y014234D01*
D20*
X019908Y012718D02*
X019908Y012600D01*
X019908Y012718D02*
X018884Y013742D01*
X018884Y014293D01*
X018609Y014569D01*
X017939Y014569D01*
X017782Y014726D01*
X017782Y015100D01*
X017526Y014600D02*
X017526Y014588D01*
X017742Y014372D01*
X018490Y014372D01*
X018687Y014175D01*
X018687Y013663D01*
X019671Y012679D01*
X019671Y012108D01*
X019268Y011704D01*
X017900Y013584D02*
X017368Y013584D01*
X017034Y013250D01*
X016679Y013250D01*
X016404Y013525D01*
X016404Y013584D01*
X015518Y014470D01*
X015341Y015257D02*
X015341Y015277D01*
X015144Y015474D01*
X013175Y015474D01*
X011797Y016852D01*
X011797Y018387D01*
X012034Y018545D02*
X012034Y017009D01*
X013294Y015750D01*
X015459Y015750D01*
X015675Y015533D01*
X015715Y015533D01*
X016896Y015317D02*
X016896Y015061D01*
X016892Y015057D01*
X016896Y015317D02*
X017565Y015986D01*
X017565Y017639D01*
X016892Y018313D01*
X016892Y020261D01*
X015144Y022009D01*
X014727Y022009D01*
X013890Y022847D01*
X012890Y022847D02*
X014003Y021734D01*
X015065Y021734D01*
X016443Y020356D01*
X016443Y018614D01*
X017309Y018614D02*
X017309Y019844D01*
X017388Y019923D01*
X018609Y019923D01*
X018884Y019647D01*
X019593Y019490D02*
X019593Y020789D01*
X019357Y021025D01*
X017754Y021025D01*
X015904Y022876D01*
X016904Y022876D02*
X018400Y021380D01*
X019593Y021380D01*
X019849Y021124D01*
X019849Y019647D01*
X020144Y019726D02*
X020144Y021301D01*
X019750Y021694D01*
X019085Y021694D01*
X017904Y022876D01*
X017030Y020750D02*
X014904Y022876D01*
X012939Y021372D02*
X011355Y021372D01*
X009861Y022846D01*
X008861Y022846D02*
X010650Y021076D01*
X012254Y021076D01*
X011829Y020754D02*
X012034Y020549D01*
X012034Y020171D01*
X011797Y020230D02*
X011797Y019986D01*
X011797Y020230D02*
X011510Y020517D01*
X011274Y020517D01*
X011270Y020513D01*
X009238Y020513D01*
X006876Y022860D01*
X007876Y022860D02*
X009998Y020754D01*
X011829Y020754D01*
X011393Y019979D02*
X010853Y019439D01*
X010853Y018655D01*
X011519Y019210D02*
X011519Y019324D01*
X011347Y019496D01*
X012467Y018742D02*
X012467Y017285D01*
X013530Y017206D02*
X013530Y019017D01*
X017030Y020750D02*
X019038Y020750D01*
X020400Y020572D02*
X020400Y019726D01*
X020400Y020572D02*
X021876Y022049D01*
X021876Y022864D01*
X017782Y018860D02*
X017782Y015907D01*
X017231Y015356D01*
X017231Y014765D01*
X016805Y014340D01*
X016805Y013608D01*
X016317Y013356D02*
X016837Y012836D01*
X016317Y013356D02*
X015935Y013356D01*
X015963Y013356D01*
X018490Y015946D02*
X018884Y015513D01*
X014002Y010080D02*
X012014Y010080D01*
X015034Y004242D02*
X013896Y003104D01*
X013896Y000797D01*
X013888Y000789D01*
X015034Y004242D02*
X015341Y004250D01*
D21*
X016892Y015057D03*
M02*
