G75*
G70*
%OFA0B0*%
%FSLAX24Y24*%
%IPPOS*%
%LPD*%
%AMOC8*
5,1,8,0,0,1.08239X$1,22.5*
%
%ADD10R,0.0400X0.0250*%
%ADD11R,0.0551X0.0472*%
%ADD12R,0.0394X0.0433*%
%ADD13R,0.0472X0.0472*%
%ADD14R,0.0433X0.0394*%
%ADD15R,0.0512X0.0512*%
%ADD16R,0.1417X0.0512*%
%ADD17R,0.0591X0.0768*%
%ADD18R,0.0768X0.0591*%
%ADD19OC8,0.0760*%
%ADD20R,0.0945X0.0787*%
%ADD21R,0.0909X0.0197*%
%ADD22R,0.0250X0.0400*%
%ADD23R,0.0512X0.0591*%
%ADD24C,0.0660*%
%ADD25R,0.1000X0.1000*%
%ADD26R,0.1024X0.0256*%
%ADD27R,0.0591X0.0098*%
%ADD28R,0.0098X0.0591*%
%ADD29C,0.0700*%
%ADD30R,0.0472X0.1260*%
%ADD31C,0.0098*%
%ADD32C,0.0320*%
%ADD33C,0.0400*%
%ADD34C,0.0160*%
%ADD35C,0.0500*%
%ADD36C,0.0500*%
%ADD37C,0.0100*%
%ADD38C,0.0240*%
%ADD39C,0.0320*%
%ADD40C,0.0120*%
%ADD41C,0.0297*%
D10*
X017786Y005570D03*
X018574Y005196D03*
X018574Y005944D03*
X022157Y007828D03*
X022157Y008576D03*
X022945Y008202D03*
D11*
G36*
X012143Y012704D02*
X011755Y012316D01*
X011421Y012650D01*
X011809Y013038D01*
X012143Y012704D01*
G37*
G36*
X011698Y013149D02*
X011310Y012761D01*
X010976Y013095D01*
X011364Y013483D01*
X011698Y013149D01*
G37*
G36*
X011085Y012537D02*
X010697Y012149D01*
X010363Y012483D01*
X010751Y012871D01*
X011085Y012537D01*
G37*
G36*
X011531Y012091D02*
X011143Y011703D01*
X010809Y012037D01*
X011197Y012425D01*
X011531Y012091D01*
G37*
D12*
X012719Y012046D03*
X012719Y011377D03*
X012711Y013195D03*
X012711Y013865D03*
X012983Y015851D03*
X012983Y016520D03*
X014029Y016518D03*
X014029Y015849D03*
X011926Y015851D03*
X011926Y016520D03*
X004458Y006723D03*
X004458Y006054D03*
X023859Y007529D03*
X023859Y008198D03*
D13*
X008205Y007591D03*
X007378Y007591D03*
X007349Y006506D03*
X008175Y006506D03*
X008136Y005450D03*
X007310Y005450D03*
D14*
X006095Y005424D03*
X005426Y005424D03*
X005734Y007898D03*
X005064Y007898D03*
X006273Y010815D03*
X006942Y010815D03*
X006927Y011878D03*
X006257Y011878D03*
X008310Y009857D03*
X008979Y009857D03*
X008979Y008997D03*
X008310Y008997D03*
X009367Y007603D03*
X010036Y007603D03*
X010046Y006514D03*
X009376Y006514D03*
X009347Y005444D03*
X010016Y005444D03*
X018063Y006694D03*
X018732Y006694D03*
X018728Y007640D03*
X018059Y007640D03*
X018075Y008617D03*
X018744Y008617D03*
X021752Y016741D03*
X022421Y016741D03*
X009500Y016097D03*
X008831Y016097D03*
D15*
X007570Y014255D03*
X006664Y014255D03*
X005759Y014255D03*
D16*
X006664Y016657D03*
D17*
X004570Y015690D03*
X004570Y014607D03*
X005205Y011888D03*
X005205Y010805D03*
X006231Y002712D03*
X006231Y001630D03*
D18*
X008826Y015026D03*
X009909Y015026D03*
D19*
X001963Y014709D03*
X001963Y015709D03*
X001963Y013709D03*
X001899Y022894D03*
X002899Y022894D03*
D20*
X003329Y011029D03*
X001164Y011029D03*
X001164Y007565D03*
X003329Y007565D03*
D21*
X003551Y008667D03*
X003551Y008982D03*
X003551Y009297D03*
X003551Y009612D03*
X003551Y009927D03*
D22*
X005750Y007120D03*
X005376Y006333D03*
X006124Y006333D03*
D23*
X013187Y010581D03*
X013935Y010581D03*
X016484Y016261D03*
X017232Y016261D03*
D24*
X016904Y022876D03*
X017904Y022876D03*
X018896Y022876D03*
X019896Y022876D03*
X020888Y022852D03*
X021888Y022852D03*
X022888Y022852D03*
X023888Y022852D03*
X024199Y016202D03*
X015904Y022876D03*
X014904Y022876D03*
X013890Y022847D03*
X012890Y022847D03*
X011890Y022847D03*
X010890Y022847D03*
X009861Y022846D03*
X008861Y022846D03*
X007876Y022860D03*
X006876Y022860D03*
X005876Y022860D03*
X007884Y000797D03*
X008884Y000797D03*
X009884Y000797D03*
X019899Y000777D03*
X020899Y000777D03*
X021899Y000777D03*
X022899Y000777D03*
X023899Y000777D03*
D25*
X002738Y018445D03*
X002738Y020295D03*
D26*
X022544Y013721D03*
X022544Y013221D03*
X022544Y012721D03*
X022544Y012221D03*
X022544Y011721D03*
X024001Y011721D03*
X024001Y012221D03*
X024001Y012721D03*
X024001Y013221D03*
X024001Y013721D03*
D27*
X018579Y013676D03*
X018579Y013479D03*
X018579Y013282D03*
X018579Y013085D03*
X018579Y012888D03*
X018579Y012691D03*
X018579Y012494D03*
X018579Y012298D03*
X018579Y012101D03*
X018579Y011904D03*
X018579Y011707D03*
X018579Y011510D03*
X015194Y011510D03*
X015194Y011707D03*
X015194Y011904D03*
X015194Y012101D03*
X015194Y012298D03*
X015194Y012494D03*
X015194Y012691D03*
X015194Y012888D03*
X015194Y013085D03*
X015194Y013282D03*
X015194Y013479D03*
X015194Y013676D03*
D28*
X015804Y014286D03*
X016001Y014286D03*
X016197Y014286D03*
X016394Y014286D03*
X016591Y014286D03*
X016788Y014286D03*
X016985Y014286D03*
X017182Y014286D03*
X017379Y014286D03*
X017575Y014286D03*
X017772Y014286D03*
X017969Y014286D03*
X017969Y010900D03*
X017772Y010900D03*
X017575Y010900D03*
X017379Y010900D03*
X017182Y010900D03*
X016985Y010900D03*
X016788Y010900D03*
X016591Y010900D03*
X016394Y010900D03*
X016197Y010900D03*
X016001Y010900D03*
X015804Y010900D03*
D29*
X015888Y000789D03*
X014888Y000789D03*
X013888Y000789D03*
X012888Y000789D03*
X011888Y000789D03*
X010888Y000789D03*
X016888Y000789D03*
X017888Y000789D03*
X018888Y000789D03*
D30*
X019801Y005596D03*
X021376Y005596D03*
X021376Y008273D03*
X019801Y008273D03*
X016577Y008289D03*
X015002Y008289D03*
X015002Y005612D03*
X016577Y005612D03*
D31*
X014731Y003663D02*
X014022Y004372D01*
X014022Y008880D01*
X014179Y009037D01*
X014278Y008624D02*
X014750Y009096D01*
X015553Y009096D01*
X016650Y010193D01*
X016581Y010116D01*
X016650Y010193D02*
X016788Y010346D01*
X016788Y010900D01*
X016975Y010890D02*
X016975Y009883D01*
X016876Y009785D01*
X017171Y009509D02*
X017182Y009520D01*
X017182Y010900D01*
X016994Y010891D02*
X016985Y010900D01*
X016975Y010890D01*
X017379Y010900D02*
X017379Y009716D01*
X017683Y009411D01*
X018057Y009411D01*
X017782Y009746D02*
X018451Y009746D01*
X018431Y010061D02*
X018845Y010061D01*
X018431Y010061D02*
X017969Y010523D01*
X017969Y010900D01*
X017772Y010900D02*
X017772Y010247D01*
X017939Y010080D01*
X017782Y009746D02*
X017575Y009952D01*
X017575Y010900D01*
X018274Y011045D02*
X018274Y010651D01*
X018549Y010376D01*
X019337Y010376D01*
X019376Y010336D01*
X019376Y009883D01*
X019278Y011104D02*
X019278Y011380D01*
X019147Y011510D01*
X018579Y011510D01*
X018579Y011707D02*
X019462Y011707D01*
X019612Y011557D01*
X020190Y011904D02*
X020400Y011694D01*
X020190Y011904D02*
X018579Y011904D01*
X018592Y012100D02*
X020786Y012100D01*
X020931Y011950D01*
X020931Y011045D01*
X020934Y010987D01*
X021231Y010691D01*
X022506Y010691D01*
X022979Y010218D01*
X023077Y010218D01*
X023274Y010021D01*
X023648Y010021D01*
X023766Y010139D01*
X023766Y011281D01*
X023727Y011320D01*
X023490Y011320D01*
X023313Y011498D01*
X023313Y012462D01*
X023572Y012721D01*
X024001Y012721D01*
X024001Y013221D02*
X023538Y013221D01*
X023538Y013261D01*
X023254Y013545D01*
X023254Y014234D01*
X024001Y014590D02*
X024001Y013721D01*
X024002Y014805D02*
X024002Y015080D01*
X024006Y015084D01*
X024006Y015360D01*
X023372Y015986D01*
X021797Y015986D01*
X021168Y016616D01*
X018412Y016616D01*
X018254Y016458D01*
X018254Y016065D01*
X017565Y015376D01*
X017565Y014296D01*
X017575Y014286D01*
X017379Y014286D02*
X017379Y015484D01*
X018057Y016163D01*
X018057Y016655D01*
X018175Y016813D01*
X021641Y016813D01*
X021752Y016741D01*
X022290Y016202D01*
X024199Y016202D01*
X022731Y015706D02*
X022731Y015281D01*
X022227Y014777D01*
X022227Y014289D01*
X021758Y013820D01*
X021758Y013533D01*
X021593Y013368D01*
X020951Y013368D01*
X020872Y013289D01*
X020872Y012659D01*
X020708Y012494D01*
X020887Y012298D02*
X021136Y012049D01*
X021136Y011498D01*
X021695Y010939D01*
X022994Y010939D01*
X022420Y010317D02*
X022467Y010269D01*
X022420Y010317D02*
X021014Y010317D01*
X021089Y009521D02*
X022010Y009521D01*
X022388Y009899D01*
X022880Y009899D01*
X022888Y009907D01*
X020887Y012298D02*
X018579Y012298D01*
X018586Y012108D02*
X018579Y012101D01*
X018579Y012691D02*
X020231Y012691D01*
X020400Y012860D01*
X020026Y013139D02*
X019775Y012888D01*
X018579Y012888D01*
X018579Y013085D02*
X019468Y013085D01*
X019624Y013242D01*
X019624Y013372D01*
X019790Y013537D01*
X019514Y013911D02*
X019396Y013793D01*
X019396Y013387D01*
X019290Y013282D01*
X018579Y013282D01*
X018579Y013479D02*
X019113Y013479D01*
X019140Y013506D01*
X019140Y014171D01*
X019238Y014269D01*
X019073Y014631D02*
X021380Y014631D01*
X021561Y014450D01*
X021345Y014124D02*
X021786Y014124D01*
X021955Y014293D01*
X021955Y014797D01*
X022349Y015191D01*
X022349Y015498D01*
X022246Y015600D01*
X022124Y015604D01*
X021526Y015604D01*
X021223Y015907D01*
X019435Y015907D01*
X019042Y015513D01*
X018884Y015513D01*
X019317Y015513D02*
X020931Y015513D01*
X021286Y015159D01*
X021530Y014844D02*
X021971Y015285D01*
X021703Y015785D02*
X022652Y015785D01*
X022731Y015706D01*
X021703Y015785D02*
X021266Y016222D01*
X018923Y016222D01*
X019317Y015513D02*
X018707Y014903D01*
X018175Y014903D01*
X017969Y014677D01*
X017969Y014286D01*
X017772Y014286D02*
X017772Y015091D01*
X018097Y015415D01*
X017182Y015876D02*
X017182Y014286D01*
X017182Y012925D01*
X017132Y012876D01*
X017152Y012856D01*
X017152Y012639D01*
X017093Y012580D01*
X017034Y012580D01*
X016345Y011891D01*
X016325Y011891D01*
X016581Y011576D02*
X016394Y011390D01*
X016394Y010900D01*
X016396Y010890D01*
X016591Y010900D02*
X016591Y010543D01*
X016073Y010025D01*
X015778Y010025D01*
X015892Y010356D02*
X015270Y010356D01*
X015262Y010348D01*
X015892Y010356D02*
X016001Y010465D01*
X016001Y010900D01*
X016187Y010890D02*
X016197Y010900D01*
X016197Y011428D01*
X016030Y011596D01*
X015708Y011904D02*
X015853Y012049D01*
X015708Y011904D02*
X015194Y011904D01*
X015186Y011714D02*
X015194Y011707D01*
X015181Y011694D01*
X014593Y011694D01*
X014514Y011616D01*
X014514Y010159D01*
X014278Y009923D01*
X013727Y009923D01*
X013628Y009824D01*
X013628Y004037D01*
X014494Y003171D01*
X016463Y003171D01*
X015695Y002935D02*
X014416Y002935D01*
X013451Y003899D01*
X013136Y003840D02*
X013136Y008958D01*
X012014Y010080D01*
X011384Y009726D02*
X011364Y009746D01*
X011384Y009726D02*
X011384Y007797D01*
X011502Y007679D01*
X011502Y005533D01*
X010380Y004411D01*
X004888Y004411D01*
X004458Y004841D01*
X004458Y006054D01*
X008979Y008997D02*
X008980Y008998D01*
X009888Y009017D01*
X009882Y009857D02*
X009888Y009864D01*
X009882Y009857D02*
X008979Y009857D01*
X007590Y010815D02*
X006942Y010815D01*
X009888Y012187D02*
X009888Y012639D01*
X011581Y014332D01*
X012998Y014332D01*
X013234Y014096D01*
X013234Y013958D01*
X013353Y013840D01*
X013825Y013840D01*
X013904Y013919D01*
X013904Y014647D01*
X014101Y014844D01*
X014750Y014844D01*
X014888Y014706D01*
X014888Y014234D01*
X014790Y014135D01*
X014790Y013840D01*
X014954Y013676D01*
X015194Y013676D01*
X015194Y013479D02*
X015181Y013466D01*
X014691Y013466D01*
X014514Y013643D01*
X014514Y014470D01*
X015046Y014962D02*
X015321Y014687D01*
X015656Y014687D01*
X015794Y014549D01*
X015794Y014296D01*
X015804Y014286D01*
X016001Y014286D02*
X016001Y014893D01*
X015872Y015021D01*
X015577Y015021D01*
X015439Y015159D01*
X015833Y015415D02*
X016197Y015050D01*
X016197Y014286D01*
X016394Y014286D02*
X016394Y015346D01*
X015794Y015946D01*
X015794Y017088D01*
X016484Y016261D02*
X016581Y016023D01*
X016591Y015819D02*
X016484Y016261D01*
X016591Y015819D02*
X016591Y014286D01*
X016985Y014286D02*
X016985Y014964D01*
X016892Y015057D01*
X017182Y015876D02*
X017232Y016261D01*
X019002Y014844D02*
X021530Y014844D01*
X021345Y014124D02*
X021278Y014057D01*
X021278Y013734D01*
X019073Y014631D02*
X018723Y014281D01*
X018723Y013946D01*
X018579Y013803D01*
X018579Y013676D01*
X018372Y014057D02*
X018372Y014214D01*
X019002Y014844D01*
X017132Y012876D02*
X015206Y012876D01*
X013664Y012876D01*
X012711Y013865D01*
X012711Y013195D02*
X012711Y013175D01*
X013179Y012691D02*
X015194Y012691D01*
X015206Y012876D02*
X015194Y012888D01*
X015201Y012895D01*
X015194Y013085D02*
X014639Y013085D01*
X014455Y013269D01*
X015194Y013282D02*
X015865Y013282D01*
X015935Y013356D01*
X015194Y012494D02*
X013108Y012494D01*
X014238Y011970D02*
X014242Y011970D01*
X014372Y012100D01*
X015193Y012100D01*
X015194Y012101D01*
X015194Y012298D02*
X014604Y012298D01*
X014805Y011509D02*
X015197Y011509D01*
X014805Y011509D02*
X014750Y011458D01*
X014750Y009868D01*
X014526Y009647D01*
X013963Y009647D01*
X013825Y009509D01*
X013825Y004214D01*
X014632Y003407D01*
X017585Y003407D01*
X017762Y003230D01*
X018510Y003663D02*
X014731Y003663D01*
X014278Y004490D02*
X014278Y008624D01*
X012467Y008309D02*
X012467Y002147D01*
X012014Y002403D02*
X012014Y005582D01*
X012022Y005590D01*
X012022Y008033D01*
X011687Y008368D01*
X011687Y010781D01*
X011679Y010789D01*
X011561Y011202D02*
X010872Y011202D01*
X009888Y012187D01*
X010321Y011242D02*
X010597Y010966D01*
X011170Y012064D02*
X011203Y012098D01*
X011337Y013122D02*
X011370Y013155D01*
X011703Y013155D01*
X011896Y013348D01*
X011374Y013160D02*
X011337Y013122D01*
X012979Y014647D02*
X012979Y015846D01*
X012983Y015851D01*
X013510Y015330D02*
X014029Y015849D01*
X014048Y015868D01*
X014386Y015868D01*
X014679Y016160D01*
X014679Y016898D01*
X014684Y016903D01*
X014558Y018615D02*
X013695Y019478D01*
X013695Y020856D01*
X014105Y021265D01*
X018416Y021265D01*
X018648Y021498D01*
X019089Y020998D02*
X019671Y021580D01*
X019089Y020998D02*
X014223Y020998D01*
X013963Y020738D01*
X013963Y019671D01*
X014254Y019380D01*
X014254Y019375D01*
X014379Y019250D01*
X017995Y019250D01*
X018093Y019157D01*
X018089Y018638D01*
X016629Y020139D02*
X016155Y019666D01*
X015746Y019666D01*
X016629Y020139D02*
X020935Y020139D01*
X021384Y019691D01*
X019443Y020356D02*
X020892Y021805D01*
X020892Y022872D01*
X022417Y022015D02*
X023027Y022015D01*
X023888Y022852D01*
X023892Y022860D01*
X019443Y020356D02*
X014696Y020356D01*
X014558Y018615D02*
X015543Y018615D01*
X013510Y015330D02*
X013510Y014234D01*
X011935Y014943D02*
X011935Y015842D01*
X011926Y015851D01*
X015267Y010900D02*
X015258Y010891D01*
X015267Y010900D02*
X015804Y010900D01*
X016197Y010900D02*
X016195Y010841D01*
X012329Y008919D02*
X012329Y008446D01*
X012467Y008309D01*
X011266Y007443D02*
X010951Y007757D01*
X010951Y009313D01*
X011266Y007443D02*
X011266Y005631D01*
X011079Y005444D01*
X010016Y005444D01*
X013136Y003840D02*
X014317Y002659D01*
X014593Y002659D01*
X014750Y002502D01*
X018510Y003663D02*
X018750Y003423D01*
D32*
X018381Y003254D03*
X020609Y003423D03*
X023770Y003340D03*
X024250Y005297D03*
X023118Y009067D03*
X022888Y009907D03*
X022467Y010269D03*
X022994Y010939D03*
X023364Y010399D03*
X024380Y010380D03*
X021652Y011974D03*
X020934Y010987D03*
X020333Y010616D03*
X021014Y010317D03*
X021089Y009521D03*
X020360Y009773D03*
X018845Y010061D03*
X018451Y009746D03*
X018057Y009411D03*
X017939Y010080D03*
X017171Y009509D03*
X016876Y009785D03*
X015778Y010025D03*
X015262Y010348D03*
X015258Y010891D03*
X016030Y011596D03*
X015853Y012049D03*
X016581Y011576D03*
X017477Y011905D03*
X018274Y011045D03*
X018628Y010789D03*
X019278Y011104D03*
X019612Y011557D03*
X020400Y011694D03*
X020400Y012860D03*
X020026Y013139D03*
X019790Y013537D03*
X019514Y013911D03*
X019238Y014269D03*
X018372Y014057D03*
X018175Y014903D03*
X018097Y015415D03*
X018884Y015513D03*
X018923Y016222D03*
X017044Y017407D03*
X016256Y017456D03*
X015794Y017088D03*
X015469Y016472D03*
X015046Y016065D03*
X015833Y015415D03*
X015439Y015159D03*
X014514Y014470D03*
X014386Y015173D03*
X013510Y014234D03*
X012979Y014647D03*
X012359Y014647D03*
X011935Y014943D03*
X011807Y013657D03*
X012549Y012628D03*
X013431Y011832D03*
X014238Y011970D03*
X014455Y013269D03*
X015935Y013356D03*
X016805Y013608D03*
X014684Y016903D03*
X013530Y017206D03*
X012467Y017285D03*
X011347Y019496D03*
X011393Y019979D03*
X012752Y021059D03*
X011453Y021836D03*
X014696Y020356D03*
X015746Y019666D03*
X015543Y018615D03*
X016443Y018614D03*
X017309Y018614D03*
X018089Y018638D03*
X021384Y019691D03*
X022398Y018598D03*
X022799Y017444D03*
X021925Y017378D03*
X021971Y015285D03*
X021286Y015159D03*
X021561Y014450D03*
X021278Y013734D03*
X023254Y014234D03*
X024160Y019454D03*
X022418Y020960D03*
X022417Y022015D03*
X024323Y021976D03*
X012014Y010080D03*
X011364Y009746D03*
X010951Y009313D03*
X009888Y009017D03*
X009888Y009864D03*
X009215Y010450D03*
X008323Y011462D03*
X007841Y012584D03*
X009849Y014155D03*
X009957Y016836D03*
X008826Y016813D03*
X006906Y018086D03*
X005272Y018352D03*
X004140Y017659D03*
X001197Y018876D03*
X001201Y021161D03*
X000990Y015842D03*
X001040Y012348D03*
X006601Y010084D03*
X007565Y008559D03*
X010321Y011242D03*
X012329Y008919D03*
X012723Y008584D03*
X014179Y009037D03*
X015341Y004250D03*
X013410Y003067D03*
X011573Y003391D03*
X009797Y004120D03*
X008776Y005084D03*
X005187Y003714D03*
X004878Y004966D03*
X003175Y005907D03*
X003796Y006738D03*
X001876Y006147D03*
X001335Y004746D03*
X001323Y002273D03*
X006164Y000832D03*
X020397Y007975D03*
D33*
X009849Y014313D02*
X009731Y014175D01*
X008333Y012777D01*
X006368Y012777D01*
X005951Y012777D01*
X005759Y012969D01*
X005759Y014255D01*
X005741Y014273D01*
X004888Y014273D01*
X004570Y014591D01*
X004570Y014607D01*
X004570Y015690D02*
X007054Y015690D01*
X007565Y015179D01*
X007565Y014220D01*
X007570Y014255D01*
X006664Y014255D02*
X006664Y013402D01*
X006699Y013368D01*
X007979Y013368D01*
X008727Y014116D01*
X008746Y014946D01*
X008826Y015026D01*
X009849Y014966D02*
X009849Y014313D01*
X009849Y014966D02*
X009909Y015026D01*
X009927Y015044D01*
X009927Y015691D01*
X009521Y016097D01*
X009500Y016097D01*
X009909Y015026D02*
X009927Y015007D01*
X004570Y015691D02*
X004570Y015690D01*
X004570Y015691D02*
X003943Y015691D01*
X002962Y014709D01*
X001963Y014709D01*
X001963Y015709D02*
X002033Y015709D01*
X002703Y016380D01*
X002703Y018410D01*
X002738Y018445D01*
X002683Y020080D02*
X002683Y020241D01*
X002738Y020295D01*
X002899Y020456D01*
X002899Y022894D01*
X002742Y020139D02*
X002683Y020080D01*
D34*
X000709Y006971D02*
X000709Y000330D01*
X007677Y000330D01*
X007617Y000361D01*
X007552Y000408D01*
X007495Y000465D01*
X007448Y000530D01*
X007411Y000601D01*
X007387Y000677D01*
X007374Y000757D01*
X007374Y000778D01*
X007866Y000778D01*
X007866Y000815D01*
X007374Y000815D01*
X007374Y000837D01*
X007387Y000916D01*
X007411Y000993D01*
X007448Y001064D01*
X007495Y001129D01*
X007552Y001186D01*
X007617Y001233D01*
X007688Y001269D01*
X007765Y001294D01*
X007844Y001307D01*
X007866Y001307D01*
X007866Y000815D01*
X007903Y000815D01*
X007903Y001307D01*
X007924Y001307D01*
X008004Y001294D01*
X008080Y001269D01*
X008151Y001233D01*
X008216Y001186D01*
X008273Y001129D01*
X008320Y001064D01*
X008357Y000993D01*
X008372Y000946D01*
X008435Y001097D01*
X008524Y001186D01*
X008524Y002333D01*
X008168Y002689D01*
X006727Y002689D01*
X006727Y002246D01*
X006638Y002157D01*
X006671Y002124D01*
X006694Y002083D01*
X006707Y002037D01*
X006707Y001697D01*
X006299Y001697D01*
X006299Y001562D01*
X006707Y001562D01*
X006707Y001222D01*
X006694Y001176D01*
X006671Y001135D01*
X006637Y001102D01*
X006596Y001078D01*
X006550Y001066D01*
X006299Y001066D01*
X006299Y001562D01*
X006164Y001562D01*
X006164Y001066D01*
X005912Y001066D01*
X005867Y001078D01*
X005825Y001102D01*
X005792Y001135D01*
X005768Y001176D01*
X005756Y001222D01*
X005756Y001562D01*
X006164Y001562D01*
X006164Y001697D01*
X005756Y001697D01*
X005756Y002037D01*
X005768Y002083D01*
X005792Y002124D01*
X005825Y002157D01*
X005736Y002246D01*
X005736Y002689D01*
X004303Y002689D01*
X004234Y002688D01*
X004232Y002689D01*
X004230Y002689D01*
X004165Y002715D01*
X004101Y002741D01*
X004099Y002743D01*
X004097Y002744D01*
X004048Y002793D01*
X002958Y003860D01*
X002926Y003881D01*
X002907Y003910D01*
X002883Y003934D01*
X002868Y003969D01*
X002847Y004000D01*
X002840Y004034D01*
X002826Y004066D01*
X002826Y004104D01*
X002824Y004115D01*
X002810Y004149D01*
X002810Y004185D01*
X002803Y004219D01*
X002810Y004256D01*
X002815Y005908D01*
X002815Y005979D01*
X002816Y005979D01*
X002816Y005980D01*
X002843Y006045D01*
X002870Y006111D01*
X002871Y006111D01*
X002871Y006112D01*
X002921Y006162D01*
X002972Y006212D01*
X002972Y006213D01*
X002973Y006213D01*
X003038Y006240D01*
X003104Y006267D01*
X003104Y006267D01*
X003105Y006267D01*
X003176Y006267D01*
X003247Y006267D01*
X003248Y006267D01*
X003248Y006267D01*
X003314Y006239D01*
X003379Y006212D01*
X003380Y006212D01*
X003380Y006212D01*
X003430Y006161D01*
X003481Y006111D01*
X003481Y006110D01*
X003481Y006110D01*
X003508Y006044D01*
X003535Y005979D01*
X003535Y005978D01*
X003536Y005977D01*
X003535Y005906D01*
X003535Y005835D01*
X003535Y005835D01*
X003530Y004308D01*
X004448Y003409D01*
X011765Y003409D01*
X011765Y003567D02*
X004286Y003567D01*
X004124Y003726D02*
X011765Y003726D01*
X011765Y003884D02*
X003962Y003884D01*
X003801Y004043D02*
X011765Y004043D01*
X011765Y004201D02*
X010523Y004201D01*
X010521Y004200D02*
X011643Y005322D01*
X011643Y005322D01*
X011713Y005392D01*
X011751Y005483D01*
X011751Y007728D01*
X011713Y007820D01*
X011633Y007900D01*
X011633Y008069D01*
X011773Y007930D01*
X011773Y005651D01*
X011765Y005632D01*
X011765Y002507D01*
X010676Y001419D01*
X010638Y001327D01*
X010638Y001281D01*
X010576Y001255D01*
X010422Y001101D01*
X010377Y000992D01*
X010333Y001097D01*
X010184Y001246D01*
X009990Y001327D01*
X009779Y001327D01*
X009584Y001246D01*
X009435Y001097D01*
X009384Y000975D01*
X009333Y001097D01*
X009244Y001186D01*
X009244Y002553D01*
X009189Y002686D01*
X009088Y002787D01*
X008521Y003354D01*
X008389Y003409D01*
X004448Y003409D01*
X003905Y002933D02*
X000709Y002933D01*
X000709Y002775D02*
X004066Y002775D01*
X003743Y003092D02*
X000709Y003092D01*
X000709Y003250D02*
X003581Y003250D01*
X003419Y003409D02*
X000709Y003409D01*
X000709Y003567D02*
X003257Y003567D01*
X003095Y003726D02*
X000709Y003726D01*
X000709Y003884D02*
X002924Y003884D01*
X002836Y004043D02*
X000709Y004043D01*
X000709Y004201D02*
X002806Y004201D01*
X002810Y004360D02*
X000709Y004360D01*
X000709Y004518D02*
X002811Y004518D01*
X002811Y004677D02*
X000709Y004677D01*
X000709Y004835D02*
X002812Y004835D01*
X002812Y004994D02*
X000709Y004994D01*
X000709Y005152D02*
X002813Y005152D01*
X002813Y005311D02*
X000709Y005311D01*
X000709Y005469D02*
X002814Y005469D01*
X002814Y005628D02*
X000709Y005628D01*
X000709Y005786D02*
X002815Y005786D01*
X002815Y005945D02*
X000709Y005945D01*
X000709Y006103D02*
X002867Y006103D01*
X003091Y006262D02*
X000709Y006262D01*
X000709Y006420D02*
X004064Y006420D01*
X004061Y006423D02*
X004097Y006388D01*
X004061Y006353D01*
X004061Y005754D01*
X004178Y005637D01*
X004209Y005637D01*
X004209Y004791D01*
X004247Y004700D01*
X004677Y004270D01*
X004747Y004200D01*
X004838Y004162D01*
X010430Y004162D01*
X010521Y004200D01*
X010681Y004360D02*
X011765Y004360D01*
X011765Y004518D02*
X010840Y004518D01*
X010998Y004677D02*
X011765Y004677D01*
X011765Y004835D02*
X011157Y004835D01*
X011315Y004994D02*
X011765Y004994D01*
X011765Y005152D02*
X011474Y005152D01*
X011632Y005311D02*
X011765Y005311D01*
X011765Y005469D02*
X011746Y005469D01*
X011751Y005628D02*
X011765Y005628D01*
X011751Y005786D02*
X011773Y005786D01*
X011773Y005945D02*
X011751Y005945D01*
X011751Y006103D02*
X011773Y006103D01*
X011773Y006262D02*
X011751Y006262D01*
X011751Y006420D02*
X011773Y006420D01*
X011773Y006579D02*
X011751Y006579D01*
X011751Y006737D02*
X011773Y006737D01*
X011773Y006896D02*
X011751Y006896D01*
X011751Y007054D02*
X011773Y007054D01*
X011773Y007213D02*
X011751Y007213D01*
X011751Y007371D02*
X011773Y007371D01*
X011773Y007530D02*
X011751Y007530D01*
X011751Y007688D02*
X011773Y007688D01*
X011773Y007847D02*
X011687Y007847D01*
X011697Y008005D02*
X011633Y008005D01*
X010954Y007402D02*
X010863Y007440D01*
X010684Y007440D01*
X010519Y007371D01*
X010392Y007245D01*
X010373Y007198D01*
X010300Y007168D01*
X010222Y007089D01*
X010043Y006911D01*
X009746Y006911D01*
X009711Y006876D01*
X009676Y006911D01*
X009077Y006911D01*
X008960Y006794D01*
X008612Y006794D01*
X008612Y006825D01*
X008494Y006943D01*
X007856Y006943D01*
X007743Y006829D01*
X007729Y006853D01*
X007695Y006887D01*
X007654Y006910D01*
X007609Y006923D01*
X007387Y006923D01*
X007387Y006544D01*
X007311Y006544D01*
X007311Y006468D01*
X007387Y006468D01*
X007387Y006164D01*
X007210Y005987D01*
X007131Y005908D01*
X007122Y005886D01*
X006991Y005886D01*
X006873Y005769D01*
X006873Y005727D01*
X006490Y005725D01*
X006404Y005811D01*
X006404Y006005D01*
X006449Y006050D01*
X006449Y006616D01*
X006332Y006733D01*
X005971Y006733D01*
X006075Y006838D01*
X006075Y007403D01*
X006014Y007465D01*
X006014Y007502D01*
X006033Y007502D01*
X006147Y007615D01*
X006937Y007615D01*
X006942Y007611D01*
X006942Y007272D01*
X007059Y007155D01*
X007697Y007155D01*
X007791Y007249D01*
X007886Y007155D01*
X008524Y007155D01*
X008641Y007272D01*
X008641Y007323D01*
X008951Y007323D01*
X009067Y007206D01*
X009666Y007206D01*
X009717Y007257D01*
X009750Y007239D01*
X009796Y007226D01*
X010018Y007226D01*
X010018Y007585D01*
X010054Y007585D01*
X010054Y007226D01*
X010276Y007226D01*
X010322Y007239D01*
X010363Y007262D01*
X010397Y007296D01*
X010420Y007337D01*
X010433Y007383D01*
X010433Y007585D01*
X010054Y007585D01*
X010054Y007622D01*
X010018Y007622D01*
X010018Y007980D01*
X009796Y007980D01*
X009750Y007968D01*
X009717Y007949D01*
X009666Y008000D01*
X009067Y008000D01*
X008951Y007883D01*
X008641Y007883D01*
X008641Y007910D01*
X008524Y008028D01*
X007886Y008028D01*
X007791Y007933D01*
X007697Y008028D01*
X007317Y008028D01*
X007291Y008054D01*
X007212Y008133D01*
X007109Y008175D01*
X006150Y008175D01*
X006150Y008178D01*
X006033Y008295D01*
X005434Y008295D01*
X005399Y008260D01*
X005364Y008295D01*
X005344Y008295D01*
X005344Y009017D01*
X007834Y009017D01*
X007894Y008970D01*
X007894Y008717D01*
X008011Y008600D01*
X008609Y008600D01*
X008645Y008635D01*
X008680Y008600D01*
X009279Y008600D01*
X009396Y008717D01*
X009396Y008757D01*
X009634Y008763D01*
X009684Y008712D01*
X009816Y008657D01*
X009960Y008657D01*
X010092Y008712D01*
X010193Y008813D01*
X010248Y008946D01*
X010248Y009089D01*
X010193Y009221D01*
X010092Y009323D01*
X009960Y009377D01*
X009816Y009377D01*
X009684Y009323D01*
X009622Y009261D01*
X009396Y009256D01*
X009396Y009277D01*
X009279Y009394D01*
X008680Y009394D01*
X008645Y009358D01*
X008609Y009394D01*
X008260Y009394D01*
X008250Y009402D01*
X008309Y009461D01*
X008609Y009461D01*
X008645Y009496D01*
X008680Y009461D01*
X009279Y009461D01*
X009396Y009578D01*
X009396Y009608D01*
X009634Y009608D01*
X009684Y009559D01*
X009816Y009504D01*
X009960Y009504D01*
X010092Y009559D01*
X010193Y009660D01*
X010248Y009792D01*
X010248Y009935D01*
X010193Y010068D01*
X010092Y010169D01*
X009960Y010224D01*
X009816Y010224D01*
X009684Y010169D01*
X009622Y010107D01*
X009396Y010107D01*
X009396Y010136D01*
X009419Y010145D01*
X009520Y010246D01*
X009575Y010379D01*
X009575Y010522D01*
X009520Y010654D01*
X009419Y010756D01*
X009286Y010810D01*
X009143Y010810D01*
X009011Y010756D01*
X008956Y010700D01*
X008059Y010700D01*
X007732Y011027D01*
X007640Y011065D01*
X007541Y011065D01*
X007539Y011064D01*
X007359Y011064D01*
X007359Y011095D01*
X007287Y011167D01*
X007287Y011542D01*
X007343Y011598D01*
X007343Y012158D01*
X007226Y012275D01*
X006627Y012275D01*
X006576Y012224D01*
X006543Y012243D01*
X006498Y012255D01*
X006276Y012255D01*
X006276Y011896D01*
X006239Y011896D01*
X006239Y011860D01*
X005861Y011860D01*
X005861Y011657D01*
X005873Y011612D01*
X005897Y011571D01*
X005930Y011537D01*
X005971Y011513D01*
X006017Y011501D01*
X006239Y011501D01*
X006239Y011860D01*
X006276Y011860D01*
X006276Y011501D01*
X006498Y011501D01*
X006543Y011513D01*
X006567Y011527D01*
X006567Y011212D01*
X005974Y011212D01*
X005927Y011165D01*
X005700Y011165D01*
X005700Y011272D01*
X005611Y011361D01*
X005644Y011393D01*
X005668Y011434D01*
X005680Y011480D01*
X005680Y011820D01*
X005272Y011820D01*
X005272Y011955D01*
X005680Y011955D01*
X005680Y012295D01*
X005668Y012341D01*
X005644Y012382D01*
X005610Y012416D01*
X005569Y012439D01*
X005524Y012452D01*
X005272Y012452D01*
X005272Y011955D01*
X005137Y011955D01*
X005137Y011820D01*
X004729Y011820D01*
X004729Y011480D01*
X004742Y011434D01*
X004765Y011393D01*
X004798Y011361D01*
X004723Y011286D01*
X004618Y011391D01*
X004618Y013164D01*
X004563Y013296D01*
X004462Y013397D01*
X003845Y014015D01*
X003712Y014069D01*
X002423Y014069D01*
X002283Y014209D01*
X002383Y014309D01*
X003042Y014309D01*
X003189Y014370D01*
X004075Y015256D01*
X004075Y015223D01*
X004163Y015135D01*
X004131Y015102D01*
X004107Y015061D01*
X004095Y015015D01*
X004095Y014675D01*
X004502Y014675D01*
X004502Y014540D01*
X004095Y014540D01*
X004095Y014200D01*
X004107Y014154D01*
X004131Y014113D01*
X004164Y014080D01*
X004205Y014056D01*
X004251Y014044D01*
X004502Y014044D01*
X004502Y014540D01*
X004638Y014540D01*
X004638Y014675D01*
X005045Y014675D01*
X005045Y015015D01*
X005033Y015061D01*
X005009Y015102D01*
X004976Y015135D01*
X005065Y015223D01*
X005065Y015290D01*
X006888Y015290D01*
X007165Y015013D01*
X007165Y014645D01*
X007117Y014597D01*
X007003Y014711D01*
X006326Y014711D01*
X006209Y014594D01*
X006209Y013916D01*
X006264Y013860D01*
X006264Y013323D01*
X006325Y013176D01*
X006360Y013141D01*
X006472Y013029D01*
X006619Y012968D01*
X008058Y012968D01*
X008205Y013029D01*
X009006Y013830D01*
X009060Y013881D01*
X009062Y013886D01*
X009066Y013889D01*
X009094Y013958D01*
X009125Y014027D01*
X009125Y014032D01*
X009127Y014036D01*
X009127Y014111D01*
X009137Y014531D01*
X009293Y014531D01*
X009382Y014619D01*
X009415Y014587D01*
X009456Y014563D01*
X009501Y014551D01*
X009841Y014551D01*
X009841Y014958D01*
X009977Y014958D01*
X009977Y015094D01*
X010473Y015094D01*
X010473Y015345D01*
X010460Y015391D01*
X010437Y015432D01*
X010403Y015465D01*
X010362Y015489D01*
X010316Y015501D01*
X009977Y015501D01*
X009977Y015094D01*
X009841Y015094D01*
X009841Y015501D01*
X009501Y015501D01*
X009456Y015489D01*
X009415Y015465D01*
X009382Y015432D01*
X009293Y015521D01*
X009276Y015521D01*
X009276Y015720D01*
X009481Y015720D01*
X009481Y016078D01*
X009518Y016078D01*
X009518Y015720D01*
X009740Y015720D01*
X009786Y015732D01*
X009827Y015756D01*
X009860Y015789D01*
X009884Y015831D01*
X009896Y015876D01*
X009896Y016078D01*
X009518Y016078D01*
X009518Y016115D01*
X009481Y016115D01*
X009481Y016474D01*
X009276Y016474D01*
X009276Y017524D01*
X011606Y017524D01*
X011606Y016897D01*
X011529Y016820D01*
X011529Y016221D01*
X011564Y016186D01*
X011529Y016151D01*
X011529Y015552D01*
X011646Y015435D01*
X011686Y015435D01*
X011686Y015202D01*
X011630Y015146D01*
X011575Y015014D01*
X011575Y014871D01*
X011630Y014739D01*
X011731Y014637D01*
X011864Y014583D01*
X012007Y014583D01*
X012139Y014637D01*
X012240Y014739D01*
X012295Y014871D01*
X012295Y015014D01*
X012240Y015146D01*
X012184Y015202D01*
X012184Y015435D01*
X012206Y015435D01*
X012323Y015552D01*
X012323Y015601D01*
X012421Y015601D01*
X012513Y015639D01*
X012586Y015713D01*
X012586Y015552D01*
X012704Y015435D01*
X012729Y015435D01*
X012729Y014907D01*
X012673Y014851D01*
X012619Y014719D01*
X012619Y014581D01*
X011531Y014581D01*
X011440Y014544D01*
X011370Y014473D01*
X009677Y012781D01*
X009639Y012689D01*
X009639Y012137D01*
X009677Y012045D01*
X009747Y011975D01*
X010158Y011564D01*
X010117Y011547D01*
X010016Y011446D01*
X009961Y011313D01*
X009961Y011170D01*
X010016Y011038D01*
X010117Y010937D01*
X010249Y010882D01*
X010329Y010882D01*
X010384Y010826D01*
X010385Y010825D01*
X010455Y010754D01*
X010547Y010716D01*
X011399Y010716D01*
X011438Y010677D01*
X011438Y010105D01*
X011436Y010106D01*
X011293Y010106D01*
X011160Y010051D01*
X011059Y009950D01*
X011004Y009817D01*
X011004Y009674D01*
X011005Y009673D01*
X010879Y009673D01*
X010747Y009618D01*
X010646Y009517D01*
X010591Y009384D01*
X010591Y009241D01*
X010646Y009109D01*
X010702Y009053D01*
X010702Y007708D01*
X010740Y007616D01*
X010810Y007546D01*
X010954Y007402D01*
X010826Y007530D02*
X010433Y007530D01*
X010433Y007622D02*
X010433Y007824D01*
X010420Y007869D01*
X010397Y007911D01*
X010363Y007944D01*
X010322Y007968D01*
X010276Y007980D01*
X010054Y007980D01*
X010054Y007622D01*
X010433Y007622D01*
X010433Y007688D02*
X010710Y007688D01*
X010702Y007847D02*
X010426Y007847D01*
X010702Y008005D02*
X008546Y008005D01*
X008216Y007603D02*
X008205Y007591D01*
X008216Y007603D02*
X009367Y007603D01*
X009673Y007213D02*
X010379Y007213D01*
X010430Y007371D02*
X010519Y007371D01*
X010774Y006990D02*
X010715Y006931D01*
X010459Y006931D01*
X010046Y006517D01*
X010046Y006514D01*
X010046Y006261D01*
X009829Y006045D01*
X007664Y006045D01*
X007368Y005750D01*
X007368Y005457D01*
X007310Y005450D01*
X006114Y005442D01*
X006095Y005424D01*
X006124Y005453D01*
X006124Y006333D01*
X006124Y005431D01*
X006069Y005376D01*
X006069Y005415D01*
X006089Y005435D01*
X005760Y005062D02*
X005796Y005027D01*
X006394Y005027D01*
X006512Y005144D01*
X006512Y005165D01*
X006873Y005167D01*
X006873Y005131D01*
X006991Y005014D01*
X007629Y005014D01*
X007723Y005108D01*
X007817Y005014D01*
X008456Y005014D01*
X008573Y005131D01*
X008573Y005164D01*
X008931Y005164D01*
X009048Y005048D01*
X009646Y005048D01*
X009682Y005083D01*
X009717Y005048D01*
X010316Y005048D01*
X010433Y005165D01*
X010433Y005195D01*
X010812Y005195D01*
X010277Y004660D01*
X004991Y004660D01*
X004707Y004944D01*
X004707Y005637D01*
X004738Y005637D01*
X004855Y005754D01*
X004855Y006353D01*
X004820Y006388D01*
X004855Y006423D01*
X004855Y006442D01*
X004890Y006442D01*
X005051Y006281D01*
X005051Y006050D01*
X005096Y006005D01*
X005096Y005790D01*
X005009Y005703D01*
X005009Y005144D01*
X005126Y005027D01*
X005725Y005027D01*
X005760Y005062D01*
X005426Y005424D02*
X005376Y005473D01*
X005376Y006333D01*
X005376Y006352D01*
X005006Y006722D01*
X004459Y006722D01*
X004458Y006723D01*
X004061Y006737D02*
X000709Y006737D01*
X000709Y006579D02*
X004061Y006579D01*
X004061Y006423D02*
X004061Y007022D01*
X004178Y007139D01*
X004738Y007139D01*
X004855Y007022D01*
X004855Y007002D01*
X005062Y007002D01*
X005165Y006959D01*
X005244Y006881D01*
X005391Y006733D01*
X005530Y006733D01*
X005425Y006838D01*
X005425Y007403D01*
X005454Y007432D01*
X005454Y007502D01*
X005434Y007502D01*
X005399Y007537D01*
X005364Y007502D01*
X004765Y007502D01*
X004648Y007619D01*
X004648Y008178D01*
X004765Y008295D01*
X004784Y008295D01*
X004784Y009017D01*
X004185Y009017D01*
X004185Y008982D01*
X003551Y008982D01*
X003551Y008982D01*
X002917Y008982D01*
X002917Y009096D01*
X002897Y009116D01*
X002897Y010108D01*
X003014Y010225D01*
X004088Y010225D01*
X004107Y010207D01*
X004725Y010207D01*
X004783Y010265D01*
X004709Y010338D01*
X004709Y010445D01*
X004623Y010445D01*
X004491Y010500D01*
X004001Y010989D01*
X004001Y010553D01*
X003884Y010435D01*
X002774Y010435D01*
X002657Y010553D01*
X002657Y011506D01*
X002774Y011623D01*
X003884Y011623D01*
X003898Y011609D01*
X003898Y012943D01*
X003492Y013349D01*
X002423Y013349D01*
X002203Y013129D01*
X001723Y013129D01*
X001383Y013469D01*
X001383Y013950D01*
X001643Y014209D01*
X001383Y014469D01*
X001383Y014950D01*
X001643Y015209D01*
X001383Y015469D01*
X001383Y015950D01*
X001723Y016289D01*
X002047Y016289D01*
X002303Y016545D01*
X002303Y017745D01*
X002155Y017745D01*
X002038Y017862D01*
X002038Y019028D01*
X002155Y019145D01*
X003320Y019145D01*
X003438Y019028D01*
X003438Y017862D01*
X003320Y017745D01*
X003103Y017745D01*
X003103Y016300D01*
X003042Y016153D01*
X002930Y016040D01*
X002543Y015654D01*
X002543Y015469D01*
X002283Y015209D01*
X002383Y015109D01*
X002796Y015109D01*
X003717Y016030D01*
X003864Y016091D01*
X004075Y016091D01*
X004075Y016157D01*
X004192Y016274D01*
X004948Y016274D01*
X005065Y016157D01*
X005065Y016090D01*
X007133Y016090D01*
X007280Y016029D01*
X007792Y015518D01*
X007904Y015405D01*
X007965Y015258D01*
X007965Y014654D01*
X008026Y014594D01*
X008026Y013981D01*
X008331Y014285D01*
X008337Y014553D01*
X008242Y014648D01*
X008242Y015404D01*
X008360Y015521D01*
X008376Y015521D01*
X008376Y017809D01*
X008445Y017974D01*
X008699Y018229D01*
X008826Y018356D01*
X008991Y018424D01*
X014397Y018424D01*
X013484Y019337D01*
X013446Y019428D01*
X013446Y020905D01*
X013484Y020997D01*
X013893Y021407D01*
X013963Y021477D01*
X014055Y021515D01*
X018312Y021515D01*
X018434Y021637D01*
X018435Y021638D01*
X018646Y021852D01*
X018646Y022405D01*
X018596Y022426D01*
X018447Y022575D01*
X018400Y022688D01*
X018353Y022575D01*
X018204Y022426D01*
X018009Y022346D01*
X017798Y022346D01*
X017604Y022426D01*
X017454Y022575D01*
X017404Y022698D01*
X017353Y022575D01*
X017204Y022426D01*
X017009Y022346D01*
X016798Y022346D01*
X016604Y022426D01*
X016454Y022575D01*
X016404Y022698D01*
X016353Y022575D01*
X016204Y022426D01*
X016009Y022346D01*
X015798Y022346D01*
X015604Y022426D01*
X015454Y022575D01*
X015404Y022698D01*
X015353Y022575D01*
X015204Y022426D01*
X015009Y022346D01*
X014798Y022346D01*
X014604Y022426D01*
X014454Y022575D01*
X014403Y022700D01*
X014339Y022547D01*
X014190Y022398D01*
X013995Y022317D01*
X013784Y022317D01*
X013590Y022398D01*
X013441Y022547D01*
X013390Y022669D01*
X013339Y022547D01*
X013190Y022398D01*
X012995Y022317D01*
X012784Y022317D01*
X012590Y022398D01*
X012441Y022547D01*
X012390Y022669D01*
X012339Y022547D01*
X012190Y022398D01*
X012140Y022377D01*
X012140Y021225D01*
X012102Y021134D01*
X011643Y020674D01*
X011643Y020238D01*
X011698Y020183D01*
X011753Y020050D01*
X011753Y019907D01*
X011698Y019775D01*
X011638Y019714D01*
X011652Y019699D01*
X011707Y019567D01*
X011707Y019424D01*
X011652Y019292D01*
X011551Y019190D01*
X011419Y019136D01*
X011276Y019136D01*
X011143Y019190D01*
X011042Y019292D01*
X010987Y019424D01*
X010987Y019502D01*
X010680Y019809D01*
X010642Y019901D01*
X010642Y022376D01*
X010590Y022398D01*
X010441Y022547D01*
X010376Y022703D01*
X010310Y022546D01*
X010161Y022397D01*
X009966Y022316D01*
X009756Y022316D01*
X009561Y022397D01*
X009412Y022546D01*
X009361Y022668D01*
X009310Y022546D01*
X009161Y022397D01*
X008966Y022316D01*
X008756Y022316D01*
X008561Y022397D01*
X008412Y022546D01*
X008366Y022657D01*
X008326Y022560D01*
X008176Y022411D01*
X007982Y022330D01*
X007771Y022330D01*
X007576Y022411D01*
X007427Y022560D01*
X007376Y022682D01*
X007326Y022560D01*
X007176Y022411D01*
X006982Y022330D01*
X006771Y022330D01*
X006576Y022411D01*
X006427Y022560D01*
X006364Y022711D01*
X006349Y022664D01*
X006312Y022593D01*
X006265Y022528D01*
X006208Y022471D01*
X006144Y022424D01*
X006072Y022387D01*
X005996Y022362D01*
X005916Y022350D01*
X005895Y022350D01*
X005895Y022841D01*
X005858Y022841D01*
X005858Y022350D01*
X005836Y022350D01*
X005757Y022362D01*
X005680Y022387D01*
X005609Y022424D01*
X005544Y022471D01*
X005487Y022528D01*
X005440Y022593D01*
X005404Y022664D01*
X005379Y022740D01*
X005366Y022820D01*
X005366Y022841D01*
X005858Y022841D01*
X005858Y022878D01*
X005366Y022878D01*
X005366Y022900D01*
X005379Y022979D01*
X005404Y023056D01*
X005440Y023127D01*
X005487Y023192D01*
X005544Y023249D01*
X005609Y023296D01*
X005680Y023332D01*
X005757Y023357D01*
X005808Y023365D01*
X003244Y023369D01*
X003479Y023134D01*
X003479Y022653D01*
X003299Y022473D01*
X003299Y020995D01*
X003320Y020995D01*
X003438Y020878D01*
X003438Y019712D01*
X003320Y019595D01*
X002155Y019595D01*
X002038Y019712D01*
X002038Y020878D01*
X002155Y020995D01*
X002499Y020995D01*
X002499Y022473D01*
X002385Y022588D01*
X002131Y022334D01*
X001917Y022334D01*
X001917Y022875D01*
X001881Y022875D01*
X001881Y022334D01*
X001667Y022334D01*
X001339Y022662D01*
X001339Y022875D01*
X001881Y022875D01*
X001881Y022912D01*
X001339Y022912D01*
X001339Y023126D01*
X001586Y023372D01*
X000709Y023374D01*
X000709Y011623D01*
X001719Y011623D01*
X001836Y011506D01*
X001836Y010553D01*
X001719Y010435D01*
X000709Y010435D01*
X000709Y008158D01*
X001719Y008158D01*
X001836Y008041D01*
X001836Y007088D01*
X001719Y006971D01*
X000709Y006971D01*
X000709Y006896D02*
X004061Y006896D01*
X004093Y007054D02*
X003968Y007054D01*
X004001Y007088D02*
X003884Y006971D01*
X002774Y006971D01*
X002657Y007088D01*
X002657Y008041D01*
X002774Y008158D01*
X003884Y008158D01*
X004001Y008041D01*
X004001Y007088D01*
X004001Y007213D02*
X005425Y007213D01*
X005425Y007371D02*
X004001Y007371D01*
X004001Y007530D02*
X004737Y007530D01*
X004648Y007688D02*
X004001Y007688D01*
X004001Y007847D02*
X004648Y007847D01*
X004648Y008005D02*
X004001Y008005D01*
X004029Y008389D02*
X004075Y008401D01*
X004116Y008424D01*
X004149Y008458D01*
X004173Y008499D01*
X004185Y008545D01*
X004185Y008667D01*
X004185Y008789D01*
X004176Y008824D01*
X004185Y008860D01*
X004185Y008982D01*
X003551Y008982D01*
X003551Y008982D01*
X004325Y008982D01*
X004589Y008824D01*
X004341Y008667D01*
X003551Y008667D01*
X003551Y008945D01*
X003551Y008982D01*
X002917Y008982D01*
X002917Y008860D01*
X002926Y008824D01*
X002917Y008789D01*
X002917Y008667D01*
X003551Y008667D01*
X003551Y008667D01*
X003551Y008982D01*
X003551Y008982D01*
X003551Y008956D02*
X003551Y008956D01*
X003551Y008798D02*
X003551Y008798D01*
X003551Y008667D02*
X004185Y008667D01*
X003551Y008667D01*
X003551Y008667D01*
X003551Y008667D01*
X002917Y008667D01*
X002917Y008545D01*
X002929Y008499D01*
X002953Y008458D01*
X002986Y008424D01*
X003027Y008401D01*
X003073Y008389D01*
X003551Y008389D01*
X004029Y008389D01*
X004163Y008481D02*
X004784Y008481D01*
X004784Y008639D02*
X004185Y008639D01*
X004183Y008798D02*
X004784Y008798D01*
X004784Y008956D02*
X004185Y008956D01*
X003551Y008667D02*
X003551Y008389D01*
X003551Y008667D01*
X003551Y008667D01*
X003551Y008639D02*
X003551Y008639D01*
X003551Y008481D02*
X003551Y008481D01*
X002939Y008481D02*
X002772Y008481D01*
X002772Y008516D02*
X002707Y008672D01*
X002587Y008793D01*
X002430Y008858D01*
X002260Y008858D01*
X002103Y008793D01*
X001983Y008672D01*
X001918Y008516D01*
X001918Y008346D01*
X001983Y008189D01*
X002103Y008069D01*
X002260Y008004D01*
X002430Y008004D01*
X002587Y008069D01*
X002707Y008189D01*
X002772Y008346D01*
X002772Y008516D01*
X002720Y008639D02*
X002917Y008639D01*
X002919Y008798D02*
X002574Y008798D01*
X002917Y008956D02*
X000709Y008956D01*
X000709Y008798D02*
X002116Y008798D01*
X001969Y008639D02*
X000709Y008639D01*
X000709Y008481D02*
X001918Y008481D01*
X001928Y008322D02*
X000709Y008322D01*
X000709Y008164D02*
X002008Y008164D01*
X001836Y008005D02*
X002256Y008005D01*
X002433Y008005D02*
X002657Y008005D01*
X002657Y007847D02*
X001836Y007847D01*
X001836Y007688D02*
X002657Y007688D01*
X002657Y007530D02*
X001836Y007530D01*
X001836Y007371D02*
X002657Y007371D01*
X002657Y007213D02*
X001836Y007213D01*
X001802Y007054D02*
X002690Y007054D01*
X003260Y006262D02*
X004061Y006262D01*
X004061Y006103D02*
X003484Y006103D01*
X003536Y005945D02*
X004061Y005945D01*
X004061Y005786D02*
X003535Y005786D01*
X003534Y005628D02*
X004209Y005628D01*
X004209Y005469D02*
X003534Y005469D01*
X003533Y005311D02*
X004209Y005311D01*
X004209Y005152D02*
X003533Y005152D01*
X003532Y004994D02*
X004209Y004994D01*
X004209Y004835D02*
X003532Y004835D01*
X003531Y004677D02*
X004270Y004677D01*
X004428Y004518D02*
X003531Y004518D01*
X003530Y004360D02*
X004587Y004360D01*
X004745Y004201D02*
X003639Y004201D01*
X004707Y004994D02*
X010611Y004994D01*
X010769Y005152D02*
X010420Y005152D01*
X010452Y004835D02*
X004816Y004835D01*
X004975Y004677D02*
X010294Y004677D01*
X009347Y005444D02*
X008182Y005444D01*
X008136Y005450D01*
X008573Y005152D02*
X008943Y005152D01*
X009376Y006514D02*
X008183Y006514D01*
X008175Y006506D01*
X007810Y006896D02*
X007679Y006896D01*
X007387Y006896D02*
X007311Y006896D01*
X007311Y006923D02*
X007089Y006923D01*
X007043Y006910D01*
X007002Y006887D01*
X006968Y006853D01*
X006945Y006812D01*
X006932Y006766D01*
X006932Y006544D01*
X007311Y006544D01*
X007311Y006923D01*
X007311Y006737D02*
X007387Y006737D01*
X007387Y006579D02*
X007311Y006579D01*
X007311Y006468D02*
X006932Y006468D01*
X006932Y006246D01*
X006945Y006201D01*
X006968Y006160D01*
X007002Y006126D01*
X007043Y006102D01*
X007089Y006090D01*
X007311Y006090D01*
X007311Y006468D01*
X007311Y006420D02*
X007387Y006420D01*
X007387Y006262D02*
X007311Y006262D01*
X007311Y006103D02*
X007326Y006103D01*
X007168Y005945D02*
X006404Y005945D01*
X006429Y005786D02*
X006891Y005786D01*
X007041Y006103D02*
X006449Y006103D01*
X006449Y006262D02*
X006932Y006262D01*
X006932Y006420D02*
X006449Y006420D01*
X006449Y006579D02*
X006932Y006579D01*
X006932Y006737D02*
X005975Y006737D01*
X006075Y006896D02*
X007018Y006896D01*
X007001Y007213D02*
X006075Y007213D01*
X006075Y007371D02*
X006942Y007371D01*
X006942Y007530D02*
X006061Y007530D01*
X006075Y007054D02*
X010187Y007054D01*
X010222Y007089D02*
X010222Y007089D01*
X010054Y007371D02*
X010018Y007371D01*
X010018Y007530D02*
X010054Y007530D01*
X010054Y007688D02*
X010018Y007688D01*
X010018Y007847D02*
X010054Y007847D01*
X010702Y008164D02*
X007137Y008164D01*
X007053Y007895D02*
X005737Y007895D01*
X005734Y007898D01*
X005734Y007137D01*
X005750Y007120D01*
X005425Y007054D02*
X004823Y007054D01*
X005228Y006896D02*
X005425Y006896D01*
X005387Y006737D02*
X005526Y006737D01*
X005051Y006262D02*
X004855Y006262D01*
X004852Y006420D02*
X004912Y006420D01*
X004855Y006103D02*
X005051Y006103D01*
X005096Y005945D02*
X004855Y005945D01*
X004855Y005786D02*
X005092Y005786D01*
X005009Y005628D02*
X004707Y005628D01*
X004707Y005469D02*
X005009Y005469D01*
X005009Y005311D02*
X004707Y005311D01*
X004707Y005152D02*
X005009Y005152D01*
X006512Y005152D02*
X006873Y005152D01*
X008541Y006896D02*
X009062Y006896D01*
X009061Y007213D02*
X008581Y007213D01*
X007828Y007213D02*
X007755Y007213D01*
X007378Y007591D02*
X007357Y007591D01*
X007053Y007895D01*
X007719Y008005D02*
X007863Y008005D01*
X007971Y008639D02*
X005344Y008639D01*
X005344Y008481D02*
X010702Y008481D01*
X010702Y008639D02*
X009318Y008639D01*
X009396Y009273D02*
X009635Y009273D01*
X009652Y009590D02*
X009396Y009590D01*
X009498Y010224D02*
X011438Y010224D01*
X011438Y010383D02*
X009575Y010383D01*
X009567Y010541D02*
X011438Y010541D01*
X011415Y010700D02*
X009474Y010700D01*
X009961Y011175D02*
X007287Y011175D01*
X007287Y011334D02*
X009970Y011334D01*
X010063Y011492D02*
X007287Y011492D01*
X007343Y011651D02*
X010071Y011651D01*
X009913Y011809D02*
X007343Y011809D01*
X007343Y011968D02*
X009754Y011968D01*
X009643Y012126D02*
X007343Y012126D01*
X006567Y011492D02*
X005680Y011492D01*
X005680Y011651D02*
X005863Y011651D01*
X005861Y011809D02*
X005680Y011809D01*
X005680Y011968D02*
X005861Y011968D01*
X005861Y011896D02*
X006239Y011896D01*
X006239Y012255D01*
X006017Y012255D01*
X005971Y012243D01*
X005930Y012219D01*
X005897Y012185D01*
X005873Y012144D01*
X005861Y012099D01*
X005861Y011896D01*
X005868Y012126D02*
X005680Y012126D01*
X005680Y012285D02*
X009639Y012285D01*
X009639Y012443D02*
X005555Y012443D01*
X005272Y012443D02*
X005137Y012443D01*
X005137Y012452D02*
X004886Y012452D01*
X004840Y012439D01*
X004799Y012416D01*
X004765Y012382D01*
X004742Y012341D01*
X004729Y012295D01*
X004729Y011955D01*
X005137Y011955D01*
X005137Y012452D01*
X005137Y012285D02*
X005272Y012285D01*
X005272Y012126D02*
X005137Y012126D01*
X005137Y011968D02*
X005272Y011968D01*
X004855Y012443D02*
X004618Y012443D01*
X004618Y012285D02*
X004729Y012285D01*
X004729Y012126D02*
X004618Y012126D01*
X004618Y011968D02*
X004729Y011968D01*
X004729Y011809D02*
X004618Y011809D01*
X004618Y011651D02*
X004729Y011651D01*
X004729Y011492D02*
X004618Y011492D01*
X004675Y011334D02*
X004771Y011334D01*
X005205Y010805D02*
X005205Y010291D01*
X004868Y009954D01*
X004857Y009954D01*
X004829Y009927D01*
X003551Y009927D01*
X003551Y009612D02*
X008064Y009612D01*
X008310Y009857D01*
X008280Y009432D02*
X010611Y009432D01*
X010591Y009273D02*
X010141Y009273D01*
X010237Y009115D02*
X010643Y009115D01*
X010702Y008956D02*
X010248Y008956D01*
X010178Y008798D02*
X010702Y008798D01*
X010702Y008322D02*
X005344Y008322D01*
X005344Y008798D02*
X007894Y008798D01*
X007894Y008956D02*
X005344Y008956D01*
X005064Y009290D02*
X005057Y009297D01*
X007931Y009297D01*
X008310Y008997D01*
X007894Y009892D02*
X005202Y009892D01*
X005442Y010132D01*
X005479Y010221D01*
X005583Y010221D01*
X005700Y010338D01*
X005700Y010445D01*
X005947Y010445D01*
X005974Y010418D01*
X006572Y010418D01*
X006608Y010453D01*
X006643Y010418D01*
X007242Y010418D01*
X007359Y010535D01*
X007359Y010566D01*
X007486Y010566D01*
X007813Y010238D01*
X007905Y010200D01*
X007957Y010200D01*
X007894Y010137D01*
X007894Y009892D01*
X007894Y009907D02*
X005217Y009907D01*
X005376Y010066D02*
X007894Y010066D01*
X007847Y010224D02*
X005586Y010224D01*
X005700Y010383D02*
X007669Y010383D01*
X007510Y010541D02*
X007359Y010541D01*
X007742Y011017D02*
X010037Y011017D01*
X010352Y010858D02*
X007901Y010858D01*
X006567Y011334D02*
X005638Y011334D01*
X005700Y011175D02*
X005937Y011175D01*
X006239Y011651D02*
X006276Y011651D01*
X006276Y011809D02*
X006239Y011809D01*
X006239Y011968D02*
X006276Y011968D01*
X006276Y012126D02*
X006239Y012126D01*
X006424Y013077D02*
X004618Y013077D01*
X004618Y012919D02*
X009815Y012919D01*
X009668Y012760D02*
X004618Y012760D01*
X004618Y012602D02*
X009639Y012602D01*
X010137Y012536D02*
X010137Y012290D01*
X010976Y011452D01*
X011510Y011452D01*
X011512Y011452D01*
X011611Y011452D01*
X011703Y011414D01*
X012639Y010478D01*
X012677Y010386D01*
X012677Y010066D01*
X013517Y010066D01*
X013515Y010064D02*
X013417Y009966D01*
X013379Y009874D01*
X013379Y009775D01*
X013379Y009364D01*
X012677Y010066D01*
X012787Y010176D02*
X012821Y010142D01*
X012862Y010118D01*
X012908Y010106D01*
X013139Y010106D01*
X013139Y010534D01*
X012751Y010534D01*
X012751Y010263D01*
X012764Y010217D01*
X012787Y010176D01*
X012762Y010224D02*
X012677Y010224D01*
X012677Y010383D02*
X012751Y010383D01*
X012576Y010541D02*
X013139Y010541D01*
X013139Y010534D02*
X013139Y010629D01*
X012751Y010629D01*
X012751Y010900D01*
X012764Y010946D01*
X012783Y010981D01*
X012738Y010981D01*
X012738Y011359D01*
X012738Y011396D01*
X013096Y011396D01*
X013096Y011617D01*
X013084Y011663D01*
X013065Y011696D01*
X013088Y011719D01*
X013126Y011628D01*
X013227Y011527D01*
X013360Y011472D01*
X013395Y011472D01*
X013655Y011212D01*
X013655Y011077D01*
X013597Y011077D01*
X013545Y011026D01*
X013513Y011045D01*
X013467Y011057D01*
X013235Y011057D01*
X013235Y010629D01*
X013139Y010629D01*
X013139Y011057D01*
X013064Y011057D01*
X013084Y011091D01*
X013096Y011137D01*
X013096Y011359D01*
X012738Y011359D01*
X012701Y011359D01*
X012701Y010981D01*
X012499Y010981D01*
X012453Y010993D01*
X012412Y011017D01*
X012378Y011050D01*
X012355Y011091D01*
X012342Y011137D01*
X012342Y011359D01*
X012701Y011359D01*
X012701Y011396D01*
X012342Y011396D01*
X012342Y011617D01*
X012355Y011663D01*
X012373Y011696D01*
X012322Y011747D01*
X012322Y011848D01*
X011570Y011848D01*
X011225Y011502D01*
X011059Y011502D01*
X010608Y011954D01*
X010162Y012399D01*
X010162Y012561D01*
X010137Y012536D01*
X010144Y012541D02*
X011443Y013840D01*
X012700Y013840D01*
X012711Y013865D01*
X012692Y013870D02*
X011471Y013870D01*
X011447Y013684D02*
X011285Y013684D01*
X011684Y014083D01*
X012334Y014083D01*
X012334Y013883D01*
X012692Y013883D01*
X012692Y013846D01*
X012334Y013846D01*
X012334Y013624D01*
X012341Y013598D01*
X011846Y013598D01*
X011754Y013560D01*
X011684Y013490D01*
X011683Y013488D01*
X011663Y013468D01*
X011447Y013684D01*
X011312Y013711D02*
X012334Y013711D01*
X012692Y013711D02*
X012729Y013711D01*
X012729Y013612D02*
X012692Y013612D01*
X012692Y013846D01*
X012729Y013846D01*
X012729Y013612D01*
X012334Y014028D02*
X011629Y014028D01*
X011242Y014345D02*
X009132Y014345D01*
X009128Y014187D02*
X011083Y014187D01*
X010925Y014028D02*
X009125Y014028D01*
X009048Y013870D02*
X010766Y013870D01*
X010608Y013711D02*
X008888Y013711D01*
X008729Y013553D02*
X010449Y013553D01*
X010291Y013394D02*
X008571Y013394D01*
X008412Y013236D02*
X010132Y013236D01*
X009974Y013077D02*
X008254Y013077D01*
X008074Y014028D02*
X008026Y014028D01*
X008026Y014187D02*
X008232Y014187D01*
X008332Y014345D02*
X008026Y014345D01*
X008026Y014504D02*
X008336Y014504D01*
X008242Y014662D02*
X007965Y014662D01*
X007965Y014821D02*
X008242Y014821D01*
X008242Y014979D02*
X007965Y014979D01*
X007965Y015138D02*
X008242Y015138D01*
X008242Y015296D02*
X007949Y015296D01*
X007855Y015455D02*
X008293Y015455D01*
X008376Y015613D02*
X007696Y015613D01*
X007538Y015772D02*
X008376Y015772D01*
X008376Y015930D02*
X007379Y015930D01*
X007456Y016201D02*
X007573Y016318D01*
X007573Y016995D01*
X007456Y017113D01*
X005873Y017113D01*
X005756Y016995D01*
X005756Y016318D01*
X005873Y016201D01*
X007456Y016201D01*
X007502Y016247D02*
X008376Y016247D01*
X008376Y016089D02*
X007137Y016089D01*
X007573Y016406D02*
X008376Y016406D01*
X008376Y016564D02*
X007573Y016564D01*
X007573Y016723D02*
X008376Y016723D01*
X008376Y016881D02*
X007573Y016881D01*
X007529Y017040D02*
X008376Y017040D01*
X008376Y017198D02*
X003103Y017198D01*
X003103Y017040D02*
X005800Y017040D01*
X005756Y016881D02*
X003103Y016881D01*
X003103Y016723D02*
X005756Y016723D01*
X005756Y016564D02*
X003103Y016564D01*
X003103Y016406D02*
X005756Y016406D01*
X005826Y016247D02*
X004975Y016247D01*
X004165Y016247D02*
X003081Y016247D01*
X002978Y016089D02*
X003859Y016089D01*
X003617Y015930D02*
X002819Y015930D01*
X002661Y015772D02*
X003459Y015772D01*
X003300Y015613D02*
X002543Y015613D01*
X002528Y015455D02*
X003142Y015455D01*
X002983Y015296D02*
X002370Y015296D01*
X002355Y015138D02*
X002825Y015138D01*
X003322Y014504D02*
X004095Y014504D01*
X004095Y014345D02*
X003128Y014345D01*
X003481Y014662D02*
X004502Y014662D01*
X004638Y014662D02*
X005405Y014662D01*
X005392Y014655D02*
X005359Y014622D01*
X005335Y014581D01*
X005323Y014535D01*
X005323Y014303D01*
X005711Y014303D01*
X005711Y014207D01*
X005807Y014207D01*
X005807Y014303D01*
X006195Y014303D01*
X006195Y014535D01*
X006183Y014581D01*
X006159Y014622D01*
X006125Y014655D01*
X006084Y014679D01*
X006039Y014691D01*
X005807Y014691D01*
X005807Y014303D01*
X005711Y014303D01*
X005711Y014691D01*
X005479Y014691D01*
X005434Y014679D01*
X005392Y014655D01*
X005323Y014504D02*
X005045Y014504D01*
X005045Y014540D02*
X004638Y014540D01*
X004638Y014044D01*
X004889Y014044D01*
X004935Y014056D01*
X004976Y014080D01*
X005009Y014113D01*
X005033Y014154D01*
X005045Y014200D01*
X005045Y014540D01*
X005045Y014345D02*
X005323Y014345D01*
X005323Y014207D02*
X005323Y013976D01*
X005335Y013930D01*
X005359Y013889D01*
X005392Y013855D01*
X005434Y013831D01*
X005479Y013819D01*
X005711Y013819D01*
X005711Y014207D01*
X005323Y014207D01*
X005323Y014187D02*
X005042Y014187D01*
X005323Y014028D02*
X003812Y014028D01*
X003990Y013870D02*
X005378Y013870D01*
X005711Y013870D02*
X005807Y013870D01*
X005807Y013819D02*
X006039Y013819D01*
X006084Y013831D01*
X006125Y013855D01*
X006159Y013889D01*
X006183Y013930D01*
X006195Y013976D01*
X006195Y014207D01*
X005807Y014207D01*
X005807Y013819D01*
X005807Y014028D02*
X005711Y014028D01*
X005711Y014187D02*
X005807Y014187D01*
X005807Y014345D02*
X005711Y014345D01*
X005711Y014504D02*
X005807Y014504D01*
X005807Y014662D02*
X005711Y014662D01*
X006113Y014662D02*
X006277Y014662D01*
X006209Y014504D02*
X006195Y014504D01*
X006195Y014345D02*
X006209Y014345D01*
X006195Y014187D02*
X006209Y014187D01*
X006195Y014028D02*
X006209Y014028D01*
X006255Y013870D02*
X006140Y013870D01*
X006264Y013711D02*
X004148Y013711D01*
X004307Y013553D02*
X006264Y013553D01*
X006264Y013394D02*
X004465Y013394D01*
X004588Y013236D02*
X006300Y013236D01*
X007052Y014662D02*
X007165Y014662D01*
X007165Y014821D02*
X005045Y014821D01*
X005045Y014979D02*
X007165Y014979D01*
X007040Y015138D02*
X004980Y015138D01*
X004638Y014504D02*
X004502Y014504D01*
X004502Y014345D02*
X004638Y014345D01*
X004638Y014187D02*
X004502Y014187D01*
X004098Y014187D02*
X002306Y014187D01*
X001620Y014187D02*
X000709Y014187D01*
X000709Y014345D02*
X001507Y014345D01*
X001383Y014504D02*
X000709Y014504D01*
X000709Y014662D02*
X001383Y014662D01*
X001383Y014821D02*
X000709Y014821D01*
X000709Y014979D02*
X001412Y014979D01*
X001571Y015138D02*
X000709Y015138D01*
X000709Y015296D02*
X001556Y015296D01*
X001397Y015455D02*
X000709Y015455D01*
X000709Y015613D02*
X001383Y015613D01*
X001383Y015772D02*
X000709Y015772D01*
X000709Y015930D02*
X001383Y015930D01*
X001522Y016089D02*
X000709Y016089D01*
X000709Y016247D02*
X001680Y016247D01*
X002164Y016406D02*
X000709Y016406D01*
X000709Y016564D02*
X002303Y016564D01*
X002303Y016723D02*
X000709Y016723D01*
X000709Y016881D02*
X002303Y016881D01*
X002303Y017040D02*
X000709Y017040D01*
X000709Y017198D02*
X002303Y017198D01*
X002303Y017357D02*
X000709Y017357D01*
X000709Y017515D02*
X002303Y017515D01*
X002303Y017674D02*
X000709Y017674D01*
X000709Y017832D02*
X002068Y017832D01*
X002038Y017991D02*
X000709Y017991D01*
X000709Y018149D02*
X002038Y018149D01*
X002038Y018308D02*
X000709Y018308D01*
X000709Y018466D02*
X002038Y018466D01*
X002038Y018625D02*
X000709Y018625D01*
X000709Y018783D02*
X002038Y018783D01*
X002038Y018942D02*
X000709Y018942D01*
X000709Y019100D02*
X002110Y019100D01*
X002038Y019734D02*
X000709Y019734D01*
X000709Y019576D02*
X010913Y019576D01*
X010990Y019417D02*
X000709Y019417D01*
X000709Y019259D02*
X011075Y019259D01*
X011620Y019259D02*
X013562Y019259D01*
X013450Y019417D02*
X011705Y019417D01*
X011704Y019576D02*
X013446Y019576D01*
X013446Y019734D02*
X011658Y019734D01*
X011747Y019893D02*
X013446Y019893D01*
X013446Y020051D02*
X011752Y020051D01*
X011671Y020210D02*
X013446Y020210D01*
X013446Y020368D02*
X011643Y020368D01*
X011643Y020527D02*
X013446Y020527D01*
X013446Y020685D02*
X011654Y020685D01*
X011812Y020844D02*
X013446Y020844D01*
X013489Y021002D02*
X011971Y021002D01*
X012113Y021161D02*
X013648Y021161D01*
X013806Y021319D02*
X012140Y021319D01*
X012140Y021478D02*
X013966Y021478D01*
X014221Y022429D02*
X014601Y022429D01*
X014450Y022587D02*
X014356Y022587D01*
X013558Y022429D02*
X013221Y022429D01*
X013356Y022587D02*
X013424Y022587D01*
X012558Y022429D02*
X012221Y022429D01*
X012140Y022270D02*
X018646Y022270D01*
X018646Y022112D02*
X012140Y022112D01*
X012140Y021953D02*
X018646Y021953D01*
X018590Y021795D02*
X012140Y021795D01*
X012140Y021636D02*
X018434Y021636D01*
X018593Y022429D02*
X018207Y022429D01*
X018358Y022587D02*
X018442Y022587D01*
X017601Y022429D02*
X017207Y022429D01*
X017358Y022587D02*
X017450Y022587D01*
X016601Y022429D02*
X016207Y022429D01*
X016358Y022587D02*
X016450Y022587D01*
X015601Y022429D02*
X015207Y022429D01*
X015358Y022587D02*
X015450Y022587D01*
X016732Y019890D02*
X016341Y019500D01*
X017992Y019500D01*
X018039Y019500D01*
X018042Y019500D01*
X018045Y019500D01*
X018088Y019482D01*
X018132Y019464D01*
X018134Y019463D01*
X018136Y019462D01*
X018169Y019428D01*
X018232Y019368D01*
X018235Y019367D01*
X018268Y019334D01*
X018301Y019302D01*
X018302Y019299D01*
X018305Y019296D01*
X018322Y019254D01*
X018341Y019211D01*
X018341Y019208D01*
X018342Y019204D01*
X018342Y019158D01*
X018343Y019112D01*
X018341Y019109D01*
X018340Y018896D01*
X018394Y018842D01*
X018449Y018710D01*
X018449Y018567D01*
X018394Y018434D01*
X018384Y018424D01*
X024175Y018424D01*
X024340Y018356D01*
X024467Y018229D01*
X024535Y018064D01*
X024535Y017885D01*
X024467Y017719D01*
X024340Y017593D01*
X024175Y017524D01*
X022701Y017524D01*
X022701Y017138D01*
X022720Y017138D01*
X022838Y017021D01*
X022838Y016461D01*
X022828Y016452D01*
X023729Y016452D01*
X023750Y016503D01*
X023899Y016652D01*
X024094Y016732D01*
X024304Y016732D01*
X024499Y016652D01*
X024619Y016532D01*
X024619Y023335D01*
X024105Y023336D01*
X024188Y023301D01*
X024337Y023152D01*
X024418Y022957D01*
X024418Y022747D01*
X024337Y022552D01*
X024188Y022403D01*
X023993Y022322D01*
X023783Y022322D01*
X023725Y022346D01*
X023202Y021837D01*
X023168Y021803D01*
X023167Y021803D01*
X023165Y021801D01*
X023121Y021784D01*
X023077Y021765D01*
X023075Y021765D01*
X023073Y021765D01*
X023025Y021765D01*
X022677Y021765D01*
X022621Y021709D01*
X022488Y021655D01*
X022345Y021655D01*
X022213Y021709D01*
X022112Y021811D01*
X022057Y021943D01*
X022057Y022086D01*
X022112Y022218D01*
X022213Y022320D01*
X022345Y022375D01*
X022488Y022375D01*
X022621Y022320D01*
X022677Y022264D01*
X022926Y022264D01*
X022986Y022322D01*
X022783Y022322D01*
X022588Y022403D01*
X022439Y022552D01*
X022388Y022674D01*
X022337Y022552D01*
X022188Y022403D01*
X021993Y022322D01*
X021783Y022322D01*
X021588Y022403D01*
X021439Y022552D01*
X021388Y022674D01*
X021337Y022552D01*
X021188Y022403D01*
X021141Y022383D01*
X021141Y021755D01*
X021103Y021664D01*
X021033Y021593D01*
X019828Y020389D01*
X020985Y020389D01*
X021076Y020351D01*
X021377Y020051D01*
X021456Y020051D01*
X021588Y019996D01*
X021689Y019894D01*
X021744Y019762D01*
X021744Y019619D01*
X021689Y019487D01*
X021588Y019385D01*
X021456Y019331D01*
X021312Y019331D01*
X021180Y019385D01*
X021079Y019487D01*
X021024Y019619D01*
X021024Y019698D01*
X020832Y019890D01*
X016732Y019890D01*
X016576Y019734D02*
X020988Y019734D01*
X021042Y019576D02*
X016418Y019576D01*
X016738Y017974D02*
X016581Y017817D01*
X016581Y016357D01*
X016874Y016705D02*
X016861Y016718D01*
X016861Y017524D01*
X022141Y017524D01*
X022141Y017138D01*
X022122Y017138D01*
X022086Y017103D01*
X022051Y017138D01*
X021452Y017138D01*
X021376Y017062D01*
X018207Y017062D01*
X018189Y017066D01*
X018158Y017062D01*
X018126Y017062D01*
X018109Y017055D01*
X018091Y017052D01*
X018064Y017036D01*
X018034Y017024D01*
X018021Y017011D01*
X018006Y017002D01*
X017987Y016976D01*
X017964Y016954D01*
X017957Y016937D01*
X017869Y016819D01*
X017846Y016796D01*
X017839Y016780D01*
X017828Y016765D01*
X017820Y016734D01*
X017808Y016705D01*
X017808Y016687D01*
X017804Y016669D01*
X017808Y016637D01*
X017808Y016266D01*
X017668Y016126D01*
X017668Y016213D01*
X017280Y016213D01*
X017280Y016309D01*
X017184Y016309D01*
X017184Y016736D01*
X016953Y016736D01*
X016907Y016724D01*
X016874Y016705D01*
X016861Y016723D02*
X016905Y016723D01*
X016861Y016881D02*
X017915Y016881D01*
X017816Y016723D02*
X017559Y016723D01*
X017558Y016724D02*
X017512Y016736D01*
X017280Y016736D01*
X017280Y016309D01*
X017668Y016309D01*
X017668Y016580D01*
X017656Y016625D01*
X017632Y016666D01*
X017599Y016700D01*
X017558Y016724D01*
X017668Y016564D02*
X017808Y016564D01*
X017808Y016406D02*
X017668Y016406D01*
X017789Y016247D02*
X017280Y016247D01*
X017280Y016213D02*
X017280Y015785D01*
X017327Y015785D01*
X017167Y015625D01*
X017129Y015534D01*
X017129Y015312D01*
X017090Y015352D01*
X016961Y015405D01*
X016840Y015405D01*
X016840Y015783D01*
X016874Y015817D01*
X016907Y015798D01*
X016953Y015785D01*
X017184Y015785D01*
X017184Y016213D01*
X017280Y016213D01*
X017280Y016089D02*
X017184Y016089D01*
X017184Y015930D02*
X017280Y015930D01*
X017314Y015772D02*
X016840Y015772D01*
X016840Y015613D02*
X017162Y015613D01*
X017129Y015455D02*
X016840Y015455D01*
X017184Y016406D02*
X017280Y016406D01*
X017280Y016564D02*
X017184Y016564D01*
X017184Y016723D02*
X017280Y016723D01*
X016861Y017040D02*
X018070Y017040D01*
X016861Y017198D02*
X022141Y017198D01*
X022141Y017357D02*
X016861Y017357D01*
X016861Y017515D02*
X022141Y017515D01*
X022421Y017886D02*
X022509Y017974D01*
X022421Y017886D02*
X022421Y016741D01*
X022838Y016723D02*
X024071Y016723D01*
X024327Y016723D02*
X024619Y016723D01*
X024619Y016881D02*
X022838Y016881D01*
X022818Y017040D02*
X024619Y017040D01*
X024619Y017198D02*
X022701Y017198D01*
X022701Y017357D02*
X024619Y017357D01*
X024619Y017515D02*
X022701Y017515D01*
X022838Y016564D02*
X023812Y016564D01*
X024587Y016564D02*
X024619Y016564D01*
X024619Y017674D02*
X024422Y017674D01*
X024514Y017832D02*
X024619Y017832D01*
X024619Y017991D02*
X024535Y017991D01*
X024500Y018149D02*
X024619Y018149D01*
X024619Y018308D02*
X024388Y018308D01*
X024619Y018466D02*
X018407Y018466D01*
X018449Y018625D02*
X024619Y018625D01*
X024619Y018783D02*
X018418Y018783D01*
X018340Y018942D02*
X024619Y018942D01*
X024619Y019100D02*
X018341Y019100D01*
X018320Y019259D02*
X024619Y019259D01*
X024619Y019417D02*
X021620Y019417D01*
X021726Y019576D02*
X024619Y019576D01*
X024619Y019734D02*
X021744Y019734D01*
X021690Y019893D02*
X024619Y019893D01*
X024619Y020051D02*
X021376Y020051D01*
X021217Y020210D02*
X024619Y020210D01*
X024619Y020368D02*
X021034Y020368D01*
X020442Y021002D02*
X024619Y021002D01*
X024619Y020844D02*
X020284Y020844D01*
X020125Y020685D02*
X024619Y020685D01*
X024619Y020527D02*
X019967Y020527D01*
X020601Y021161D02*
X024619Y021161D01*
X024619Y021319D02*
X020759Y021319D01*
X020918Y021478D02*
X024619Y021478D01*
X024619Y021636D02*
X021076Y021636D01*
X021141Y021795D02*
X022127Y021795D01*
X022057Y021953D02*
X021141Y021953D01*
X021141Y022112D02*
X022067Y022112D01*
X022164Y022270D02*
X021141Y022270D01*
X021214Y022429D02*
X021562Y022429D01*
X021424Y022587D02*
X021352Y022587D01*
X022214Y022429D02*
X022562Y022429D01*
X022670Y022270D02*
X022933Y022270D01*
X023322Y021953D02*
X024619Y021953D01*
X024619Y021795D02*
X023149Y021795D01*
X023484Y022112D02*
X024619Y022112D01*
X024619Y022270D02*
X023647Y022270D01*
X024214Y022429D02*
X024619Y022429D01*
X024619Y022587D02*
X024352Y022587D01*
X024418Y022746D02*
X024619Y022746D01*
X024619Y022904D02*
X024418Y022904D01*
X024374Y023063D02*
X024619Y023063D01*
X024619Y023221D02*
X024268Y023221D01*
X022424Y022587D02*
X022352Y022587D01*
X021148Y019417D02*
X018181Y019417D01*
X016301Y017524D02*
X016301Y016756D01*
X016145Y016756D01*
X016043Y016653D01*
X016043Y016828D01*
X016099Y016884D01*
X016154Y017017D01*
X016154Y017160D01*
X016099Y017292D01*
X015997Y017393D01*
X015865Y017448D01*
X015722Y017448D01*
X015590Y017393D01*
X015488Y017292D01*
X015434Y017160D01*
X015434Y017017D01*
X015488Y016884D01*
X015544Y016828D01*
X015544Y015897D01*
X015582Y015805D01*
X015656Y015731D01*
X015629Y015720D01*
X015528Y015619D01*
X015486Y015519D01*
X015368Y015519D01*
X015296Y015489D01*
X015296Y015805D01*
X015351Y015861D01*
X015406Y015993D01*
X015406Y016136D01*
X015351Y016268D01*
X015249Y016370D01*
X015117Y016425D01*
X014974Y016425D01*
X014928Y016406D01*
X014929Y016406D01*
X014928Y016406D02*
X014928Y016638D01*
X014989Y016699D01*
X015044Y016832D01*
X015044Y016975D01*
X014989Y017107D01*
X014888Y017208D01*
X014756Y017263D01*
X014612Y017263D01*
X014480Y017208D01*
X014379Y017107D01*
X014349Y017035D01*
X014349Y017524D01*
X016301Y017524D01*
X016301Y017515D02*
X014349Y017515D01*
X014349Y017357D02*
X015553Y017357D01*
X015450Y017198D02*
X014898Y017198D01*
X015017Y017040D02*
X015434Y017040D01*
X015491Y016881D02*
X015044Y016881D01*
X014999Y016723D02*
X015544Y016723D01*
X015544Y016564D02*
X014928Y016564D01*
X015162Y016406D02*
X015544Y016406D01*
X015544Y016247D02*
X015359Y016247D01*
X015406Y016089D02*
X015544Y016089D01*
X015544Y015930D02*
X015380Y015930D01*
X015296Y015772D02*
X015616Y015772D01*
X015525Y015613D02*
X015296Y015613D01*
X014796Y015613D02*
X014426Y015613D01*
X014426Y015619D02*
X014436Y015619D01*
X014527Y015656D01*
X014738Y015867D01*
X014740Y015861D01*
X014796Y015805D01*
X014796Y015093D01*
X014051Y015093D01*
X013959Y015055D01*
X013763Y014859D01*
X013759Y014855D01*
X013759Y015227D01*
X013965Y015432D01*
X014309Y015432D01*
X014426Y015549D01*
X014426Y015619D01*
X014331Y015455D02*
X014796Y015455D01*
X014796Y015296D02*
X013829Y015296D01*
X013759Y015138D02*
X014796Y015138D01*
X014796Y015772D02*
X014643Y015772D01*
X013883Y014979D02*
X013759Y014979D01*
X012729Y014979D02*
X012295Y014979D01*
X012275Y014821D02*
X012661Y014821D01*
X012619Y014662D02*
X012164Y014662D01*
X011706Y014662D02*
X010461Y014662D01*
X010460Y014661D02*
X010473Y014707D01*
X010473Y014958D01*
X009977Y014958D01*
X009977Y014551D01*
X010316Y014551D01*
X010362Y014563D01*
X010403Y014587D01*
X010437Y014620D01*
X010460Y014661D01*
X010473Y014821D02*
X011596Y014821D01*
X011575Y014979D02*
X009977Y014979D01*
X009977Y014821D02*
X009841Y014821D01*
X009841Y014662D02*
X009977Y014662D01*
X009977Y015138D02*
X009841Y015138D01*
X009841Y015296D02*
X009977Y015296D01*
X009977Y015455D02*
X009841Y015455D01*
X009843Y015772D02*
X011529Y015772D01*
X011529Y015930D02*
X009896Y015930D01*
X009896Y016115D02*
X009896Y016317D01*
X009884Y016363D01*
X009860Y016404D01*
X009827Y016438D01*
X009786Y016461D01*
X009740Y016474D01*
X009518Y016474D01*
X009518Y016115D01*
X009896Y016115D01*
X009896Y016247D02*
X011529Y016247D01*
X011529Y016089D02*
X009518Y016089D01*
X009518Y016247D02*
X009481Y016247D01*
X009481Y016406D02*
X009518Y016406D01*
X009276Y016564D02*
X011529Y016564D01*
X011529Y016406D02*
X009859Y016406D01*
X009518Y015930D02*
X009481Y015930D01*
X009481Y015772D02*
X009518Y015772D01*
X009276Y015613D02*
X011529Y015613D01*
X011626Y015455D02*
X010414Y015455D01*
X010473Y015296D02*
X011686Y015296D01*
X011627Y015138D02*
X010473Y015138D01*
X009404Y015455D02*
X009359Y015455D01*
X009136Y014504D02*
X011400Y014504D01*
X012184Y015296D02*
X012729Y015296D01*
X012729Y015138D02*
X012244Y015138D01*
X012226Y015455D02*
X012683Y015455D01*
X012586Y015613D02*
X012451Y015613D01*
X011529Y016723D02*
X009276Y016723D01*
X009276Y016881D02*
X011590Y016881D01*
X011606Y017040D02*
X009276Y017040D01*
X009276Y017198D02*
X011606Y017198D01*
X011606Y017357D02*
X009276Y017357D01*
X009276Y017515D02*
X011606Y017515D01*
X013720Y019100D02*
X003365Y019100D01*
X003438Y018942D02*
X013879Y018942D01*
X014037Y018783D02*
X003438Y018783D01*
X003438Y018625D02*
X014196Y018625D01*
X014354Y018466D02*
X003438Y018466D01*
X003438Y018308D02*
X008778Y018308D01*
X008620Y018149D02*
X003438Y018149D01*
X003438Y017991D02*
X008461Y017991D01*
X008386Y017832D02*
X003408Y017832D01*
X003103Y017674D02*
X008376Y017674D01*
X008376Y017515D02*
X003103Y017515D01*
X003103Y017357D02*
X008376Y017357D01*
X010755Y019734D02*
X003438Y019734D01*
X003438Y019893D02*
X010645Y019893D01*
X010642Y020051D02*
X003438Y020051D01*
X003438Y020210D02*
X010642Y020210D01*
X010642Y020368D02*
X003438Y020368D01*
X003438Y020527D02*
X010642Y020527D01*
X010642Y020685D02*
X003438Y020685D01*
X003438Y020844D02*
X010642Y020844D01*
X010642Y021002D02*
X003299Y021002D01*
X003299Y021161D02*
X010642Y021161D01*
X010642Y021319D02*
X003299Y021319D01*
X003299Y021478D02*
X010642Y021478D01*
X010642Y021636D02*
X003299Y021636D01*
X003299Y021795D02*
X010642Y021795D01*
X010642Y021953D02*
X003299Y021953D01*
X003299Y022112D02*
X010642Y022112D01*
X010642Y022270D02*
X003299Y022270D01*
X003299Y022429D02*
X005602Y022429D01*
X005444Y022587D02*
X003413Y022587D01*
X003479Y022746D02*
X005378Y022746D01*
X005367Y022904D02*
X003479Y022904D01*
X003479Y023063D02*
X005407Y023063D01*
X005516Y023221D02*
X003392Y023221D01*
X002499Y022429D02*
X002226Y022429D01*
X002385Y022587D02*
X002385Y022587D01*
X002499Y022270D02*
X000709Y022270D01*
X000709Y022112D02*
X002499Y022112D01*
X002499Y021953D02*
X000709Y021953D01*
X000709Y021795D02*
X002499Y021795D01*
X002499Y021636D02*
X000709Y021636D01*
X000709Y021478D02*
X002499Y021478D01*
X002499Y021319D02*
X000709Y021319D01*
X000709Y021161D02*
X002499Y021161D01*
X002499Y021002D02*
X000709Y021002D01*
X000709Y020844D02*
X002038Y020844D01*
X002038Y020685D02*
X000709Y020685D01*
X000709Y020527D02*
X002038Y020527D01*
X002038Y020368D02*
X000709Y020368D01*
X000709Y020210D02*
X002038Y020210D01*
X002038Y020051D02*
X000709Y020051D01*
X000709Y019893D02*
X002038Y019893D01*
X001917Y022429D02*
X001881Y022429D01*
X001881Y022587D02*
X001917Y022587D01*
X001917Y022746D02*
X001881Y022746D01*
X001881Y022904D02*
X000709Y022904D01*
X000709Y022746D02*
X001339Y022746D01*
X001413Y022587D02*
X000709Y022587D01*
X000709Y022429D02*
X001572Y022429D01*
X001339Y023063D02*
X000709Y023063D01*
X000709Y023221D02*
X001435Y023221D01*
X005858Y022746D02*
X005895Y022746D01*
X005895Y022587D02*
X005858Y022587D01*
X005858Y022429D02*
X005895Y022429D01*
X006151Y022429D02*
X006558Y022429D01*
X006415Y022587D02*
X006309Y022587D01*
X007195Y022429D02*
X007558Y022429D01*
X007415Y022587D02*
X007337Y022587D01*
X008195Y022429D02*
X008529Y022429D01*
X008394Y022587D02*
X008337Y022587D01*
X009194Y022429D02*
X009529Y022429D01*
X009394Y022587D02*
X009328Y022587D01*
X010194Y022429D02*
X010558Y022429D01*
X010424Y022587D02*
X010328Y022587D01*
X011142Y022378D02*
X011190Y022398D01*
X011339Y022547D01*
X011390Y022669D01*
X011441Y022547D01*
X011590Y022398D01*
X011640Y022377D01*
X011640Y021379D01*
X011181Y020919D01*
X011143Y020828D01*
X011143Y020728D01*
X011143Y020238D01*
X011142Y020237D01*
X011142Y022378D01*
X011221Y022429D02*
X011558Y022429D01*
X011640Y022270D02*
X011142Y022270D01*
X011142Y022112D02*
X011640Y022112D01*
X011640Y021953D02*
X011142Y021953D01*
X011142Y021795D02*
X011640Y021795D01*
X011640Y021636D02*
X011142Y021636D01*
X011142Y021478D02*
X011640Y021478D01*
X011581Y021319D02*
X011142Y021319D01*
X011142Y021161D02*
X011422Y021161D01*
X011264Y021002D02*
X011142Y021002D01*
X011142Y020844D02*
X011149Y020844D01*
X011142Y020685D02*
X011143Y020685D01*
X011142Y020527D02*
X011143Y020527D01*
X011142Y020368D02*
X011143Y020368D01*
X011356Y022587D02*
X011424Y022587D01*
X012356Y022587D02*
X012424Y022587D01*
X016034Y017357D02*
X016301Y017357D01*
X016301Y017198D02*
X016138Y017198D01*
X016154Y017040D02*
X016301Y017040D01*
X016301Y016881D02*
X016096Y016881D01*
X016112Y016723D02*
X016043Y016723D01*
X014470Y017198D02*
X014349Y017198D01*
X014349Y017040D02*
X014351Y017040D01*
X015689Y013791D02*
X015936Y013791D01*
X016133Y013791D01*
X016491Y013791D01*
X016445Y013679D01*
X016445Y013536D01*
X016500Y013404D01*
X016601Y013303D01*
X016734Y013248D01*
X016877Y013248D01*
X017009Y013303D01*
X017111Y013404D01*
X017165Y013536D01*
X017165Y013679D01*
X017119Y013792D01*
X017137Y013811D01*
X017182Y013811D01*
X017227Y013811D01*
X017247Y013791D01*
X018084Y013791D01*
X018084Y011395D01*
X016896Y011395D01*
X016941Y011505D01*
X016941Y011648D01*
X016886Y011780D01*
X016785Y011882D01*
X016653Y011936D01*
X016509Y011936D01*
X016377Y011882D01*
X016315Y011820D01*
X016234Y011901D01*
X016189Y011920D01*
X016213Y011977D01*
X016213Y012120D01*
X016158Y012253D01*
X016057Y012354D01*
X015924Y012409D01*
X015781Y012409D01*
X015689Y012371D01*
X015689Y012823D01*
X015669Y012843D01*
X015669Y012888D01*
X015624Y012888D01*
X015624Y012888D01*
X015624Y012888D01*
X015669Y012888D01*
X015669Y012933D01*
X015689Y012953D01*
X015689Y013033D01*
X015775Y013033D01*
X015864Y012996D01*
X016007Y012996D01*
X016139Y013051D01*
X016240Y013152D01*
X016295Y013284D01*
X016295Y013428D01*
X016240Y013560D01*
X016139Y013661D01*
X016007Y013716D01*
X015864Y013716D01*
X015731Y013661D01*
X015689Y013619D01*
X015689Y013791D01*
X015689Y013711D02*
X015853Y013711D01*
X016018Y013711D02*
X016459Y013711D01*
X016445Y013553D02*
X016243Y013553D01*
X016295Y013394D02*
X016510Y013394D01*
X016275Y013236D02*
X018084Y013236D01*
X018084Y013394D02*
X017101Y013394D01*
X017165Y013553D02*
X018084Y013553D01*
X018084Y013711D02*
X017152Y013711D01*
X017182Y013811D02*
X017182Y013855D01*
X017182Y013811D01*
X017182Y013855D02*
X017182Y013855D01*
X017182Y013855D01*
X018084Y013077D02*
X016166Y013077D01*
X015669Y012919D02*
X018084Y012919D01*
X018084Y012760D02*
X015689Y012760D01*
X015689Y012602D02*
X018084Y012602D01*
X018084Y012443D02*
X015689Y012443D01*
X016126Y012285D02*
X018084Y012285D01*
X018084Y012126D02*
X016210Y012126D01*
X016209Y011968D02*
X018084Y011968D01*
X018084Y011809D02*
X016857Y011809D01*
X016940Y011651D02*
X018084Y011651D01*
X018084Y011492D02*
X016936Y011492D01*
X016518Y009709D02*
X016571Y009581D01*
X016672Y009480D01*
X016805Y009425D01*
X016817Y009425D01*
X016866Y009306D01*
X016968Y009204D01*
X017100Y009149D01*
X017243Y009149D01*
X017375Y009204D01*
X017457Y009285D01*
X017472Y009270D01*
X017542Y009200D01*
X017634Y009162D01*
X017797Y009162D01*
X017853Y009106D01*
X017861Y009103D01*
X017847Y009067D01*
X017847Y009014D01*
X017775Y009014D01*
X017658Y008897D01*
X017658Y008338D01*
X017775Y008220D01*
X018374Y008220D01*
X018409Y008256D01*
X018412Y008253D01*
X018412Y008020D01*
X018378Y007986D01*
X018345Y008005D01*
X018299Y008017D01*
X018077Y008017D01*
X018077Y007659D01*
X018040Y007659D01*
X018040Y008017D01*
X017819Y008017D01*
X017773Y008005D01*
X017732Y007981D01*
X017698Y007948D01*
X017675Y007906D01*
X017662Y007861D01*
X017662Y007659D01*
X018040Y007659D01*
X018040Y007622D01*
X017662Y007622D01*
X017662Y007420D01*
X017675Y007374D01*
X017698Y007333D01*
X017732Y007299D01*
X017773Y007276D01*
X017819Y007263D01*
X018040Y007263D01*
X018040Y007622D01*
X018077Y007622D01*
X018077Y007263D01*
X018299Y007263D01*
X018345Y007276D01*
X018378Y007294D01*
X018412Y007260D01*
X018412Y007070D01*
X018397Y007055D01*
X018362Y007091D01*
X017763Y007091D01*
X017686Y007013D01*
X017643Y007056D01*
X017478Y007125D01*
X017299Y007125D01*
X017133Y007056D01*
X017007Y006930D01*
X016938Y006764D01*
X016938Y006585D01*
X017007Y006420D01*
X017133Y006293D01*
X017299Y006225D01*
X017478Y006225D01*
X017643Y006293D01*
X017705Y006355D01*
X017763Y006297D01*
X018362Y006297D01*
X018397Y006332D01*
X018433Y006297D01*
X018446Y006297D01*
X018446Y006269D01*
X018291Y006269D01*
X018174Y006152D01*
X018174Y005791D01*
X018069Y005895D01*
X017504Y005895D01*
X017386Y005778D01*
X017386Y005566D01*
X017257Y005437D01*
X017013Y005437D01*
X017013Y006325D01*
X016937Y006401D01*
X016937Y007500D01*
X017013Y007576D01*
X017013Y009002D01*
X016896Y009119D01*
X016258Y009119D01*
X016141Y009002D01*
X016141Y007576D01*
X016217Y007500D01*
X016217Y006401D01*
X016141Y006325D01*
X016141Y004899D01*
X016258Y004782D01*
X016896Y004782D01*
X016991Y004877D01*
X017429Y004877D01*
X017532Y004919D01*
X017857Y005245D01*
X018069Y005245D01*
X018174Y005350D01*
X018174Y004988D01*
X018291Y004871D01*
X018579Y004871D01*
X018844Y004607D01*
X018922Y004528D01*
X019025Y004485D01*
X020983Y004485D01*
X021086Y004528D01*
X021324Y004766D01*
X021695Y004766D01*
X021812Y004883D01*
X021812Y006309D01*
X021736Y006385D01*
X021736Y007484D01*
X021812Y007560D01*
X021812Y007565D01*
X021874Y007503D01*
X022440Y007503D01*
X022474Y007537D01*
X022548Y007537D01*
X022792Y007292D01*
X022895Y007249D01*
X023462Y007249D01*
X023462Y007230D01*
X023525Y007167D01*
X023525Y006981D01*
X023463Y006920D01*
X023395Y006754D01*
X023395Y006575D01*
X023463Y006410D01*
X023590Y006283D01*
X023755Y006215D01*
X023934Y006215D01*
X024100Y006283D01*
X024226Y006410D01*
X024295Y006575D01*
X024295Y006754D01*
X024226Y006920D01*
X024165Y006981D01*
X024165Y007139D01*
X024256Y007230D01*
X024256Y007829D01*
X024205Y007880D01*
X024223Y007912D01*
X024236Y007958D01*
X024236Y008180D01*
X023877Y008180D01*
X023877Y008217D01*
X023840Y008217D01*
X023840Y008180D01*
X023482Y008180D01*
X023482Y007958D01*
X023494Y007912D01*
X023513Y007880D01*
X023462Y007829D01*
X023462Y007809D01*
X023067Y007809D01*
X022980Y007897D01*
X023168Y007897D01*
X023214Y007909D01*
X023255Y007933D01*
X023289Y007966D01*
X023312Y008007D01*
X023325Y008053D01*
X023325Y008202D01*
X023325Y008350D01*
X023312Y008396D01*
X023289Y008437D01*
X023255Y008471D01*
X023214Y008494D01*
X023168Y008507D01*
X022945Y008507D01*
X022945Y008202D01*
X022945Y008202D01*
X023325Y008202D01*
X022945Y008202D01*
X022945Y008202D01*
X022945Y008507D01*
X022721Y008507D01*
X022675Y008494D01*
X022634Y008471D01*
X022601Y008437D01*
X022577Y008396D01*
X022565Y008350D01*
X022565Y008202D01*
X022945Y008202D01*
X023856Y008202D01*
X023859Y008198D01*
X023877Y008217D02*
X023877Y008595D01*
X024079Y008595D01*
X024125Y008583D01*
X024166Y008559D01*
X024200Y008525D01*
X024223Y008484D01*
X024236Y008439D01*
X024236Y008217D01*
X023877Y008217D01*
X023840Y008217D02*
X023840Y008595D01*
X023638Y008595D01*
X023593Y008583D01*
X023552Y008559D01*
X023518Y008525D01*
X023494Y008484D01*
X023482Y008439D01*
X023482Y008217D01*
X023840Y008217D01*
X023840Y008322D02*
X023877Y008322D01*
X023877Y008481D02*
X023840Y008481D01*
X023493Y008481D02*
X023238Y008481D01*
X023325Y008322D02*
X023482Y008322D01*
X023482Y008164D02*
X023325Y008164D01*
X023311Y008005D02*
X023482Y008005D01*
X023480Y007847D02*
X023029Y007847D01*
X022951Y007529D02*
X022664Y007817D01*
X022168Y007817D01*
X022157Y007828D01*
X021847Y007530D02*
X021782Y007530D01*
X021736Y007371D02*
X022713Y007371D01*
X022554Y007530D02*
X022467Y007530D01*
X022951Y007529D02*
X023859Y007529D01*
X024256Y007530D02*
X024619Y007530D01*
X024619Y007688D02*
X024256Y007688D01*
X024237Y007847D02*
X024619Y007847D01*
X024619Y008005D02*
X024236Y008005D01*
X024236Y008164D02*
X024619Y008164D01*
X024619Y008322D02*
X024236Y008322D01*
X024224Y008481D02*
X024619Y008481D01*
X024619Y008639D02*
X022557Y008639D01*
X022557Y008783D02*
X022451Y008889D01*
X022451Y009197D01*
X022516Y009261D01*
X023881Y009261D01*
X023984Y009304D01*
X024149Y009469D01*
X024228Y009548D01*
X024270Y009651D01*
X024270Y010727D01*
X024281Y010751D01*
X024281Y011393D01*
X024595Y011393D01*
X024619Y011417D01*
X024619Y000330D01*
X024201Y000330D01*
X024348Y000477D01*
X024429Y000672D01*
X024429Y000883D01*
X024348Y001077D01*
X024199Y001226D01*
X024004Y001307D01*
X023794Y001307D01*
X023599Y001226D01*
X023450Y001077D01*
X023399Y000955D01*
X023348Y001077D01*
X023199Y001226D01*
X023004Y001307D01*
X022794Y001307D01*
X022599Y001226D01*
X022450Y001077D01*
X022399Y000955D01*
X022348Y001077D01*
X022199Y001226D01*
X022004Y001307D01*
X021794Y001307D01*
X021599Y001226D01*
X021450Y001077D01*
X021399Y000955D01*
X021348Y001077D01*
X021199Y001226D01*
X021004Y001307D01*
X020794Y001307D01*
X020599Y001226D01*
X020450Y001077D01*
X020399Y000955D01*
X020348Y001077D01*
X020199Y001226D01*
X020004Y001307D01*
X019794Y001307D01*
X019599Y001226D01*
X019450Y001077D01*
X019407Y000974D01*
X019354Y001101D01*
X019200Y001255D01*
X019138Y001281D01*
X019138Y003335D01*
X019100Y003427D01*
X018892Y003635D01*
X018890Y003636D01*
X018721Y003804D01*
X018651Y003874D01*
X018560Y003912D01*
X015467Y003912D01*
X015545Y003944D01*
X015646Y004046D01*
X015701Y004178D01*
X015701Y004321D01*
X015646Y004454D01*
X015545Y004555D01*
X015412Y004610D01*
X015269Y004610D01*
X015137Y004555D01*
X015082Y004500D01*
X014622Y004500D01*
X014527Y004594D01*
X014527Y008520D01*
X014586Y008579D01*
X014586Y008327D01*
X014964Y008327D01*
X014964Y008251D01*
X014586Y008251D01*
X014586Y007635D01*
X014598Y007590D01*
X014622Y007549D01*
X014655Y007515D01*
X014697Y007491D01*
X014742Y007479D01*
X014964Y007479D01*
X014964Y008251D01*
X015040Y008251D01*
X015040Y007479D01*
X015262Y007479D01*
X015308Y007491D01*
X015349Y007515D01*
X015382Y007549D01*
X015406Y007590D01*
X015418Y007635D01*
X015418Y008251D01*
X015040Y008251D01*
X015040Y008327D01*
X015418Y008327D01*
X015418Y008847D01*
X015603Y008847D01*
X015695Y008885D01*
X016518Y009709D01*
X016567Y009590D02*
X016400Y009590D01*
X016242Y009432D02*
X016788Y009432D01*
X016898Y009273D02*
X016083Y009273D01*
X015925Y009115D02*
X016254Y009115D01*
X016141Y008956D02*
X015766Y008956D01*
X015418Y008798D02*
X016141Y008798D01*
X016141Y008639D02*
X015418Y008639D01*
X015418Y008481D02*
X016141Y008481D01*
X016141Y008322D02*
X015040Y008322D01*
X014964Y008322D02*
X014527Y008322D01*
X014527Y008164D02*
X014586Y008164D01*
X014586Y008005D02*
X014527Y008005D01*
X014527Y007847D02*
X014586Y007847D01*
X014586Y007688D02*
X014527Y007688D01*
X014527Y007530D02*
X014641Y007530D01*
X014527Y007371D02*
X016217Y007371D01*
X016217Y007213D02*
X014527Y007213D01*
X014527Y007054D02*
X016217Y007054D01*
X016217Y006896D02*
X014527Y006896D01*
X014527Y006737D02*
X016217Y006737D01*
X016217Y006579D02*
X014527Y006579D01*
X014527Y006420D02*
X014737Y006420D01*
X014742Y006422D02*
X014697Y006409D01*
X014655Y006386D01*
X014622Y006352D01*
X014598Y006311D01*
X014586Y006265D01*
X014586Y005650D01*
X014964Y005650D01*
X014964Y005574D01*
X014586Y005574D01*
X014586Y004958D01*
X014598Y004912D01*
X014622Y004871D01*
X014655Y004838D01*
X014697Y004814D01*
X014742Y004802D01*
X014964Y004802D01*
X014964Y005574D01*
X015040Y005574D01*
X015040Y004802D01*
X015262Y004802D01*
X015308Y004814D01*
X015349Y004838D01*
X015382Y004871D01*
X015406Y004912D01*
X015418Y004958D01*
X015418Y005574D01*
X015040Y005574D01*
X015040Y005650D01*
X014964Y005650D01*
X014964Y006422D01*
X014742Y006422D01*
X014964Y006420D02*
X015040Y006420D01*
X015040Y006422D02*
X015040Y005650D01*
X015418Y005650D01*
X015418Y006265D01*
X015406Y006311D01*
X015382Y006352D01*
X015349Y006386D01*
X015308Y006409D01*
X015262Y006422D01*
X015040Y006422D01*
X015040Y006262D02*
X014964Y006262D01*
X014964Y006103D02*
X015040Y006103D01*
X015040Y005945D02*
X014964Y005945D01*
X014964Y005786D02*
X015040Y005786D01*
X015040Y005628D02*
X016141Y005628D01*
X016141Y005786D02*
X015418Y005786D01*
X015418Y005945D02*
X016141Y005945D01*
X016141Y006103D02*
X015418Y006103D01*
X015418Y006262D02*
X016141Y006262D01*
X016217Y006420D02*
X015267Y006420D01*
X014586Y006262D02*
X014527Y006262D01*
X014527Y006103D02*
X014586Y006103D01*
X014586Y005945D02*
X014527Y005945D01*
X014527Y005786D02*
X014586Y005786D01*
X014527Y005628D02*
X014964Y005628D01*
X014964Y005469D02*
X015040Y005469D01*
X015040Y005311D02*
X014964Y005311D01*
X014964Y005152D02*
X015040Y005152D01*
X015040Y004994D02*
X014964Y004994D01*
X014964Y004835D02*
X015040Y004835D01*
X015345Y004835D02*
X016205Y004835D01*
X016141Y004994D02*
X015418Y004994D01*
X015418Y005152D02*
X016141Y005152D01*
X016141Y005311D02*
X015418Y005311D01*
X015418Y005469D02*
X016141Y005469D01*
X016712Y005157D02*
X017373Y005157D01*
X017786Y005570D01*
X018186Y005628D02*
X018282Y005628D01*
X018291Y005619D02*
X018857Y005619D01*
X018974Y005736D01*
X018974Y005859D01*
X019037Y005923D01*
X019086Y006040D01*
X019086Y006351D01*
X019149Y006414D01*
X019149Y006973D01*
X019052Y007070D01*
X019052Y007268D01*
X019145Y007360D01*
X019145Y007920D01*
X019052Y008012D01*
X019052Y008229D01*
X019160Y008338D01*
X019160Y008897D01*
X019043Y009014D01*
X018860Y009014D01*
X018919Y009073D01*
X019579Y009733D01*
X019579Y009361D01*
X019617Y009269D01*
X019687Y009199D01*
X019840Y009047D01*
X019840Y008311D01*
X020218Y008311D01*
X020218Y008669D01*
X020583Y008304D01*
X020653Y008233D01*
X020745Y008195D01*
X020940Y008195D01*
X020940Y007560D01*
X021016Y007484D01*
X021016Y006385D01*
X020940Y006309D01*
X020940Y005174D01*
X020811Y005045D01*
X020218Y005045D01*
X020218Y005558D01*
X019840Y005558D01*
X019840Y005634D01*
X020218Y005634D01*
X020218Y006250D01*
X020205Y006295D01*
X020182Y006337D01*
X020148Y006370D01*
X020107Y006394D01*
X020061Y006406D01*
X019840Y006406D01*
X019840Y005634D01*
X019763Y005634D01*
X019763Y005558D01*
X019385Y005558D01*
X019385Y005045D01*
X019197Y005045D01*
X018974Y005268D01*
X018974Y005404D01*
X018857Y005521D01*
X018291Y005521D01*
X018186Y005417D01*
X018186Y005724D01*
X018291Y005619D01*
X018239Y005469D02*
X018186Y005469D01*
X018174Y005311D02*
X018135Y005311D01*
X018174Y005152D02*
X017765Y005152D01*
X017606Y004994D02*
X018174Y004994D01*
X018574Y005196D02*
X018650Y005196D01*
X019081Y004765D01*
X020927Y004765D01*
X021376Y005214D01*
X021376Y005596D01*
X020940Y005628D02*
X019840Y005628D01*
X019763Y005628D02*
X018865Y005628D01*
X018908Y005469D02*
X019385Y005469D01*
X019385Y005311D02*
X018974Y005311D01*
X019090Y005152D02*
X019385Y005152D01*
X019385Y005634D02*
X019763Y005634D01*
X019763Y006406D01*
X019541Y006406D01*
X019496Y006394D01*
X019455Y006370D01*
X019421Y006337D01*
X019397Y006295D01*
X019385Y006250D01*
X019385Y005634D01*
X019385Y005786D02*
X018974Y005786D01*
X019046Y005945D02*
X019385Y005945D01*
X019385Y006103D02*
X019086Y006103D01*
X019086Y006262D02*
X019388Y006262D01*
X019149Y006420D02*
X021016Y006420D01*
X021016Y006579D02*
X019149Y006579D01*
X019149Y006737D02*
X021016Y006737D01*
X021016Y006896D02*
X019149Y006896D01*
X019068Y007054D02*
X021016Y007054D01*
X021016Y007213D02*
X019052Y007213D01*
X019145Y007371D02*
X021016Y007371D01*
X020971Y007530D02*
X020179Y007530D01*
X020182Y007533D02*
X020205Y007574D01*
X020218Y007620D01*
X020218Y008235D01*
X019840Y008235D01*
X019840Y008311D01*
X019763Y008311D01*
X019763Y008235D01*
X019385Y008235D01*
X019385Y007620D01*
X019397Y007574D01*
X019421Y007533D01*
X019455Y007499D01*
X019496Y007476D01*
X019541Y007463D01*
X019763Y007463D01*
X019763Y008235D01*
X019840Y008235D01*
X019840Y007463D01*
X020061Y007463D01*
X020107Y007476D01*
X020148Y007499D01*
X020182Y007533D01*
X020218Y007688D02*
X020940Y007688D01*
X020940Y007847D02*
X020218Y007847D01*
X020218Y008005D02*
X020940Y008005D01*
X020940Y008164D02*
X020218Y008164D01*
X020218Y008322D02*
X020564Y008322D01*
X020583Y008304D02*
X020583Y008304D01*
X020406Y008481D02*
X020218Y008481D01*
X020218Y008639D02*
X020247Y008639D01*
X019840Y008639D02*
X019763Y008639D01*
X019763Y008481D02*
X019840Y008481D01*
X019840Y008322D02*
X019763Y008322D01*
X019763Y008311D02*
X019763Y009083D01*
X019541Y009083D01*
X019496Y009071D01*
X019455Y009047D01*
X019421Y009014D01*
X019397Y008973D01*
X019385Y008927D01*
X019385Y008311D01*
X019763Y008311D01*
X019763Y008164D02*
X019840Y008164D01*
X019840Y008005D02*
X019763Y008005D01*
X019763Y007847D02*
X019840Y007847D01*
X019840Y007688D02*
X019763Y007688D01*
X019763Y007530D02*
X019840Y007530D01*
X019424Y007530D02*
X019145Y007530D01*
X019145Y007688D02*
X019385Y007688D01*
X019385Y007847D02*
X019145Y007847D01*
X019059Y008005D02*
X019385Y008005D01*
X019385Y008164D02*
X019052Y008164D01*
X019145Y008322D02*
X019385Y008322D01*
X019385Y008481D02*
X019160Y008481D01*
X019160Y008639D02*
X019385Y008639D01*
X019385Y008798D02*
X019160Y008798D01*
X019101Y008956D02*
X019393Y008956D01*
X019615Y009273D02*
X019120Y009273D01*
X019278Y009432D02*
X019579Y009432D01*
X019579Y009590D02*
X019437Y009590D01*
X019772Y009115D02*
X018961Y009115D01*
X019763Y008956D02*
X019840Y008956D01*
X019840Y008798D02*
X019763Y008798D01*
X020320Y009273D02*
X020828Y009273D01*
X020784Y009317D02*
X020885Y009216D01*
X021017Y009161D01*
X021160Y009161D01*
X021293Y009216D01*
X021349Y009272D01*
X021891Y009272D01*
X021891Y008901D01*
X021874Y008901D01*
X021829Y008856D01*
X021812Y008856D01*
X021812Y008986D01*
X021695Y009103D01*
X021057Y009103D01*
X020940Y008986D01*
X020940Y008695D01*
X020898Y008695D01*
X020079Y009515D01*
X020079Y010366D01*
X020041Y010458D01*
X019726Y010773D01*
X019656Y010843D01*
X019564Y010881D01*
X019583Y010900D01*
X019638Y011032D01*
X019638Y011176D01*
X019629Y011197D01*
X019684Y011197D01*
X019816Y011251D01*
X019918Y011353D01*
X019972Y011485D01*
X019972Y011628D01*
X019961Y011655D01*
X020040Y011655D01*
X020040Y011623D01*
X020095Y011491D01*
X020196Y011389D01*
X020328Y011334D01*
X020471Y011334D01*
X020604Y011389D01*
X020682Y011468D01*
X020682Y011244D01*
X020629Y011191D01*
X020574Y011059D01*
X020574Y010915D01*
X020629Y010783D01*
X020730Y010682D01*
X020843Y010635D01*
X020810Y010622D01*
X020709Y010520D01*
X020654Y010388D01*
X020654Y010245D01*
X020709Y010113D01*
X020810Y010011D01*
X020942Y009957D01*
X021086Y009957D01*
X021218Y010011D01*
X021274Y010067D01*
X022161Y010067D01*
X022162Y010065D01*
X022182Y010045D01*
X022177Y010040D01*
X021907Y009770D01*
X021349Y009770D01*
X021293Y009826D01*
X021160Y009881D01*
X021017Y009881D01*
X020885Y009826D01*
X020784Y009725D01*
X020729Y009593D01*
X020729Y009450D01*
X020784Y009317D01*
X020736Y009432D02*
X020162Y009432D01*
X020079Y009590D02*
X020729Y009590D01*
X020807Y009749D02*
X020079Y009749D01*
X020079Y009907D02*
X022044Y009907D01*
X022161Y010066D02*
X021272Y010066D01*
X020756Y010066D02*
X020079Y010066D01*
X020079Y010224D02*
X020663Y010224D01*
X020654Y010383D02*
X020072Y010383D01*
X019958Y010541D02*
X020730Y010541D01*
X020712Y010700D02*
X019799Y010700D01*
X019620Y010858D02*
X020598Y010858D01*
X020574Y011017D02*
X019631Y011017D01*
X019638Y011175D02*
X020623Y011175D01*
X020682Y011334D02*
X019899Y011334D01*
X019972Y011492D02*
X020094Y011492D01*
X020040Y011651D02*
X019963Y011651D01*
X021051Y012486D02*
X021084Y012518D01*
X021121Y012609D01*
X021121Y013119D01*
X021642Y013119D01*
X021734Y013156D01*
X021852Y013275D01*
X021852Y013221D01*
X021852Y013070D01*
X021864Y013024D01*
X021888Y012983D01*
X021900Y012971D01*
X021888Y012960D01*
X021864Y012919D01*
X021852Y012873D01*
X021852Y012721D01*
X021852Y012570D01*
X021864Y012524D01*
X021888Y012483D01*
X021900Y012471D01*
X021888Y012460D01*
X021864Y012419D01*
X021852Y012373D01*
X021852Y012221D01*
X021852Y012070D01*
X021864Y012024D01*
X021888Y011983D01*
X021900Y011971D01*
X021888Y011960D01*
X021864Y011919D01*
X021852Y011873D01*
X021852Y011721D01*
X021852Y011570D01*
X021864Y011524D01*
X021888Y011483D01*
X021922Y011449D01*
X021963Y011426D01*
X022008Y011413D01*
X022544Y011413D01*
X023078Y011413D01*
X023102Y011356D01*
X023172Y011286D01*
X023349Y011109D01*
X023441Y011071D01*
X023517Y011071D01*
X023517Y010270D01*
X023377Y010270D01*
X023218Y010429D01*
X023127Y010467D01*
X023082Y010467D01*
X022971Y010579D01*
X023066Y010579D01*
X023198Y010633D01*
X023300Y010735D01*
X023354Y010867D01*
X023354Y011010D01*
X023300Y011143D01*
X023198Y011244D01*
X023066Y011299D01*
X022923Y011299D01*
X022790Y011244D01*
X022734Y011188D01*
X021798Y011188D01*
X021385Y011601D01*
X021385Y012098D01*
X021347Y012190D01*
X021277Y012260D01*
X021051Y012486D01*
X021094Y012443D02*
X021879Y012443D01*
X021852Y012285D02*
X021252Y012285D01*
X021374Y012126D02*
X021852Y012126D01*
X021852Y012221D02*
X022544Y012221D01*
X022544Y011721D01*
X022544Y011413D01*
X022544Y011721D01*
X022544Y011721D01*
X021852Y011721D01*
X022544Y011721D01*
X022544Y011721D01*
X021869Y011721D01*
X021738Y011813D01*
X021738Y012226D01*
X021743Y012221D01*
X022544Y012221D01*
X022544Y012221D01*
X022544Y012029D01*
X022544Y011721D01*
X022544Y011721D01*
X022544Y011651D02*
X022544Y011651D01*
X022544Y011809D02*
X022544Y011809D01*
X022544Y011968D02*
X022544Y011968D01*
X022544Y012126D02*
X022544Y012126D01*
X022544Y012221D02*
X022544Y012221D01*
X021852Y012221D01*
X021738Y012226D02*
X021738Y012718D01*
X022541Y012718D01*
X022544Y012721D01*
X022544Y012221D01*
X022544Y012221D01*
X022544Y012529D01*
X022544Y012721D01*
X022544Y012721D01*
X021852Y012721D01*
X022544Y012721D01*
X022544Y012721D01*
X022544Y012721D01*
X022544Y013221D01*
X022544Y013221D01*
X022544Y013029D01*
X022544Y012721D01*
X022544Y012760D02*
X022544Y012760D01*
X022544Y012602D02*
X022544Y012602D01*
X022544Y012443D02*
X022544Y012443D01*
X022544Y012285D02*
X022544Y012285D01*
X022544Y012919D02*
X022544Y012919D01*
X022544Y013077D02*
X022544Y013077D01*
X022544Y013221D02*
X021852Y013221D01*
X022544Y013221D01*
X022544Y013221D01*
X021789Y013221D01*
X021738Y013151D01*
X021738Y012718D01*
X021852Y012760D02*
X021121Y012760D01*
X021118Y012602D02*
X021852Y012602D01*
X021864Y012919D02*
X021121Y012919D01*
X021121Y013077D02*
X021852Y013077D01*
X021852Y013236D02*
X021813Y013236D01*
X021896Y011968D02*
X021385Y011968D01*
X021385Y011809D02*
X021852Y011809D01*
X021852Y011651D02*
X021385Y011651D01*
X021494Y011492D02*
X021883Y011492D01*
X021652Y011334D02*
X023125Y011334D01*
X023172Y011286D02*
X023172Y011286D01*
X023267Y011175D02*
X023283Y011175D01*
X023352Y011017D02*
X023517Y011017D01*
X023517Y010858D02*
X023351Y010858D01*
X023265Y010700D02*
X023517Y010700D01*
X023517Y010541D02*
X023008Y010541D01*
X023265Y010383D02*
X023517Y010383D01*
X023990Y010797D02*
X024001Y010807D01*
X024001Y011721D01*
X024281Y011334D02*
X024619Y011334D01*
X024619Y011175D02*
X024281Y011175D01*
X024281Y011017D02*
X024619Y011017D01*
X024619Y010858D02*
X024281Y010858D01*
X024270Y010700D02*
X024619Y010700D01*
X024619Y010541D02*
X024270Y010541D01*
X024270Y010383D02*
X024619Y010383D01*
X024619Y010224D02*
X024270Y010224D01*
X024270Y010066D02*
X024619Y010066D01*
X024619Y009907D02*
X024270Y009907D01*
X024270Y009749D02*
X024619Y009749D01*
X024619Y009590D02*
X024245Y009590D01*
X024112Y009432D02*
X024619Y009432D01*
X024619Y009273D02*
X023911Y009273D01*
X023825Y009541D02*
X023990Y009706D01*
X023990Y010797D01*
X023825Y009541D02*
X022400Y009541D01*
X022171Y009313D01*
X022171Y008590D01*
X022157Y008576D01*
X021495Y008576D01*
X021498Y008572D01*
X021317Y008572D01*
X021376Y008273D01*
X021495Y008576D02*
X021233Y008576D01*
X020940Y008798D02*
X020796Y008798D01*
X020940Y008956D02*
X020637Y008956D01*
X020479Y009115D02*
X021891Y009115D01*
X021891Y008956D02*
X021812Y008956D01*
X022451Y008956D02*
X024619Y008956D01*
X024619Y008798D02*
X022543Y008798D01*
X022557Y008783D02*
X022557Y008368D01*
X022440Y008251D01*
X021874Y008251D01*
X021829Y008296D01*
X021812Y008296D01*
X021812Y008091D01*
X021874Y008153D01*
X022440Y008153D01*
X022496Y008097D01*
X022565Y008097D01*
X022565Y008202D01*
X022945Y008202D01*
X022945Y008202D01*
X022945Y008322D02*
X022945Y008322D01*
X022945Y008481D02*
X022945Y008481D01*
X022652Y008481D02*
X022557Y008481D01*
X022565Y008322D02*
X022512Y008322D01*
X022565Y008164D02*
X021812Y008164D01*
X021736Y007213D02*
X023479Y007213D01*
X023525Y007054D02*
X021736Y007054D01*
X021736Y006896D02*
X023453Y006896D01*
X023395Y006737D02*
X021736Y006737D01*
X021736Y006579D02*
X023395Y006579D01*
X023459Y006420D02*
X021736Y006420D01*
X021812Y006262D02*
X023642Y006262D01*
X024047Y006262D02*
X024619Y006262D01*
X024619Y006420D02*
X024230Y006420D01*
X024295Y006579D02*
X024619Y006579D01*
X024619Y006737D02*
X024295Y006737D01*
X024236Y006896D02*
X024619Y006896D01*
X024619Y007054D02*
X024165Y007054D01*
X024239Y007213D02*
X024619Y007213D01*
X024619Y007371D02*
X024256Y007371D01*
X024619Y006103D02*
X021812Y006103D01*
X021812Y005945D02*
X024619Y005945D01*
X024619Y005786D02*
X021812Y005786D01*
X021812Y005628D02*
X024619Y005628D01*
X024619Y005469D02*
X021812Y005469D01*
X021812Y005311D02*
X024619Y005311D01*
X024619Y005152D02*
X021812Y005152D01*
X021812Y004994D02*
X024619Y004994D01*
X024619Y004835D02*
X021764Y004835D01*
X021235Y004677D02*
X024619Y004677D01*
X024619Y004518D02*
X021063Y004518D01*
X020918Y005152D02*
X020218Y005152D01*
X020218Y005311D02*
X020940Y005311D01*
X020940Y005469D02*
X020218Y005469D01*
X020218Y005786D02*
X020940Y005786D01*
X020940Y005945D02*
X020218Y005945D01*
X020218Y006103D02*
X020940Y006103D01*
X020940Y006262D02*
X020214Y006262D01*
X019840Y006262D02*
X019763Y006262D01*
X019763Y006103D02*
X019840Y006103D01*
X019840Y005945D02*
X019763Y005945D01*
X019763Y005786D02*
X019840Y005786D01*
X018773Y004677D02*
X014527Y004677D01*
X014527Y004835D02*
X014660Y004835D01*
X014586Y004994D02*
X014527Y004994D01*
X014527Y005152D02*
X014586Y005152D01*
X014586Y005311D02*
X014527Y005311D01*
X014527Y005469D02*
X014586Y005469D01*
X014603Y004518D02*
X015100Y004518D01*
X015581Y004518D02*
X018946Y004518D01*
X018615Y004835D02*
X016950Y004835D01*
X017013Y005469D02*
X017290Y005469D01*
X017386Y005628D02*
X017013Y005628D01*
X017013Y005786D02*
X017395Y005786D01*
X017013Y005945D02*
X018174Y005945D01*
X018174Y006103D02*
X017013Y006103D01*
X017013Y006262D02*
X017209Y006262D01*
X017006Y006420D02*
X016937Y006420D01*
X016937Y006579D02*
X016941Y006579D01*
X016937Y006737D02*
X016938Y006737D01*
X016937Y006896D02*
X016993Y006896D01*
X016937Y007054D02*
X017131Y007054D01*
X016937Y007213D02*
X018412Y007213D01*
X018077Y007371D02*
X018040Y007371D01*
X018040Y007530D02*
X018077Y007530D01*
X018077Y007688D02*
X018040Y007688D01*
X018040Y007847D02*
X018077Y007847D01*
X018077Y008005D02*
X018040Y008005D01*
X017775Y008005D02*
X017013Y008005D01*
X017013Y007847D02*
X017662Y007847D01*
X017662Y007688D02*
X017013Y007688D01*
X016967Y007530D02*
X017662Y007530D01*
X017676Y007371D02*
X016937Y007371D01*
X016187Y007530D02*
X015364Y007530D01*
X015418Y007688D02*
X016141Y007688D01*
X016141Y007847D02*
X015418Y007847D01*
X015418Y008005D02*
X016141Y008005D01*
X016141Y008164D02*
X015418Y008164D01*
X015040Y008164D02*
X014964Y008164D01*
X014964Y008005D02*
X015040Y008005D01*
X015040Y007847D02*
X014964Y007847D01*
X014964Y007688D02*
X015040Y007688D01*
X015040Y007530D02*
X014964Y007530D01*
X014586Y008481D02*
X014527Y008481D01*
X013379Y009432D02*
X013311Y009432D01*
X013379Y009590D02*
X013153Y009590D01*
X012994Y009749D02*
X013379Y009749D01*
X013393Y009907D02*
X012836Y009907D01*
X013139Y010224D02*
X013235Y010224D01*
X013235Y010106D02*
X013467Y010106D01*
X013513Y010118D01*
X013545Y010137D01*
X013567Y010116D01*
X013515Y010064D01*
X013235Y010106D02*
X013235Y010534D01*
X013139Y010534D01*
X013139Y010383D02*
X013235Y010383D01*
X013235Y010700D02*
X013139Y010700D01*
X013139Y010858D02*
X013235Y010858D01*
X013235Y011017D02*
X013139Y011017D01*
X013096Y011175D02*
X013655Y011175D01*
X013534Y011334D02*
X013096Y011334D01*
X013096Y011492D02*
X013311Y011492D01*
X013117Y011651D02*
X013087Y011651D01*
X013431Y011832D02*
X013935Y011328D01*
X013935Y010581D01*
X012751Y010700D02*
X012417Y010700D01*
X012259Y010858D02*
X012751Y010858D01*
X012738Y011017D02*
X012701Y011017D01*
X012701Y011175D02*
X012738Y011175D01*
X012738Y011334D02*
X012701Y011334D01*
X012719Y011377D02*
X011040Y011428D01*
X010144Y012324D01*
X010144Y012541D01*
X010137Y012443D02*
X010162Y012443D01*
X010142Y012285D02*
X010276Y012285D01*
X010301Y012126D02*
X010435Y012126D01*
X010459Y011968D02*
X010593Y011968D01*
X010618Y011809D02*
X010752Y011809D01*
X010776Y011651D02*
X010910Y011651D01*
X010935Y011492D02*
X012342Y011492D01*
X012342Y011334D02*
X011783Y011334D01*
X011942Y011175D02*
X012342Y011175D01*
X012412Y011017D02*
X012100Y011017D01*
X012351Y011651D02*
X011373Y011651D01*
X011532Y011809D02*
X012322Y011809D01*
X012324Y012348D02*
X012070Y012348D01*
X012344Y012622D01*
X012344Y012787D01*
X012033Y013098D01*
X012314Y013098D01*
X012314Y012896D01*
X012431Y012779D01*
X012738Y012779D01*
X012791Y012725D01*
X012754Y012710D01*
X012684Y012639D01*
X012508Y012463D01*
X012439Y012463D01*
X012324Y012348D01*
X012420Y012443D02*
X012166Y012443D01*
X012324Y012602D02*
X012647Y012602D01*
X012756Y012760D02*
X012344Y012760D01*
X012314Y012919D02*
X012212Y012919D01*
X012314Y013077D02*
X012054Y013077D01*
X011747Y013553D02*
X011578Y013553D01*
X011197Y010066D02*
X010194Y010066D01*
X010248Y009907D02*
X011042Y009907D01*
X011004Y009749D02*
X010230Y009749D01*
X010124Y009590D02*
X010720Y009590D01*
X009731Y006896D02*
X009691Y006896D01*
X012973Y003651D02*
X012995Y003629D01*
X014176Y002448D01*
X014268Y002410D01*
X014490Y002410D01*
X014538Y002362D01*
X014538Y002360D01*
X014638Y002260D01*
X014638Y001281D01*
X014576Y001255D01*
X014422Y001101D01*
X014388Y001019D01*
X014354Y001101D01*
X014200Y001255D01*
X013997Y001339D01*
X013779Y001339D01*
X013576Y001255D01*
X013422Y001101D01*
X013388Y001019D01*
X013354Y001101D01*
X013200Y001255D01*
X013150Y001276D01*
X013150Y001665D01*
X014638Y001665D01*
X014638Y001507D02*
X013150Y001507D01*
X013150Y001665D02*
X013112Y001757D01*
X013041Y001828D01*
X012973Y001896D01*
X012973Y003651D01*
X012973Y003567D02*
X013056Y003567D01*
X012973Y003409D02*
X013215Y003409D01*
X013373Y003250D02*
X012973Y003250D01*
X012973Y003092D02*
X013532Y003092D01*
X013690Y002933D02*
X012973Y002933D01*
X012973Y002775D02*
X013849Y002775D01*
X014007Y002616D02*
X012973Y002616D01*
X012973Y002458D02*
X014166Y002458D01*
X014599Y002299D02*
X012973Y002299D01*
X012973Y002141D02*
X014638Y002141D01*
X014638Y001982D02*
X012973Y001982D01*
X013045Y001824D02*
X014638Y001824D01*
X014638Y001348D02*
X013150Y001348D01*
X013265Y001190D02*
X013511Y001190D01*
X013393Y001031D02*
X013383Y001031D01*
X014265Y001190D02*
X014511Y001190D01*
X014393Y001031D02*
X014383Y001031D01*
X011765Y002616D02*
X009218Y002616D01*
X009244Y002458D02*
X011715Y002458D01*
X011557Y002299D02*
X009244Y002299D01*
X009244Y002141D02*
X011398Y002141D01*
X011240Y001982D02*
X009244Y001982D01*
X009244Y001824D02*
X011081Y001824D01*
X010923Y001665D02*
X009244Y001665D01*
X009244Y001507D02*
X010764Y001507D01*
X010647Y001348D02*
X009244Y001348D01*
X009244Y001190D02*
X009528Y001190D01*
X009408Y001031D02*
X009361Y001031D01*
X008524Y001190D02*
X008211Y001190D01*
X008337Y001031D02*
X008408Y001031D01*
X008524Y001348D02*
X006707Y001348D01*
X006698Y001190D02*
X007557Y001190D01*
X007431Y001031D02*
X000709Y001031D01*
X000709Y000873D02*
X007380Y000873D01*
X007381Y000714D02*
X000709Y000714D01*
X000709Y000556D02*
X007435Y000556D01*
X007566Y000397D02*
X000709Y000397D01*
X000709Y001190D02*
X005765Y001190D01*
X005756Y001348D02*
X000709Y001348D01*
X000709Y001507D02*
X005756Y001507D01*
X005756Y001824D02*
X000709Y001824D01*
X000709Y001982D02*
X005756Y001982D01*
X005809Y002141D02*
X000709Y002141D01*
X000709Y002299D02*
X005736Y002299D01*
X005736Y002458D02*
X000709Y002458D01*
X000709Y002616D02*
X005736Y002616D01*
X006727Y002616D02*
X008241Y002616D01*
X008399Y002458D02*
X006727Y002458D01*
X006727Y002299D02*
X008524Y002299D01*
X008524Y002141D02*
X006654Y002141D01*
X006707Y001982D02*
X008524Y001982D01*
X008524Y001824D02*
X006707Y001824D01*
X006707Y001507D02*
X008524Y001507D01*
X008524Y001665D02*
X006299Y001665D01*
X006164Y001665D02*
X000709Y001665D01*
X006164Y001507D02*
X006299Y001507D01*
X006299Y001348D02*
X006164Y001348D01*
X006164Y001190D02*
X006299Y001190D01*
X007866Y001190D02*
X007903Y001190D01*
X007903Y001031D02*
X007866Y001031D01*
X007866Y000873D02*
X007903Y000873D01*
X009100Y002775D02*
X011765Y002775D01*
X011765Y002933D02*
X008942Y002933D01*
X008783Y003092D02*
X011765Y003092D01*
X011765Y003250D02*
X008625Y003250D01*
X010241Y001190D02*
X010511Y001190D01*
X010393Y001031D02*
X010361Y001031D01*
X015643Y004043D02*
X024619Y004043D01*
X024619Y004201D02*
X015701Y004201D01*
X015685Y004360D02*
X024619Y004360D01*
X024619Y003884D02*
X018627Y003884D01*
X018800Y003726D02*
X024619Y003726D01*
X024619Y003567D02*
X018959Y003567D01*
X019107Y003409D02*
X024619Y003409D01*
X024619Y003250D02*
X019138Y003250D01*
X019138Y003092D02*
X024619Y003092D01*
X024619Y002933D02*
X019138Y002933D01*
X019138Y002775D02*
X024619Y002775D01*
X024619Y002616D02*
X019138Y002616D01*
X019138Y002458D02*
X024619Y002458D01*
X024619Y002299D02*
X019138Y002299D01*
X019138Y002141D02*
X024619Y002141D01*
X024619Y001982D02*
X019138Y001982D01*
X019138Y001824D02*
X024619Y001824D01*
X024619Y001665D02*
X019138Y001665D01*
X019138Y001507D02*
X024619Y001507D01*
X024619Y001348D02*
X019138Y001348D01*
X019265Y001190D02*
X019562Y001190D01*
X019431Y001031D02*
X019383Y001031D01*
X018638Y001281D02*
X018638Y003181D01*
X018538Y003281D01*
X018538Y003283D01*
X018407Y003414D01*
X017932Y003414D01*
X018100Y003246D01*
X018138Y003154D01*
X018138Y001281D01*
X018200Y001255D01*
X018354Y001101D01*
X018388Y001019D01*
X018422Y001101D01*
X018576Y001255D01*
X018638Y001281D01*
X018638Y001348D02*
X018138Y001348D01*
X018138Y001507D02*
X018638Y001507D01*
X018638Y001665D02*
X018138Y001665D01*
X018138Y001824D02*
X018638Y001824D01*
X018638Y001982D02*
X018138Y001982D01*
X018138Y002141D02*
X018638Y002141D01*
X018638Y002299D02*
X018138Y002299D01*
X018138Y002458D02*
X018638Y002458D01*
X018638Y002616D02*
X018138Y002616D01*
X018138Y002775D02*
X018638Y002775D01*
X018638Y002933D02*
X018138Y002933D01*
X018138Y003092D02*
X018638Y003092D01*
X018569Y003250D02*
X018095Y003250D01*
X017937Y003409D02*
X018412Y003409D01*
X018511Y001190D02*
X018265Y001190D01*
X018383Y001031D02*
X018393Y001031D01*
X020236Y001190D02*
X020562Y001190D01*
X020431Y001031D02*
X020367Y001031D01*
X021236Y001190D02*
X021562Y001190D01*
X021431Y001031D02*
X021367Y001031D01*
X022236Y001190D02*
X022562Y001190D01*
X022431Y001031D02*
X022367Y001031D01*
X023236Y001190D02*
X023562Y001190D01*
X023431Y001031D02*
X023367Y001031D01*
X024236Y001190D02*
X024619Y001190D01*
X024619Y001031D02*
X024367Y001031D01*
X024429Y000873D02*
X024619Y000873D01*
X024619Y000714D02*
X024429Y000714D01*
X024381Y000556D02*
X024619Y000556D01*
X024619Y000397D02*
X024269Y000397D01*
X018284Y006262D02*
X017567Y006262D01*
X017388Y006675D02*
X017407Y006694D01*
X018063Y006694D01*
X017727Y007054D02*
X017645Y007054D01*
X018343Y008005D02*
X018397Y008005D01*
X018412Y008164D02*
X017013Y008164D01*
X017013Y008322D02*
X017673Y008322D01*
X017658Y008481D02*
X017013Y008481D01*
X017013Y008639D02*
X017658Y008639D01*
X017658Y008798D02*
X017013Y008798D01*
X017013Y008956D02*
X017717Y008956D01*
X017844Y009115D02*
X016900Y009115D01*
X017444Y009273D02*
X017469Y009273D01*
X022451Y009115D02*
X024619Y009115D01*
X022544Y011492D02*
X022544Y011492D01*
X005406Y007530D02*
X005392Y007530D01*
X005064Y007898D02*
X005064Y009290D01*
X005057Y009297D02*
X003551Y009297D01*
X002897Y009273D02*
X000709Y009273D01*
X000709Y009115D02*
X002897Y009115D01*
X002897Y009432D02*
X000709Y009432D01*
X000709Y009590D02*
X002897Y009590D01*
X002897Y009749D02*
X002460Y009749D01*
X002430Y009736D02*
X002587Y009801D01*
X002707Y009921D01*
X002772Y010078D01*
X002772Y010248D01*
X002707Y010405D01*
X002587Y010525D01*
X002430Y010590D01*
X002260Y010590D01*
X002103Y010525D01*
X001983Y010405D01*
X001918Y010248D01*
X001918Y010078D01*
X001983Y009921D01*
X002103Y009801D01*
X002260Y009736D01*
X002430Y009736D01*
X002229Y009749D02*
X000709Y009749D01*
X000709Y009907D02*
X001997Y009907D01*
X001923Y010066D02*
X000709Y010066D01*
X000709Y010224D02*
X001918Y010224D01*
X001974Y010383D02*
X000709Y010383D01*
X001825Y010541D02*
X002143Y010541D01*
X001836Y010700D02*
X002657Y010700D01*
X002657Y010858D02*
X001836Y010858D01*
X001836Y011017D02*
X002657Y011017D01*
X002657Y011175D02*
X001836Y011175D01*
X001836Y011334D02*
X002657Y011334D01*
X002657Y011492D02*
X001836Y011492D01*
X002547Y010541D02*
X002668Y010541D01*
X002716Y010383D02*
X004709Y010383D01*
X004742Y010224D02*
X004089Y010224D01*
X003990Y010541D02*
X004449Y010541D01*
X004291Y010700D02*
X004001Y010700D01*
X004001Y010858D02*
X004132Y010858D01*
X003898Y011651D02*
X000709Y011651D01*
X000709Y011809D02*
X003898Y011809D01*
X003898Y011968D02*
X000709Y011968D01*
X000709Y012126D02*
X003898Y012126D01*
X003898Y012285D02*
X000709Y012285D01*
X000709Y012443D02*
X003898Y012443D01*
X003898Y012602D02*
X000709Y012602D01*
X000709Y012760D02*
X003898Y012760D01*
X003898Y012919D02*
X000709Y012919D01*
X000709Y013077D02*
X003764Y013077D01*
X003605Y013236D02*
X002309Y013236D01*
X001616Y013236D02*
X000709Y013236D01*
X000709Y013394D02*
X001458Y013394D01*
X001383Y013553D02*
X000709Y013553D01*
X000709Y013711D02*
X001383Y013711D01*
X001383Y013870D02*
X000709Y013870D01*
X000709Y014028D02*
X001461Y014028D01*
X003639Y014821D02*
X004095Y014821D01*
X004095Y014979D02*
X003798Y014979D01*
X003956Y015138D02*
X004160Y015138D01*
X003013Y010224D02*
X002772Y010224D01*
X002766Y010066D02*
X002897Y010066D01*
X002897Y009907D02*
X002693Y009907D01*
X002762Y008322D02*
X004784Y008322D01*
X004648Y008164D02*
X002681Y008164D01*
D35*
X004589Y008824D03*
X010774Y006990D03*
X017313Y007612D03*
X017388Y006675D03*
X023845Y006665D03*
X023175Y015257D03*
X024085Y017974D03*
D36*
X022509Y017974D01*
X016738Y017974D01*
X016463Y017974D01*
X014002Y017974D01*
X013018Y017974D01*
X011876Y017974D01*
X009081Y017974D01*
X008826Y017719D01*
X008826Y016813D01*
X008826Y016093D01*
X008831Y016097D01*
X008826Y016093D02*
X008826Y015026D01*
D37*
X011926Y015851D02*
X012371Y015851D01*
X012467Y015946D01*
X012467Y017285D01*
X013530Y017206D02*
X013530Y015986D01*
X013395Y015851D01*
X012983Y015851D01*
X015046Y016065D02*
X015046Y014962D01*
X016484Y016261D02*
X016581Y016357D01*
X016581Y017856D02*
X016463Y017974D01*
X016443Y018614D02*
X017309Y018614D01*
X018648Y021498D02*
X018896Y021750D01*
X018896Y022876D01*
X019896Y022876D02*
X019908Y022864D01*
X019908Y021813D01*
X019675Y021580D01*
X019671Y021580D01*
X024002Y014805D02*
X024001Y014767D01*
X024001Y014590D01*
X020708Y012494D02*
X018579Y012494D01*
X017182Y010900D02*
X017179Y010898D01*
X016990Y010894D02*
X016985Y010900D01*
X018628Y010789D02*
X018786Y010631D01*
X019514Y010631D01*
X019829Y010317D01*
X019829Y009411D01*
X020795Y008445D01*
X021204Y008445D01*
X021376Y008273D01*
X019376Y009883D02*
X018707Y009214D01*
X018294Y009214D01*
X018097Y009017D01*
X018097Y008639D01*
X018075Y008617D01*
X014604Y012298D02*
X013897Y012298D01*
X013431Y011832D01*
X013108Y012494D02*
X013105Y012498D01*
X012896Y012498D01*
X012719Y012321D01*
X012719Y012046D01*
X012668Y012098D01*
X011203Y012098D01*
X011561Y011202D02*
X012427Y010336D01*
X012427Y009962D01*
X013372Y009017D01*
X013372Y003978D01*
X013451Y003899D01*
X014278Y004490D02*
X014518Y004250D01*
X015341Y004250D01*
X016463Y003171D02*
X016864Y002769D01*
X016864Y000813D01*
X015888Y000789D02*
X015888Y002742D01*
X015695Y002935D01*
X014888Y002364D02*
X014750Y002502D01*
X014888Y002364D02*
X014888Y000789D01*
X012900Y000801D02*
X012888Y000789D01*
X012900Y000801D02*
X012900Y001616D01*
X012723Y001793D01*
X012723Y008584D01*
X012014Y010080D02*
X011994Y010080D01*
X011679Y010789D02*
X011502Y010966D01*
X010597Y010966D01*
X009215Y010450D02*
X007955Y010450D01*
X007590Y010815D01*
X011896Y013348D02*
X012558Y013348D01*
X012711Y013195D01*
X012860Y013046D01*
X012860Y013009D01*
X013179Y012691D01*
X013179Y012691D01*
X016788Y013625D02*
X016805Y013608D01*
X016788Y013625D02*
X016788Y014286D01*
X011347Y019496D02*
X010892Y019951D01*
X010892Y022845D01*
X010890Y022847D01*
X011890Y022847D02*
X011890Y021275D01*
X011393Y020778D01*
X011393Y019979D01*
X018750Y003423D02*
X018888Y003285D01*
X018888Y000789D01*
X017888Y000789D02*
X017888Y003104D01*
X017762Y003230D01*
X012467Y002147D02*
X011888Y001569D01*
X011888Y000789D01*
X010888Y000789D02*
X010888Y001277D01*
X012014Y002403D01*
D38*
X017313Y007612D02*
X017679Y007624D01*
X018059Y007640D01*
X018728Y007640D02*
X018732Y007640D01*
X018732Y007639D01*
X018732Y006694D01*
X018766Y006660D01*
X018766Y006104D01*
X018606Y005944D01*
X018574Y005944D01*
X018732Y006694D02*
X018771Y006733D01*
X018766Y006728D02*
X018732Y006694D01*
X018732Y007640D02*
X018732Y008617D01*
X018744Y008617D01*
X023845Y007515D02*
X023845Y006665D01*
X023845Y007515D02*
X023859Y007529D01*
X017232Y016261D02*
X017477Y016505D01*
X017044Y017407D01*
X014029Y017947D02*
X014029Y016518D01*
X012986Y016518D02*
X012983Y016520D01*
X012983Y017939D01*
X013018Y017974D01*
X014002Y017974D02*
X014029Y017947D01*
X011926Y017924D02*
X011926Y016520D01*
X011926Y017924D02*
X011876Y017974D01*
X006368Y012777D02*
X006334Y012743D01*
D39*
X006257Y012666D01*
X006257Y011878D01*
X006247Y011888D01*
X005205Y011888D01*
X004258Y011242D02*
X004695Y010805D01*
X005205Y010805D01*
X006263Y010805D01*
X006273Y010815D01*
X006927Y010831D02*
X006942Y010815D01*
X006927Y010831D02*
X006927Y011878D01*
X004258Y011242D02*
X004258Y013092D01*
X003641Y013709D01*
X001963Y013709D01*
X003175Y005907D02*
X003170Y004220D01*
X003186Y004141D01*
X004301Y003049D01*
X006168Y003049D01*
X006168Y002776D01*
X006231Y002712D01*
X006168Y003049D02*
X008317Y003049D01*
X008884Y002482D01*
X008884Y000797D01*
X007884Y000797D02*
X006498Y000793D01*
X006227Y001065D01*
X006227Y001310D01*
X006231Y001630D01*
X016577Y005292D02*
X016712Y005157D01*
X016577Y005292D02*
X016577Y008289D01*
X021364Y008332D02*
X021376Y008273D01*
X021376Y005596D01*
X022544Y013721D02*
X022544Y014626D01*
X023175Y015257D01*
D40*
X018136Y008679D02*
X018075Y008617D01*
D41*
X016892Y015057D03*
M02*
