G75*
G70*
%OFA0B0*%
%FSLAX24Y24*%
%IPPOS*%
%LPD*%
%AMOC8*
5,1,8,0,0,1.08239X$1,22.5*
%
%ADD10R,0.0400X0.0250*%
%ADD11R,0.0551X0.0472*%
%ADD12R,0.0394X0.0433*%
%ADD13R,0.0472X0.0472*%
%ADD14R,0.0433X0.0394*%
%ADD15R,0.0512X0.0512*%
%ADD16R,0.1417X0.0512*%
%ADD17R,0.0591X0.0768*%
%ADD18R,0.0768X0.0591*%
%ADD19R,0.0945X0.0787*%
%ADD20R,0.0909X0.0197*%
%ADD21R,0.0250X0.0400*%
%ADD22R,0.0512X0.0591*%
%ADD23R,0.1000X0.1000*%
%ADD24R,0.1024X0.0256*%
%ADD25R,0.0591X0.0098*%
%ADD26R,0.0098X0.0591*%
%ADD27R,0.0472X0.1260*%
D10*
X017786Y005570D03*
X018574Y005196D03*
X018574Y005944D03*
X022157Y007828D03*
X022157Y008576D03*
X022945Y008202D03*
D11*
G36*
X012143Y012704D02*
X011755Y012316D01*
X011421Y012650D01*
X011809Y013038D01*
X012143Y012704D01*
G37*
G36*
X011698Y013149D02*
X011310Y012761D01*
X010976Y013095D01*
X011364Y013483D01*
X011698Y013149D01*
G37*
G36*
X011085Y012537D02*
X010697Y012149D01*
X010363Y012483D01*
X010751Y012871D01*
X011085Y012537D01*
G37*
G36*
X011531Y012091D02*
X011143Y011703D01*
X010809Y012037D01*
X011197Y012425D01*
X011531Y012091D01*
G37*
D12*
X012719Y012046D03*
X012719Y011377D03*
X012711Y013195D03*
X012711Y013865D03*
X012983Y015851D03*
X012983Y016520D03*
X014029Y016518D03*
X014029Y015849D03*
X011926Y015851D03*
X011926Y016520D03*
X004458Y006723D03*
X004458Y006054D03*
X023859Y007529D03*
X023859Y008198D03*
D13*
X008205Y007591D03*
X007378Y007591D03*
X007349Y006506D03*
X008175Y006506D03*
X008136Y005450D03*
X007310Y005450D03*
D14*
X005426Y005424D03*
X006095Y005424D03*
X005734Y007898D03*
X005064Y007898D03*
X006273Y010815D03*
X006942Y010815D03*
X006927Y011878D03*
X006257Y011878D03*
X008310Y009857D03*
X008979Y009857D03*
X008979Y008997D03*
X008310Y008997D03*
X009367Y007603D03*
X010036Y007603D03*
X010046Y006514D03*
X009376Y006514D03*
X009347Y005444D03*
X010016Y005444D03*
X018063Y006694D03*
X018732Y006694D03*
X018728Y007640D03*
X018059Y007640D03*
X018075Y008617D03*
X018744Y008617D03*
X021752Y016741D03*
X022421Y016741D03*
X009500Y016097D03*
X008831Y016097D03*
D15*
X007570Y014255D03*
X006664Y014255D03*
X005759Y014255D03*
D16*
X006664Y016657D03*
D17*
X004570Y015690D03*
X004570Y014607D03*
X005205Y011888D03*
X005205Y010805D03*
X006231Y002712D03*
X006231Y001630D03*
D18*
X008826Y015026D03*
X009909Y015026D03*
D19*
X003329Y011029D03*
X001164Y011029D03*
X001164Y007565D03*
X003329Y007565D03*
D20*
X003551Y008667D03*
X003551Y008982D03*
X003551Y009297D03*
X003551Y009612D03*
X003551Y009927D03*
D21*
X005750Y007120D03*
X005376Y006333D03*
X006124Y006333D03*
D22*
X013187Y010581D03*
X013935Y010581D03*
X016484Y016261D03*
X017232Y016261D03*
D23*
X002738Y018445D03*
X002738Y020295D03*
D24*
X022544Y013721D03*
X022544Y013221D03*
X022544Y012721D03*
X022544Y012221D03*
X022544Y011721D03*
X024001Y011721D03*
X024001Y012221D03*
X024001Y012721D03*
X024001Y013221D03*
X024001Y013721D03*
D25*
X018579Y013676D03*
X018579Y013479D03*
X018579Y013282D03*
X018579Y013085D03*
X018579Y012888D03*
X018579Y012691D03*
X018579Y012494D03*
X018579Y012298D03*
X018579Y012101D03*
X018579Y011904D03*
X018579Y011707D03*
X018579Y011510D03*
X015194Y011510D03*
X015194Y011707D03*
X015194Y011904D03*
X015194Y012101D03*
X015194Y012298D03*
X015194Y012494D03*
X015194Y012691D03*
X015194Y012888D03*
X015194Y013085D03*
X015194Y013282D03*
X015194Y013479D03*
X015194Y013676D03*
D26*
X015804Y014286D03*
X016001Y014286D03*
X016197Y014286D03*
X016394Y014286D03*
X016591Y014286D03*
X016788Y014286D03*
X016985Y014286D03*
X017182Y014286D03*
X017379Y014286D03*
X017575Y014286D03*
X017772Y014286D03*
X017969Y014286D03*
X017969Y010900D03*
X017772Y010900D03*
X017575Y010900D03*
X017379Y010900D03*
X017182Y010900D03*
X016985Y010900D03*
X016788Y010900D03*
X016591Y010900D03*
X016394Y010900D03*
X016197Y010900D03*
X016001Y010900D03*
X015804Y010900D03*
D27*
X016577Y008289D03*
X015002Y008289D03*
X015002Y005612D03*
X016577Y005612D03*
X019801Y005596D03*
X021376Y005596D03*
X021376Y008273D03*
X019801Y008273D03*
M02*
