G75*
G70*
%OFA0B0*%
%FSLAX24Y24*%
%IPPOS*%
%LPD*%
%AMOC8*
5,1,8,0,0,1.08239X$1,22.5*
%
%ADD10OC8,0.0840*%
%ADD11C,0.0474*%
%ADD12C,0.0740*%
%ADD13C,0.0780*%
%ADD14C,0.0400*%
%ADD15C,0.0580*%
%ADD16C,0.0377*%
D10*
X001963Y013709D03*
X001963Y014709D03*
X001963Y015709D03*
X001899Y022894D03*
X002899Y022894D03*
D11*
X002345Y010163D03*
X002345Y008431D03*
D12*
X007884Y000797D03*
X008884Y000797D03*
X009884Y000797D03*
X019899Y000777D03*
X020899Y000777D03*
X021899Y000777D03*
X022899Y000777D03*
X023899Y000777D03*
X024199Y016202D03*
X023888Y022852D03*
X022888Y022852D03*
X021888Y022852D03*
X020888Y022852D03*
X019896Y022876D03*
X018896Y022876D03*
X017904Y022876D03*
X016904Y022876D03*
X015904Y022876D03*
X014904Y022876D03*
X013890Y022847D03*
X012890Y022847D03*
X011890Y022847D03*
X010890Y022847D03*
X009861Y022846D03*
X008861Y022846D03*
X007876Y022860D03*
X006876Y022860D03*
X005876Y022860D03*
D13*
X010888Y000789D03*
X011888Y000789D03*
X012888Y000789D03*
X013888Y000789D03*
X014888Y000789D03*
X015888Y000789D03*
X016888Y000789D03*
X017888Y000789D03*
X018888Y000789D03*
D14*
X001323Y002273D03*
X001335Y004746D03*
X001876Y006147D03*
X003175Y005907D03*
X003796Y006738D03*
X004878Y004966D03*
X005187Y003714D03*
X006164Y000832D03*
X009797Y004120D03*
X008776Y005084D03*
X011573Y003391D03*
X013410Y003067D03*
X015341Y004250D03*
X018381Y003254D03*
X020609Y003423D03*
X023770Y003340D03*
X024250Y005297D03*
X023118Y009067D03*
X022888Y009907D03*
X022467Y010269D03*
X022994Y010939D03*
X023364Y010399D03*
X024380Y010380D03*
X021652Y011974D03*
X020934Y010987D03*
X020333Y010616D03*
X021014Y010317D03*
X021089Y009521D03*
X020360Y009773D03*
X018845Y010061D03*
X018451Y009746D03*
X018057Y009411D03*
X017939Y010080D03*
X017171Y009509D03*
X016876Y009785D03*
X015778Y010025D03*
X015262Y010348D03*
X015258Y010891D03*
X016030Y011596D03*
X015853Y012049D03*
X016581Y011576D03*
X017477Y011905D03*
X018274Y011045D03*
X018628Y010789D03*
X019278Y011104D03*
X019612Y011557D03*
X020400Y011694D03*
X020400Y012860D03*
X020026Y013139D03*
X019790Y013537D03*
X019514Y013911D03*
X019238Y014269D03*
X018372Y014057D03*
X018175Y014903D03*
X018097Y015415D03*
X018884Y015513D03*
X018923Y016222D03*
X017044Y017407D03*
X016256Y017456D03*
X015794Y017088D03*
X015469Y016472D03*
X015046Y016065D03*
X015833Y015415D03*
X015439Y015159D03*
X014514Y014470D03*
X014386Y015173D03*
X013510Y014234D03*
X012979Y014647D03*
X012359Y014647D03*
X011935Y014943D03*
X011807Y013657D03*
X012549Y012628D03*
X013431Y011832D03*
X014238Y011970D03*
X014455Y013269D03*
X015935Y013356D03*
X016805Y013608D03*
X014684Y016903D03*
X013530Y017206D03*
X012467Y017285D03*
X011347Y019496D03*
X011393Y019979D03*
X012752Y021059D03*
X011453Y021836D03*
X014696Y020356D03*
X015746Y019666D03*
X015543Y018615D03*
X016443Y018614D03*
X017309Y018614D03*
X018089Y018638D03*
X021384Y019691D03*
X022398Y018598D03*
X022799Y017444D03*
X021925Y017378D03*
X021971Y015285D03*
X021286Y015159D03*
X021561Y014450D03*
X021278Y013734D03*
X023254Y014234D03*
X024160Y019454D03*
X022418Y020960D03*
X022417Y022015D03*
X024323Y021976D03*
X012014Y010080D03*
X011364Y009746D03*
X010951Y009313D03*
X009888Y009017D03*
X009888Y009864D03*
X009215Y010450D03*
X008323Y011462D03*
X007841Y012584D03*
X009849Y014155D03*
X009957Y016836D03*
X008826Y016813D03*
X006906Y018086D03*
X005272Y018352D03*
X004140Y017659D03*
X001197Y018876D03*
X001201Y021161D03*
X000990Y015842D03*
X001040Y012348D03*
X006601Y010084D03*
X007565Y008559D03*
X010321Y011242D03*
X012329Y008919D03*
X012723Y008584D03*
X014179Y009037D03*
X020397Y007975D03*
D15*
X017313Y007612D03*
X017388Y006675D03*
X023845Y006665D03*
X023175Y015257D03*
X024085Y017974D03*
X010774Y006990D03*
X004589Y008824D03*
D16*
X016892Y015057D03*
M02*
